<?xml version="1.0" encoding="UTF-8"?>
<svg id="Fade_Layer_1" data-name="Fade Layer 1" xmlns="http://www.w3.org/2000/svg" viewBox="0 0 3840 2160">
  <defs>
    <style>
      .cls-1 {
        fill: #e8f9fc;
        stroke-width: 0px;
      }
    </style>
  </defs>
  <g>
    <path class="cls-1" d="M1460.17,1268.72h-159c-2.76,0-5,2.24-5,5v3c0,2.76,2.24,5,5,5h71v39.38l-5.69.04c-17.56.12-31.95,14.5-32.06,32.06l-.08,12.64,14,.09.08-12.64c.07-9.95,8.21-18.09,18.16-18.16l12.5-.08h0s12.64.09,12.64.09c9.94.07,18.09,8.21,18.16,18.16l.08,12.64,14-.09-.08-12.64c-.12-17.56-14.5-31.94-32.06-32.06l-5.64-.04v-39.39h74c2.76,0,5-2.24,5-5v-3c0-2.76-2.24-5-5-5Z"/>
    <path class="cls-1" d="M1286,1302h-44v-74c0-2.76-2.24-5-5-5h-4c-2.76,0-5,2.24-5,5v138h14v-46.25c0-2.07,1.68-3.75,3.75-3.75h38.5c2.07,0,3.75,1.68,3.75,3.75v46.25h12v-59c0-2.76-2.24-5-5-5h-9Z"/>
    <path class="cls-1" d="M1471,1302h44s0-74,0-74c0-2.76,2.24-5,5-5h4c2.76,0,5,2.24,5,5v74s0,14,0,14v50h-14v-46.25c0-2.07-1.68-3.75-3.75-3.75h-38.5c-2.07,0-3.75,1.68-3.75,3.75v46.25h-12v-50s0-9,0-9c0-2.76,2.24-5,5-5h9Z"/>
  </g>
  <g>
    <path class="cls-1" d="M2733.67,1294.72h-159c-2.76,0-5,2.24-5,5v3c0,2.76,2.24,5,5,5h71v39.38l-5.69.04c-17.56.12-31.95,14.5-32.06,32.06l-.08,12.64,14,.09.08-12.64c.07-9.95,8.21-18.09,18.16-18.16l12.5-.08h0s12.64.09,12.64.09c9.94.07,18.09,8.21,18.16,18.16l.08,12.64,14-.09-.08-12.64c-.12-17.56-14.5-31.94-32.06-32.06l-5.64-.04v-39.39h74c2.76,0,5-2.24,5-5v-3c0-2.76-2.24-5-5-5Z"/>
    <path class="cls-1" d="M2559.5,1328h-44v-74c0-2.76-2.24-5-5-5h-4c-2.76,0-5,2.24-5,5v138h14v-46.25c0-2.07,1.68-3.75,3.75-3.75h38.5c2.07,0,3.75,1.68,3.75,3.75v46.25h12v-59c0-2.76-2.24-5-5-5h-9Z"/>
    <path class="cls-1" d="M2744.5,1328h44s0-74,0-74c0-2.76,2.24-5,5-5h4c2.76,0,5,2.24,5,5v74s0,14,0,14v50h-14v-46.25c0-2.07-1.68-3.75-3.75-3.75h-38.5c-2.07,0-3.75,1.68-3.75,3.75v46.25h-12v-50s0-9,0-9c0-2.76,2.24-5,5-5h9Z"/>
  </g>
  <g>
    <path class="cls-1" d="M2285.67,1340.22h-159c-2.76,0-5,2.24-5,5v3c0,2.76,2.24,5,5,5h71v39.38l-5.69.04c-17.56.12-31.95,14.5-32.06,32.06l-.08,12.64,14,.09.08-12.64c.07-9.95,8.21-18.09,18.16-18.16l12.5-.08h0s12.64.09,12.64.09c9.94.07,18.09,8.21,18.16,18.16l.08,12.64,14-.09-.08-12.64c-.12-17.56-14.5-31.94-32.06-32.06l-5.64-.04v-39.39h74c2.76,0,5-2.24,5-5v-3c0-2.76-2.24-5-5-5Z"/>
    <path class="cls-1" d="M2111.5,1373.5h-44v-74c0-2.76-2.24-5-5-5h-4c-2.76,0-5,2.24-5,5v138h14v-46.25c0-2.07,1.68-3.75,3.75-3.75h38.5c2.07,0,3.75,1.68,3.75,3.75v46.25h12v-59c0-2.76-2.24-5-5-5h-9Z"/>
    <path class="cls-1" d="M2296.5,1373.5h44s0-74,0-74c0-2.76,2.24-5,5-5h4c2.76,0,5,2.24,5,5v74s0,14,0,14v50h-14v-46.25c0-2.07-1.68-3.75-3.75-3.75h-38.5c-2.07,0-3.75,1.68-3.75,3.75v46.25h-12v-50s0-9,0-9c0-2.76,2.24-5,5-5h9Z"/>
  </g>
</svg>