<?xml version="1.0" encoding="UTF-8"?>
<svg id="Move_Layer" data-name="Move Layer" xmlns="http://www.w3.org/2000/svg" viewBox="0 0 3840 2160">
  <defs>
    <style>
      .cls-1 {
        fill: #5ca6ff;
      }

      .cls-1, .cls-2, .cls-3, .cls-4, .cls-5, .cls-6 {
        stroke-width: 0px;
      }

      .cls-2 {
        fill: #89baf4;
      }

      .cls-3 {
        fill: #a2cef9;
      }

      .cls-4 {
        fill: #4f8bc6;
      }

      .cls-5 {
        fill: #bbe0ff;
      }

      .cls-6 {
        fill: #75b3f2;
      }
    </style>
  </defs>
  <rect class="cls-4" y="1469" width="3841" height="700"/>
  <rect class="cls-2" x="-1" y="1315" width="3840" height="259"/>
  <rect class="cls-3" x="1949" y="637" width="1892" height="678"/>
  <g>
    <rect class="cls-3" x="-1" y="813" width="1570" height="502"/>
    <path class="cls-1" d="M1549,623H-1v190h1570v-170c0-11.05-8.95-20-20-20Z"/>
  </g>
  <path class="cls-1" d="M1969,447h1852c11.04,0,20,8.96,20,20v170h-1892v-170c0-11.04,8.96-20,20-20Z"/>
  <rect class="cls-5" x="2597" y="637" width="656" height="678"/>
  <rect class="cls-1" x="2009" y="715" width="120" height="154" rx="5" ry="5"/>
  <rect class="cls-1" x="2204" y="715" width="120" height="154" rx="5" ry="5"/>
  <rect class="cls-1" x="2399" y="715" width="120" height="154" rx="5" ry="5"/>
  <rect class="cls-1" x="2670" y="715" width="120" height="154" rx="5" ry="5"/>
  <rect class="cls-1" x="2865" y="715" width="120" height="154" rx="5" ry="5"/>
  <rect class="cls-1" x="3060" y="715" width="120" height="154" rx="5" ry="5"/>
  <rect class="cls-1" x="3331" y="715" width="120" height="154" rx="5" ry="5"/>
  <rect class="cls-1" x="3526" y="715" width="120" height="154" rx="5" ry="5"/>
  <rect class="cls-1" x="3721" y="715" width="120" height="154" rx="5" ry="5"/>
  <path class="cls-1" d="M2039,1102h110c2.76,0,5,2.24,5,5v209h-120v-209c0-2.76,2.24-5,5-5Z"/>
  <path class="cls-6" d="M2532.04,1064h-536.08c-10.31,0-16.52-11.44-10.9-20.08l44.89-69.01c2.4-3.69,6.5-5.91,10.9-5.91h446.3c4.4,0,8.5,2.22,10.9,5.91l44.89,69.01c5.62,8.65-.58,20.08-10.9,20.08Z"/>
  <rect class="cls-1" x="2218" y="1102" width="275" height="163" rx="5" ry="5"/>
  <path class="cls-1" d="M3044,1102h110c2.76,0,5,2.24,5,5v209h-120v-209c0-2.76,2.24-5,5-5Z"/>
  <path class="cls-6" d="M2657.27,1064h535.46c10.45,0,16.73-11.59,11.04-20.35l-44.67-68.67c-2.43-3.73-6.58-5.99-11.04-5.99h-446.12c-4.45,0-8.61,2.25-11.04,5.99l-44.67,68.67c-5.7,8.76.59,20.35,11.04,20.35Z"/>
  <rect class="cls-1" x="2677.52" y="1102" width="124.88" height="163" rx="5" ry="5" transform="translate(5479.93 2367) rotate(-180)"/>
  <rect class="cls-1" x="2858.5" y="1102" width="118.5" height="163" rx="5" ry="5" transform="translate(5835.5 2367) rotate(-180)"/>
  <path class="cls-6" d="M823,983h605c23.18,0,42,18.82,42,42h0c0,8.28-6.72,15-15,15h-659c-8.28,0-15-6.72-15-15h0c0-23.18,18.82-42,42-42Z"/>
  <path class="cls-1" d="M1070,1081h110c2.76,0,5,2.24,5,5v230h-120v-230c0-2.76,2.24-5,5-5Z"/>
  <rect class="cls-1" x="1295" y="1081" width="120" height="154" rx="5" ry="5"/>
  <rect class="cls-1" x="835" y="1081" width="120" height="154" rx="5" ry="5"/>
  <rect class="cls-1" x="836" y="861" width="237" height="82" rx="5" ry="5"/>
  <rect class="cls-1" x="1178" y="861" width="237" height="82" rx="5" ry="5"/>
  <rect class="cls-1" x="113" y="861" width="120" height="154" rx="5" ry="5"/>
  <rect class="cls-1" x="308" y="861" width="120" height="154" rx="5" ry="5"/>
  <rect class="cls-1" x="503" y="861" width="120" height="154" rx="5" ry="5"/>
</svg>