<?xml version="1.0" encoding="utf-8"?>
<!-- Generator: Adobe Illustrator 27.8.0, SVG Export Plug-In . SVG Version: 6.00 Build 0)  -->
<svg version="1.1" id="Layer_1" xmlns="http://www.w3.org/2000/svg" xmlns:xlink="http://www.w3.org/1999/xlink" x="0px" y="0px"
	 viewBox="0 0 24 24" style="enable-background:new 0 0 24 24;" xml:space="preserve">
<path class="st0" d="M3,20v-3c0-0.6,0.4-1,1-1h0c0.6,0,1,0.4,1,1v1c0,0.6,0.4,1,1,1h1c0.6,0,1,0.4,1,1v0c0,0.6-0.4,1-1,1H4
	C3.4,21,3,20.6,3,20z M16,20L16,20c0-0.6,0.4-1,1-1h1c0.6,0,1-0.4,1-1v-1c0-0.6,0.4-1,1-1h0c0.6,0,1,0.4,1,1v3c0,0.6-0.4,1-1,1h-3
	C16.4,21,16,20.6,16,20z M3,7V4c0-0.6,0.4-1,1-1h3c0.6,0,1,0.4,1,1v0c0,0.6-0.4,1-1,1H6C5.4,5,5,5.4,5,6v1c0,0.6-0.4,1-1,1h0
	C3.4,8,3,7.6,3,7z M19,7V6c0-0.6-0.4-1-1-1h-1c-0.6,0-1-0.4-1-1v0c0-0.6,0.4-1,1-1h3c0.6,0,1,0.4,1,1v3c0,0.6-0.4,1-1,1h0
	C19.4,8,19,7.6,19,7z"/>
</svg>
