<?xml version="1.0" encoding="utf-8"?>
<!-- Generator: Adobe Illustrator 27.8.0, SVG Export Plug-In . SVG Version: 6.00 Build 0)  -->
<svg version="1.1" id="Layer_1" xmlns="http://www.w3.org/2000/svg" xmlns:xlink="http://www.w3.org/1999/xlink" x="0px" y="0px"
	 viewBox="0 0 24 24" style="enable-background:new 0 0 24 24;" xml:space="preserve">
<path class="st0" d="M4,19.4V9.8c0-0.5,0.2-1,0.6-1.3L11,3.7c0.6-0.4,1.3-0.4,1.9,0l6.4,4.8C19.8,8.8,20,9.3,20,9.8v9.6
	c0,0.9-0.7,1.6-1.6,1.6h-2.8c-0.9,0-1.6-0.7-1.6-1.6v-3.8c0-0.9-0.7-1.6-1.6-1.6h-0.8c-0.9,0-1.6,0.7-1.6,1.6v3.8
	c0,0.9-0.7,1.6-1.6,1.6H5.6C4.7,21,4,20.3,4,19.4z"/>
</svg>
