<?xml version="1.0" encoding="UTF-8"?>
<svg xmlns="http://www.w3.org/2000/svg" viewBox="0 0 3840 2160">
  <g id="tourRequests-move">
    <rect x="-1" y="1546" width="3841" height="614" style="fill: #692c6a; stroke-width: 0px;"/>
    <rect x="1175.53" y="0" width="724.16" height="1546.15" style="fill: #812c82; stroke-width: 0px;"/>
    <rect x="1899.69" width="392.53" height="1546.15" style="fill: #8f4a90; stroke-width: 0px;"/>
    <rect x="2520.87" width="1320.13" height="1546.15" style="fill: #773178; stroke-width: 0px;"/>
    <rect width="1175.53" height="1546.15" style="fill: #944095; stroke-width: 0px;"/>
    <rect x="1197.18" y="1289.32" width="676.62" height="98.63" style="fill: #d794d8; stroke-width: 0px;"/>
    <rect x="1205.32" y="1413.1" width="70.17" height="133.05" style="fill: #f7ebf7; stroke-width: 0px;"/>
    <rect x="1296.01" y="1413.1" width="70.17" height="133.05" style="fill: #f7ebf7; stroke-width: 0px;"/>
    <rect x="1386.03" y="1413.1" width="70.17" height="133.05" style="fill: #f7ebf7; stroke-width: 0px;"/>
    <rect x="1478.04" y="1413.1" width="70.17" height="133.05" style="fill: #f7ebf7; stroke-width: 0px;"/>
    <rect x="1568.72" y="1413.1" width="70.17" height="133.05" style="fill: #f7ebf7; stroke-width: 0px;"/>
    <rect x="1658.75" y="1413.1" width="70.17" height="133.05" style="fill: #f7ebf7; stroke-width: 0px;"/>
    <rect x="1748.77" y="1413.1" width="122.46" height="133.05" style="fill: #f7ebf7; stroke-width: 0px;"/>
    <rect x="463" y="995.99" width="712.63" height="299.86" style="fill: #f6d1f6; stroke-width: 0px;"/>
    <rect x="1230.48" y="847.49" width="70.17" height="76.18" style="fill: #f7ebf7; stroke-width: 0px;"/>
    <rect x="1321.16" y="847.49" width="70.17" height="76.18" style="fill: #f7ebf7; stroke-width: 0px;"/>
    <rect x="1411.18" y="847.49" width="70.17" height="76.18" style="fill: #f7ebf7; stroke-width: 0px;"/>
    <rect x="1503.19" y="847.49" width="70.17" height="76.18" style="fill: #f7ebf7; stroke-width: 0px;"/>
    <rect x="1593.88" y="847.49" width="70.17" height="76.18" style="fill: #f7ebf7; stroke-width: 0px;"/>
    <rect x="1683.9" y="847.49" width="70.17" height="76.18" style="fill: #f7ebf7; stroke-width: 0px;"/>
    <rect x="1775.25" y="848.16" width="70.17" height="76.18" style="fill: #f7ebf7; stroke-width: 0px;"/>
    <rect x="1230.15" y="733.46" width="70.17" height="76.18" style="fill: #f7ebf7; stroke-width: 0px;"/>
    <rect x="1320.84" y="733.46" width="70.17" height="76.18" style="fill: #f7ebf7; stroke-width: 0px;"/>
    <rect x="1410.86" y="733.46" width="70.17" height="76.18" style="fill: #f7ebf7; stroke-width: 0px;"/>
    <rect x="1502.87" y="733.46" width="70.17" height="76.18" style="fill: #f7ebf7; stroke-width: 0px;"/>
    <rect x="1593.56" y="733.46" width="70.17" height="76.18" style="fill: #f7ebf7; stroke-width: 0px;"/>
    <rect x="1683.58" y="733.46" width="70.17" height="76.18" style="fill: #f7ebf7; stroke-width: 0px;"/>
    <rect x="1774.93" y="734.13" width="70.17" height="76.18" style="fill: #f7ebf7; stroke-width: 0px;"/>
    <rect x="1230.31" y="619.03" width="70.17" height="76.18" style="fill: #f7ebf7; stroke-width: 0px;"/>
    <rect x="1321" y="619.03" width="70.17" height="76.18" style="fill: #f7ebf7; stroke-width: 0px;"/>
    <rect x="1411.02" y="619.03" width="70.17" height="76.18" style="fill: #f7ebf7; stroke-width: 0px;"/>
    <rect x="1503.03" y="619.03" width="70.17" height="76.18" style="fill: #f7ebf7; stroke-width: 0px;"/>
    <rect x="1593.72" y="619.03" width="70.17" height="76.18" style="fill: #f7ebf7; stroke-width: 0px;"/>
    <rect x="1683.74" y="619.03" width="70.17" height="76.18" style="fill: #f7ebf7; stroke-width: 0px;"/>
    <rect x="1775.09" y="619.7" width="70.17" height="76.18" style="fill: #f7ebf7; stroke-width: 0px;"/>
    <rect x="1230.38" y="503.72" width="70.17" height="76.18" style="fill: #f7ebf7; stroke-width: 0px;"/>
    <rect x="1321.06" y="503.72" width="70.17" height="76.18" style="fill: #f7ebf7; stroke-width: 0px;"/>
    <rect x="1411.09" y="503.72" width="70.17" height="76.18" style="fill: #f7ebf7; stroke-width: 0px;"/>
    <rect x="1503.1" y="503.72" width="70.17" height="76.18" style="fill: #f7ebf7; stroke-width: 0px;"/>
    <rect x="1593.78" y="503.72" width="70.17" height="76.18" style="fill: #f7ebf7; stroke-width: 0px;"/>
    <rect x="1683.8" y="503.72" width="70.17" height="76.18" style="fill: #f7ebf7; stroke-width: 0px;"/>
    <rect x="1775.15" y="504.39" width="70.17" height="76.18" style="fill: #f7ebf7; stroke-width: 0px;"/>
    <rect x="1230.06" y="389.68" width="70.17" height="76.18" style="fill: #f7ebf7; stroke-width: 0px;"/>
    <rect x="1320.74" y="389.68" width="70.17" height="76.18" style="fill: #f7ebf7; stroke-width: 0px;"/>
    <rect x="1410.77" y="389.68" width="70.17" height="76.18" style="fill: #f7ebf7; stroke-width: 0px;"/>
    <rect x="1502.77" y="389.68" width="70.17" height="76.18" style="fill: #f7ebf7; stroke-width: 0px;"/>
    <rect x="1593.46" y="389.68" width="70.17" height="76.18" style="fill: #f7ebf7; stroke-width: 0px;"/>
    <rect x="1683.48" y="389.68" width="70.17" height="76.18" style="fill: #f7ebf7; stroke-width: 0px;"/>
    <rect x="1774.83" y="390.36" width="70.17" height="76.18" style="fill: #f7ebf7; stroke-width: 0px;"/>
    <rect x="1899.47" y="1433.38" width="321.98" height="82.44" style="fill: #f7ebf7; stroke-width: 0px;"/>
    <rect x="2240.89" y="1433.38" width="51.33" height="112.77" style="fill: #f7ebf7; stroke-width: 0px;"/>
    <polygon points="2307.77 1433.38 1899.47 1433.38 1899.47 1407.71 2301.55 1407.71 2307.77 1433.38" style="fill: #6c256d; stroke-width: 0px;"/>
    <rect x="1899.47" y="1137.84" width="400.53" height="227.1" style="fill: #f6d1f6; stroke-width: 0px;"/>
    <polygon points="2292.22 1110.62 1899.47 1110.62 1899.47 883.52 2307.77 883.52 2292.22 1110.62" style="fill: #f7e9f7; stroke-width: 0px;"/>
    <rect x="1932.91" y="635.43" width="326.65" height="227.1" style="fill: #f6d1f6; stroke-width: 0px;"/>
    <rect x="1924.99" y="520.7" width="70.17" height="76.18" style="fill: #f7ebf7; stroke-width: 0px;"/>
    <rect x="2015.68" y="520.7" width="70.17" height="76.18" style="fill: #f7ebf7; stroke-width: 0px;"/>
    <rect x="2105.7" y="520.7" width="70.17" height="76.18" style="fill: #f7ebf7; stroke-width: 0px;"/>
    <rect x="2197.05" y="521.37" width="70.17" height="76.18" style="fill: #f7ebf7; stroke-width: 0px;"/>
    <rect x="1924.99" y="405.59" width="70.17" height="76.18" style="fill: #f7ebf7; stroke-width: 0px;"/>
    <rect x="2015.68" y="405.59" width="70.17" height="76.18" style="fill: #f7ebf7; stroke-width: 0px;"/>
    <rect x="2105.7" y="405.59" width="70.17" height="76.18" style="fill: #f7ebf7; stroke-width: 0px;"/>
    <rect x="2197.05" y="406.26" width="70.17" height="76.18" style="fill: #f7ebf7; stroke-width: 0px;"/>
    <rect x="463" y="1319.05" width="712.78" height="68.73" style="fill: #f7e9f7; stroke-width: 0px;"/>
    <rect x="1203.09" y="960.55" width="204.08" height="299.86" style="fill: #f7e9f7; stroke-width: 0px;"/>
    <rect x="1436.69" y="960.55" width="204.08" height="299.86" style="fill: #f7e9f7; stroke-width: 0px;"/>
    <rect x="1669.92" y="960.27" width="204.08" height="299.86" style="fill: #f6d1f6; stroke-width: 0px;"/>
    <rect x="2520.87" y="735.75" width="928.61" height="86.88" style="fill: #d898d9; stroke-width: 0px;"/>
    <rect x="2520.87" y="857.74" width="928.61" height="86.88" style="fill: #d898d9; stroke-width: 0px;"/>
    <rect x="2520.87" y="491.8" width="928.61" height="86.88" style="fill: #d898d9; stroke-width: 0px;"/>
    <rect x="2520.87" y="613.79" width="928.61" height="86.88" style="fill: #d898d9; stroke-width: 0px;"/>
    <rect x="2520.87" y="369.58" width="928.61" height="86.88" style="fill: #d898d9; stroke-width: 0px;"/>
    <rect x="2504.54" y="1028.96" width="280.76" height="315.76" style="fill: #f7e9f7; stroke-width: 0px;"/>
    <rect x="2833.52" y="977.63" width="280.76" height="315.76" style="fill: #f6d1f6; stroke-width: 0px;"/>
    <rect x="3139.17" y="977.63" width="280.76" height="315.76" style="fill: #f6d1f6; stroke-width: 0px;"/>
    <rect x="2520.87" y="1413.43" width="286.98" height="133.05" style="fill: #d898d9; stroke-width: 0px;"/>
    <rect x="2833.52" y="1413.61" width="615.96" height="133.05" style="fill: #d898d9; stroke-width: 0px;"/>
    <rect x="888.89" y="1413.18" width="286.64" height="133.05" transform="translate(2064.41 2959.41) rotate(180)" style="fill: #d898d9; stroke-width: 0px;"/>
    <rect x="564.35" y="1413.01" width="286.64" height="133.05" transform="translate(1415.35 2959.07) rotate(180)" style="fill: #d898d9; stroke-width: 0px;"/>
    <rect x="463" y="1413.01" width="62.9" height="133.05" transform="translate(988.9 2959.07) rotate(180)" style="fill: #d898d9; stroke-width: 0px;"/>
    <rect x="503.23" y="858.98" width="70.17" height="93.49" style="fill: #f7ebf7; stroke-width: 0px;"/>
    <rect x="593.91" y="858.98" width="70.17" height="93.49" style="fill: #f7ebf7; stroke-width: 0px;"/>
    <rect x="683.94" y="858.98" width="70.17" height="93.49" style="fill: #f7ebf7; stroke-width: 0px;"/>
    <rect x="775.95" y="858.98" width="70.17" height="93.49" style="fill: #f7ebf7; stroke-width: 0px;"/>
    <rect x="866.63" y="858.98" width="70.17" height="93.49" style="fill: #f7ebf7; stroke-width: 0px;"/>
    <rect x="956.65" y="858.98" width="70.17" height="93.49" style="fill: #f7ebf7; stroke-width: 0px;"/>
    <rect x="1048" y="859.81" width="70.17" height="93.49" style="fill: #f7ebf7; stroke-width: 0px;"/>
    <rect x="503.39" y="718.56" width="70.17" height="93.49" style="fill: #f7ebf7; stroke-width: 0px;"/>
    <rect x="594.07" y="718.56" width="70.17" height="93.49" style="fill: #f7ebf7; stroke-width: 0px;"/>
    <rect x="684.1" y="718.56" width="70.17" height="93.49" style="fill: #f7ebf7; stroke-width: 0px;"/>
    <rect x="776.11" y="718.56" width="70.17" height="93.49" style="fill: #f7ebf7; stroke-width: 0px;"/>
    <rect x="866.79" y="718.56" width="70.17" height="93.49" style="fill: #f7ebf7; stroke-width: 0px;"/>
    <rect x="956.81" y="718.56" width="70.17" height="93.49" style="fill: #f7ebf7; stroke-width: 0px;"/>
    <rect x="1048.16" y="719.39" width="70.17" height="93.49" style="fill: #f7ebf7; stroke-width: 0px;"/>
    <rect x="503.45" y="577.05" width="70.17" height="93.49" style="fill: #f7ebf7; stroke-width: 0px;"/>
    <rect x="594.14" y="577.05" width="70.17" height="93.49" style="fill: #f7ebf7; stroke-width: 0px;"/>
    <rect x="684.16" y="577.05" width="70.17" height="93.49" style="fill: #f7ebf7; stroke-width: 0px;"/>
    <rect x="776.17" y="577.05" width="70.17" height="93.49" style="fill: #f7ebf7; stroke-width: 0px;"/>
    <rect x="866.86" y="577.05" width="70.17" height="93.49" style="fill: #f7ebf7; stroke-width: 0px;"/>
    <rect x="956.88" y="577.05" width="70.17" height="93.49" style="fill: #f7ebf7; stroke-width: 0px;"/>
    <rect x="1048.23" y="577.87" width="70.17" height="93.49" style="fill: #f7ebf7; stroke-width: 0px;"/>
    <rect x="503.13" y="437.11" width="70.17" height="93.49" style="fill: #f7ebf7; stroke-width: 0px;"/>
    <rect x="593.82" y="437.11" width="70.17" height="93.49" style="fill: #f7ebf7; stroke-width: 0px;"/>
    <rect x="683.84" y="437.11" width="70.17" height="93.49" style="fill: #f7ebf7; stroke-width: 0px;"/>
    <rect x="775.85" y="437.11" width="70.17" height="93.49" style="fill: #f7ebf7; stroke-width: 0px;"/>
    <rect x="866.53" y="437.11" width="70.17" height="93.49" style="fill: #f7ebf7; stroke-width: 0px;"/>
    <rect x="956.56" y="437.11" width="70.17" height="93.49" style="fill: #f7ebf7; stroke-width: 0px;"/>
    <rect x="1047.9" y="437.93" width="70.17" height="93.49" style="fill: #f7ebf7; stroke-width: 0px;"/>
    <rect x="2521.19" y="247.02" width="928.61" height="86.88" style="fill: #d898d9; stroke-width: 0px;"/>
    <rect x="2521.19" y="3.07" width="928.61" height="86.88" style="fill: #d898d9; stroke-width: 0px;"/>
    <rect x="2521.19" y="125.06" width="928.61" height="86.88" style="fill: #d898d9; stroke-width: 0px;"/>
    <rect x="1925.34" y="289.91" width="70.17" height="76.18" style="fill: #f7ebf7; stroke-width: 0px;"/>
    <rect x="2016.02" y="289.91" width="70.17" height="76.18" style="fill: #f7ebf7; stroke-width: 0px;"/>
    <rect x="2106.05" y="289.91" width="70.17" height="76.18" style="fill: #f7ebf7; stroke-width: 0px;"/>
    <rect x="2197.39" y="290.58" width="70.17" height="76.18" style="fill: #f7ebf7; stroke-width: 0px;"/>
    <rect x="1925.34" y="174.8" width="70.17" height="76.18" style="fill: #f7ebf7; stroke-width: 0px;"/>
    <rect x="2016.02" y="174.8" width="70.17" height="76.18" style="fill: #f7ebf7; stroke-width: 0px;"/>
    <rect x="2106.05" y="174.8" width="70.17" height="76.18" style="fill: #f7ebf7; stroke-width: 0px;"/>
    <rect x="2197.39" y="175.48" width="70.17" height="76.18" style="fill: #f7ebf7; stroke-width: 0px;"/>
    <rect x="1925.34" y="58.91" width="70.17" height="76.18" style="fill: #f7ebf7; stroke-width: 0px;"/>
    <rect x="2016.02" y="58.91" width="70.17" height="76.18" style="fill: #f7ebf7; stroke-width: 0px;"/>
    <rect x="2106.05" y="58.91" width="70.17" height="76.18" style="fill: #f7ebf7; stroke-width: 0px;"/>
    <rect x="2197.39" y="59.58" width="70.17" height="76.18" style="fill: #f7ebf7; stroke-width: 0px;"/>
    <rect x="1925.34" y="0" width="70.17" height="20.48" style="fill: #f7ebf7; stroke-width: 0px;"/>
    <rect x="2016.02" y="0" width="70.17" height="20.48" style="fill: #f7ebf7; stroke-width: 0px;"/>
    <rect x="2106.05" y="0" width="70.17" height="20.48" style="fill: #f7ebf7; stroke-width: 0px;"/>
    <rect x="2197.39" y=".18" width="70.17" height="20.48" style="fill: #f7ebf7; stroke-width: 0px;"/>
    <rect x="1231.24" y="275.01" width="70.17" height="76.18" style="fill: #f7ebf7; stroke-width: 0px;"/>
    <rect x="1321.92" y="275.01" width="70.17" height="76.18" style="fill: #f7ebf7; stroke-width: 0px;"/>
    <rect x="1411.95" y="275.01" width="70.17" height="76.18" style="fill: #f7ebf7; stroke-width: 0px;"/>
    <rect x="1503.96" y="275.01" width="70.17" height="76.18" style="fill: #f7ebf7; stroke-width: 0px;"/>
    <rect x="1594.64" y="275.01" width="70.17" height="76.18" style="fill: #f7ebf7; stroke-width: 0px;"/>
    <rect x="1684.66" y="275.01" width="70.17" height="76.18" style="fill: #f7ebf7; stroke-width: 0px;"/>
    <rect x="1776.01" y="275.68" width="70.17" height="76.18" style="fill: #f7ebf7; stroke-width: 0px;"/>
    <rect x="1231.3" y="159.69" width="70.17" height="76.18" style="fill: #f7ebf7; stroke-width: 0px;"/>
    <rect x="1321.99" y="159.69" width="70.17" height="76.18" style="fill: #f7ebf7; stroke-width: 0px;"/>
    <rect x="1412.01" y="159.69" width="70.17" height="76.18" style="fill: #f7ebf7; stroke-width: 0px;"/>
    <rect x="1504.02" y="159.69" width="70.17" height="76.18" style="fill: #f7ebf7; stroke-width: 0px;"/>
    <rect x="1594.71" y="159.69" width="70.17" height="76.18" style="fill: #f7ebf7; stroke-width: 0px;"/>
    <rect x="1684.73" y="159.69" width="70.17" height="76.18" style="fill: #f7ebf7; stroke-width: 0px;"/>
    <rect x="1776.08" y="160.37" width="70.17" height="76.18" style="fill: #f7ebf7; stroke-width: 0px;"/>
    <rect x="1230.98" y="45.66" width="70.17" height="76.18" style="fill: #f7ebf7; stroke-width: 0px;"/>
    <rect x="1321.67" y="45.66" width="70.17" height="76.18" style="fill: #f7ebf7; stroke-width: 0px;"/>
    <rect x="1411.69" y="45.66" width="70.17" height="76.18" style="fill: #f7ebf7; stroke-width: 0px;"/>
    <rect x="1503.7" y="45.66" width="70.17" height="76.18" style="fill: #f7ebf7; stroke-width: 0px;"/>
    <rect x="1594.38" y="45.66" width="70.17" height="76.18" style="fill: #f7ebf7; stroke-width: 0px;"/>
    <rect x="1684.41" y="45.66" width="70.17" height="76.18" style="fill: #f7ebf7; stroke-width: 0px;"/>
    <rect x="1775.75" y="46.33" width="70.17" height="76.18" style="fill: #f7ebf7; stroke-width: 0px;"/>
    <rect x="503.49" y="295.92" width="70.17" height="93.49" style="fill: #f7ebf7; stroke-width: 0px;"/>
    <rect x="594.18" y="295.92" width="70.17" height="93.49" style="fill: #f7ebf7; stroke-width: 0px;"/>
    <rect x="684.2" y="295.92" width="70.17" height="93.49" style="fill: #f7ebf7; stroke-width: 0px;"/>
    <rect x="776.21" y="295.92" width="70.17" height="93.49" style="fill: #f7ebf7; stroke-width: 0px;"/>
    <rect x="866.9" y="295.92" width="70.17" height="93.49" style="fill: #f7ebf7; stroke-width: 0px;"/>
    <rect x="956.92" y="295.92" width="70.17" height="93.49" style="fill: #f7ebf7; stroke-width: 0px;"/>
    <rect x="1048.27" y="296.75" width="70.17" height="93.49" style="fill: #f7ebf7; stroke-width: 0px;"/>
    <rect x="503.56" y="154.41" width="70.17" height="93.49" style="fill: #f7ebf7; stroke-width: 0px;"/>
    <rect x="594.24" y="154.41" width="70.17" height="93.49" style="fill: #f7ebf7; stroke-width: 0px;"/>
    <rect x="684.27" y="154.41" width="70.17" height="93.49" style="fill: #f7ebf7; stroke-width: 0px;"/>
    <rect x="776.28" y="154.41" width="70.17" height="93.49" style="fill: #f7ebf7; stroke-width: 0px;"/>
    <rect x="866.96" y="154.41" width="70.17" height="93.49" style="fill: #f7ebf7; stroke-width: 0px;"/>
    <rect x="956.98" y="154.41" width="70.17" height="93.49" style="fill: #f7ebf7; stroke-width: 0px;"/>
    <rect x="1048.33" y="155.23" width="70.17" height="93.49" style="fill: #f7ebf7; stroke-width: 0px;"/>
    <rect x="503.24" y="14.47" width="70.17" height="93.49" style="fill: #f7ebf7; stroke-width: 0px;"/>
    <rect x="593.92" y="14.47" width="70.17" height="93.49" style="fill: #f7ebf7; stroke-width: 0px;"/>
    <rect x="683.95" y="14.47" width="70.17" height="93.49" style="fill: #f7ebf7; stroke-width: 0px;"/>
    <rect x="775.95" y="14.47" width="70.17" height="93.49" style="fill: #f7ebf7; stroke-width: 0px;"/>
    <rect x="866.64" y="14.47" width="70.17" height="93.49" style="fill: #f7ebf7; stroke-width: 0px;"/>
    <rect x="956.66" y="14.47" width="70.17" height="93.49" style="fill: #f7ebf7; stroke-width: 0px;"/>
    <rect x="1048.01" y="15.29" width="70.17" height="93.49" style="fill: #f7ebf7; stroke-width: 0px;"/>
  </g>
  <g id="tourRequests-fade-1">
    <circle cx="2096.09" cy="1442.82" r="52.35" style="fill: #ac56ad; stroke-width: 0px;"/>
    <circle cx="1580.77" cy="1462.18" r="26.28" style="fill: #ac56ad; stroke-width: 0px;"/>
    <circle cx="1805.38" cy="1438.63" r="26.28" style="fill: #ac56ad; stroke-width: 0px;"/>
    <circle cx="1864.51" cy="1452.74" r="26.28" style="fill: #ac56ad; stroke-width: 0px;"/>
    <circle cx="2253.46" cy="1426.15" r="26.28" style="fill: #ac56ad; stroke-width: 0px;"/>
    <circle cx="2634.81" cy="1426.7" r="26.28" style="fill: #ac56ad; stroke-width: 0px;"/>
    <circle cx="1312.82" cy="1457.62" r="26.28" style="fill: #ac56ad; stroke-width: 0px;"/>
    <circle cx="1734.31" cy="1457.63" r="34.41" style="fill: #ac56ad; stroke-width: 0px;"/>
    <circle cx="2017.49" cy="1442.97" r="34.41" style="fill: #ac56ad; stroke-width: 0px;"/>
    <circle cx="2197.04" cy="1414.76" r="34.41" style="fill: #ac56ad; stroke-width: 0px;"/>
    <circle cx="2320.99" cy="1434.76" r="34.41" style="fill: #ac56ad; stroke-width: 0px;"/>
    <circle cx="2411.81" cy="1429.15" r="34.41" style="fill: #ac56ad; stroke-width: 0px;"/>
    <circle cx="2676.58" cy="1438.63" r="34.41" style="fill: #ac56ad; stroke-width: 0px;"/>
    <circle cx="1403.96" cy="1460.33" r="34.41" style="fill: #ac56ad; stroke-width: 0px;"/>
    <circle cx="1522.93" cy="1442.6" r="45.62" style="fill: #ac56ad; stroke-width: 0px;"/>
    <circle cx="1862.34" cy="1444.06" r="45.62" style="fill: #ac56ad; stroke-width: 0px;"/>
    <circle cx="2495.47" cy="1442.62" r="45.62" style="fill: #ac56ad; stroke-width: 0px;"/>
    <circle cx="1256.95" cy="1468.15" r="45.62" style="fill: #ac56ad; stroke-width: 0px;"/>
    <circle cx="1108.85" cy="1452.74" r="45.62" style="fill: #ac56ad; stroke-width: 0px;"/>
    <path d="M1814.12,1574.09l-16.7,101.89c-7.02,42.82,22.39,82.29,61.33,82.29h32.52c43.97,0,74.13-49.51,58.02-95.26l-15.88-45.09-23.01-65.35c-23.68-67.27-83.95-53.8-96.29,21.53Z" style="fill: #ac56ad; stroke-width: 0px;"/>
    <path d="M2038.24,1585.13l-19.54,119.19c-8.21,50.1,26.2,96.26,71.75,96.26h38.04c51.43,0,86.71-57.92,67.87-111.43l-18.57-52.75-26.91-76.45c-27.7-78.69-98.2-62.93-112.64,25.18Z" style="fill: #ac56ad; stroke-width: 0px;"/>
    <path d="M1052.84,1590.55l-19.54,119.19c-8.21,50.1,26.2,96.26,71.75,96.26h38.04c51.43,0,86.71-57.92,67.87-111.43l-18.57-52.75-26.91-76.45c-27.7-78.69-98.2-62.93-112.64,25.18Z" style="fill: #ac56ad; stroke-width: 0px;"/>
    <path d="M2443.79,1575.01l-19.54,119.19c-8.21,50.1,26.2,96.26,71.75,96.26h38.04c51.43,0,86.71-57.92,67.87-111.43l-18.57-52.75-26.91-76.45c-27.7-78.69-98.2-62.93-112.64,25.18Z" style="fill: #ac56ad; stroke-width: 0px;"/>
    <path d="M1449.15,1564.58l14.46,88.24c6.08,37.09-19.39,71.26-53.12,71.26h-28.17c-38.08,0-64.2-42.88-50.25-82.5l13.75-39.05,19.93-56.6c20.51-58.26,72.7-46.59,83.39,18.64Z" style="fill: #ac56ad; stroke-width: 0px;"/>
    <path d="M1306.51,1596.06l17.33,105.76c7.29,44.45-23.25,85.41-63.66,85.41h-33.76c-45.64,0-76.94-51.4-60.23-98.88l16.48-46.81,23.88-67.83c24.58-69.83,87.14-55.84,99.95,22.34Z" style="fill: #ac56ad; stroke-width: 0px;"/>
    <path d="M1776.69,1564.58l14.46,88.24c6.08,37.09-19.39,71.26-53.12,71.26h-28.17c-38.08,0-64.2-42.88-50.25-82.5l13.75-39.05,19.93-56.6c20.51-58.26,72.7-46.59,83.39,18.64Z" style="fill: #ac56ad; stroke-width: 0px;"/>
    <path d="M1575.11,1582.51l18.84,114.93c7.92,48.31-25.26,92.82-69.19,92.82h-36.69c-49.6,0-83.62-55.85-65.45-107.45l17.91-50.87,25.95-73.72c26.72-75.88,94.69-60.68,108.62,24.28Z" style="fill: #ac56ad; stroke-width: 0px;"/>
    <path d="M1837.54,1518.71l11.29,68.91c4.75,28.96-15.15,55.65-41.48,55.65h-21.99c-29.73,0-50.13-33.48-39.24-64.42l10.74-30.5,15.56-44.19c16.02-45.49,56.77-36.38,65.12,14.56Z" style="fill: #ac56ad; stroke-width: 0px;"/>
    <path d="M1353.94,1547.46l11.29,68.91c4.75,28.96-15.15,55.65-41.48,55.65h-21.99c-29.73,0-50.13-33.48-39.24-64.42l10.74-30.5,15.56-44.19c16.02-45.49,56.77-36.38,65.12,14.56Z" style="fill: #ac56ad; stroke-width: 0px;"/>
    <path d="M1613.78,1540.6l11.29,68.91c4.75,28.96-15.15,55.65-41.48,55.65h-21.99c-29.73,0-50.13-33.48-39.24-64.42l10.74-30.5,15.56-44.19c16.02-45.49,56.77-36.38,65.12,14.56Z" style="fill: #ac56ad; stroke-width: 0px;"/>
    <path d="M2069.59,1544.02l14.31,87.31c6.01,36.7-19.19,70.52-52.56,70.52h-27.87c-37.68,0-63.52-42.43-49.72-81.63l13.61-38.64,19.72-56c20.3-57.65,71.94-46.1,82.52,18.45Z" style="fill: #ac56ad; stroke-width: 0px;"/>
    <path d="M2241.43,1516.35l14.31,87.31c6.01,36.7-19.19,70.52-52.56,70.52h-27.87c-37.68,0-63.52-42.43-49.72-81.63l13.61-38.64,19.72-56c20.3-57.65,71.94-46.1,82.52,18.45Z" style="fill: #ac56ad; stroke-width: 0px;"/>
    <path d="M2372.97,1532.55l14.31,87.31c6.01,36.7-19.19,70.52-52.56,70.52h-27.87c-37.68,0-63.52-42.43-49.72-81.63l13.61-38.64,19.72-56c20.3-57.65,71.94-46.1,82.52,18.45Z" style="fill: #ac56ad; stroke-width: 0px;"/>
    <path d="M2451.86,1531.83l14.31,87.31c6.01,36.7-19.19,70.52-52.56,70.52h-27.87c-37.68,0-63.52-42.43-49.72-81.63l13.61-38.64,19.72-56c20.3-57.65,71.94-46.1,82.52,18.45Z" style="fill: #ac56ad; stroke-width: 0px;"/>
    <path d="M2718.8,1536.97l14.31,87.31c6.01,36.7-19.19,70.52-52.56,70.52h-27.87c-37.68,0-63.52-42.43-49.72-81.63l13.61-38.64,19.72-56c20.3-57.65,71.94-46.1,82.52,18.45Z" style="fill: #ac56ad; stroke-width: 0px;"/>
    <path d="M2285.9,1499.66l8.99,54.83c3.78,23.05-12.05,44.28-33.01,44.28h-17.5c-23.66,0-39.89-26.65-31.23-51.26l8.54-24.27,12.38-35.17c12.75-36.2,45.18-28.95,51.82,11.58Z" style="fill: #ac56ad; stroke-width: 0px;"/>
    <path d="M2658.48,1507.66l9.59,58.51c4.03,24.59-12.86,47.25-35.22,47.25h-18.68c-25.25,0-42.57-28.43-33.32-54.7l9.12-25.9,13.21-37.53c13.6-38.63,48.21-30.89,55.3,12.36Z" style="fill: #ac56ad; stroke-width: 0px;"/>
    <circle cx="1008.67" cy="1445.81" r="52.35" style="fill: #ac56ad; stroke-width: 0px;"/>
    <circle cx="695.96" cy="1441.63" r="26.28" style="fill: #ac56ad; stroke-width: 0px;"/>
    <circle cx="624.88" cy="1460.63" r="34.41" style="fill: #ac56ad; stroke-width: 0px;"/>
    <circle cx="908.06" cy="1445.97" r="34.41" style="fill: #ac56ad; stroke-width: 0px;"/>
    <circle cx="752.92" cy="1447.05" r="45.62" style="fill: #ac56ad; stroke-width: 0px;"/>
    <path d="M704.69,1577.08l-16.7,101.89c-7.02,42.82,22.39,82.29,61.33,82.29h32.52c43.97,0,74.13-49.51,58.02-95.26l-15.88-45.09-23.01-65.35c-23.68-67.27-83.95-53.8-96.29,21.53Z" style="fill: #ac56ad; stroke-width: 0px;"/>
    <path d="M950.82,1588.12l-19.54,119.19c-8.21,50.1,26.2,96.26,71.75,96.26h38.04c51.43,0,86.71-57.92,67.87-111.43l-18.57-52.75-26.91-76.45c-27.7-78.69-98.2-62.93-112.64,25.18Z" style="fill: #ac56ad; stroke-width: 0px;"/>
    <path d="M667.27,1567.58l14.46,88.24c6.08,37.09-19.39,71.26-53.12,71.26h-28.17c-38.08,0-64.2-42.88-50.25-82.5l13.75-39.05,19.93-56.6c20.51-58.26,72.7-46.59,83.39,18.64Z" style="fill: #ac56ad; stroke-width: 0px;"/>
    <path d="M728.12,1521.7l11.29,68.91c4.75,28.96-15.15,55.65-41.48,55.65h-21.99c-29.73,0-50.13-33.48-39.24-64.42l10.74-30.5,15.56-44.19c16.02-45.49,56.77-36.38,65.12,14.56Z" style="fill: #ac56ad; stroke-width: 0px;"/>
    <path d="M960.17,1547.01l14.31,87.31c6.01,36.7-19.19,70.52-52.56,70.52h-27.87c-37.68,0-63.52-42.43-49.72-81.63l13.61-38.64,19.72-56c20.3-57.65,71.94-46.1,82.52,18.45Z" style="fill: #ac56ad; stroke-width: 0px;"/>
    <circle cx="2861.95" cy="1440.96" r="26.28" style="fill: #ac56ad; stroke-width: 0px;"/>
    <circle cx="2953.09" cy="1443.68" r="34.41" style="fill: #ac56ad; stroke-width: 0px;"/>
    <circle cx="3072.06" cy="1425.95" r="45.62" style="fill: #ac56ad; stroke-width: 0px;"/>
    <circle cx="2806.08" cy="1460.49" r="45.62" style="fill: #ac56ad; stroke-width: 0px;"/>
    <path d="M2998.28,1547.93l14.46,88.24c6.08,37.09-19.39,71.26-53.12,71.26h-28.17c-38.08,0-64.2-42.88-50.25-82.5l13.75-39.05,19.93-56.6c20.51-58.26,72.7-46.59,83.39,18.64Z" style="fill: #ac56ad; stroke-width: 0px;"/>
    <path d="M2855.64,1588.4l17.33,105.76c7.29,44.45-23.25,85.41-63.66,85.41h-33.76c-45.64,0-76.94-51.4-60.23-98.88l16.48-46.81,23.88-67.83c24.58-69.83,87.14-55.84,99.95,22.34Z" style="fill: #ac56ad; stroke-width: 0px;"/>
    <path d="M3124.24,1565.86l18.84,114.93c7.92,48.31-25.26,92.82-69.19,92.82h-36.69c-49.6,0-83.62-55.85-65.45-107.45l17.91-50.87,25.95-73.72c26.72-75.88,94.69-60.68,108.62,24.28Z" style="fill: #ac56ad; stroke-width: 0px;"/>
    <path d="M2903.07,1530.8l11.29,68.91c4.75,28.96-15.15,55.65-41.48,55.65h-21.99c-29.73,0-50.13-33.48-39.24-64.42l10.74-30.5,15.56-44.19c16.02-45.49,56.77-36.38,65.12,14.56Z" style="fill: #ac56ad; stroke-width: 0px;"/>
    <circle cx="3193.22" cy="1440.88" r="34.41" style="fill: #ac56ad; stroke-width: 0px;"/>
    <path d="M3233.26,1543.56l14.31,87.31c6.01,36.7-19.19,70.52-52.56,70.52h-27.87c-37.68,0-63.52-42.43-49.72-81.63l13.61-38.64,19.72-56c20.3-57.65,71.94-46.1,82.52,18.45Z" style="fill: #ac56ad; stroke-width: 0px;"/>
  </g>
  <g id="tourRequests-fade-2">
    <circle cx="2753.58" cy="1408.45" r="73.45" style="fill: #c76fc8; stroke-width: 0px;"/>
    <path d="M2670.39,1621.58l-31.45,191.88c-13.22,80.65,42.17,154.96,115.5,154.96h61.25c82.8,0,139.6-93.25,109.27-179.39l-29.9-84.92-43.33-123.07c-44.6-126.68-158.09-101.31-181.34,40.54Z" style="fill: #c76fc8; stroke-width: 0px;"/>
    <circle cx="2539.49" cy="1440.68" r="73.45" style="fill: #c76fc8; stroke-width: 0px;"/>
    <path d="M2456.3,1653.82l-31.45,191.88c-13.22,80.65,42.17,154.96,115.5,154.96h61.25c82.8,0,139.6-93.25,109.27-179.39l-29.9-84.92-43.33-123.07c-44.6-126.68-158.09-101.31-181.34,40.54Z" style="fill: #c76fc8; stroke-width: 0px;"/>
    <circle cx="2280.53" cy="1384.15" r="78.15" style="fill: #c76fc8; stroke-width: 0px;"/>
    <path d="M2369.05,1610.94l33.46,204.17c14.06,85.81-44.88,164.89-122.9,164.89h-65.17c-88.11,0-148.54-99.22-116.26-190.88l31.81-90.36,46.11-130.95c47.46-134.79,168.22-107.8,192.95,43.13Z" style="fill: #c76fc8; stroke-width: 0px;"/>
    <circle cx="1148.19" cy="1360.3" r="78.15" style="fill: #c76fc8; stroke-width: 0px;"/>
    <path d="M1236.71,1587.09l33.46,204.17c14.06,85.81-44.88,164.89-122.9,164.89h-65.17c-88.11,0-148.54-99.22-116.26-190.88l31.81-90.36,46.11-130.95c47.46-134.79,168.22-107.8,192.95,43.13Z" style="fill: #c76fc8; stroke-width: 0px;"/>
    <circle cx="1315.98" cy="1430.88" r="73.45" style="fill: #c76fc8; stroke-width: 0px;"/>
    <path d="M1232.79,1644.02l-31.45,191.88c-13.22,80.65,42.17,154.96,115.5,154.96h61.25c82.8,0,139.6-93.25,109.27-179.39l-29.9-84.92-43.33-123.07c-44.6-126.68-158.09-101.31-181.34,40.54Z" style="fill: #c76fc8; stroke-width: 0px;"/>
    <circle cx="1882.49" cy="1387.33" r="77.33" style="fill: #c76fc8; stroke-width: 0px;"/>
    <path d="M1794.91,1611.71l-33.11,202.01c-13.92,84.91,44.4,163.14,121.6,163.14h64.48c87.17,0,146.97-98.17,115.03-188.86l-31.48-89.41-45.62-129.56c-46.96-133.37-166.43-106.66-190.91,42.68Z" style="fill: #c76fc8; stroke-width: 0px;"/>
    <circle cx="861.03" cy="1357.04" r="77.33" style="fill: #c76fc8; stroke-width: 0px;"/>
    <path d="M773.45,1581.43l-33.11,202.01c-13.92,84.91,44.4,163.14,121.6,163.14h64.48c87.17,0,146.97-98.17,115.03-188.86l-31.48-89.41-45.62-129.56c-46.96-133.37-166.43-106.66-190.91,42.68Z" style="fill: #c76fc8; stroke-width: 0px;"/>
    <circle cx="1652.27" cy="1417.94" r="71.64" style="fill: #c76fc8; stroke-width: 0px;"/>
    <path d="M1733.41,1625.83l30.68,187.16c12.89,78.67-41.14,151.15-112.66,151.15h-59.74c-80.77,0-136.16-90.95-106.58-174.98l29.16-82.84,42.26-120.04c43.51-123.57,154.2-98.82,176.88,39.54Z" style="fill: #c76fc8; stroke-width: 0px;"/>
    <circle cx="2948.22" cy="1443.7" r="71.64" style="fill: #c76fc8; stroke-width: 0px;"/>
    <path d="M3029.36,1651.6l30.68,187.16c12.89,78.67-41.14,151.15-112.66,151.15h-59.74c-80.77,0-136.16-90.95-106.58-174.98l29.16-82.84,42.26-120.04c43.51-123.57,154.2-98.82,176.88,39.54Z" style="fill: #c76fc8; stroke-width: 0px;"/>
    <circle cx="3200.35" cy="1374.49" r="78.49" style="fill: #c76fc8; stroke-width: 0px;"/>
    <path d="M3289.25,1602.26l33.61,205.05c14.13,86.18-45.07,165.6-123.43,165.6h-65.45c-88.49,0-149.18-99.65-116.77-191.71l31.95-90.75,46.3-131.52c47.66-135.38,168.94-108.27,193.79,43.32Z" style="fill: #c76fc8; stroke-width: 0px;"/>
    <circle cx="604.55" cy="1381.72" r="71.64" style="fill: #c76fc8; stroke-width: 0px;"/>
    <path d="M685.69,1589.61l30.68,187.16c12.89,78.67-41.14,151.15-112.66,151.15h-59.74c-80.77,0-136.16-90.95-106.58-174.98l29.16-82.84,42.26-120.04c43.51-123.57,154.2-98.82,176.88,39.54Z" style="fill: #c76fc8; stroke-width: 0px;"/>
  </g>
</svg>