<?xml version="1.0" encoding="UTF-8"?>
<svg xmlns="http://www.w3.org/2000/svg" viewBox="0 0 3840 2160">
  <g id="tourRequests-move">
    <rect x="-1" y="1546" width="3841" height="614" style="fill: #692c6a; stroke-width: 0px;"/>
    <rect x="915.17" y="0" width="931.12" height="1546" style="fill: #812c82; stroke-width: 0px;"/>
    <rect x="1846.29" y="0" width="504.71" height="1546" style="fill: #8f4a90; stroke-width: 0px;"/>
    <rect x="2645" y="0" width="1194" height="1546" style="fill: #773178; stroke-width: 0px;"/>
    <rect x="-1" y="0" width="916.17" height="1546" style="fill: #944095; stroke-width: 0px;"/>
    <rect x="943" y="1215.77" width="870" height="126.82" style="fill: #d794d8; stroke-width: 0px;"/>
    <rect x="953.47" y="1374.93" width="90.22" height="171.07" style="fill: #f7ebf7; stroke-width: 0px;"/>
    <rect x="1070.08" y="1374.93" width="90.22" height="171.07" style="fill: #f7ebf7; stroke-width: 0px;"/>
    <rect x="1185.83" y="1374.93" width="90.22" height="171.07" style="fill: #f7ebf7; stroke-width: 0px;"/>
    <rect x="1304.13" y="1374.93" width="90.22" height="171.07" style="fill: #f7ebf7; stroke-width: 0px;"/>
    <rect x="1420.73" y="1374.93" width="90.22" height="171.07" style="fill: #f7ebf7; stroke-width: 0px;"/>
    <rect x="1536.49" y="1374.93" width="90.22" height="171.07" style="fill: #f7ebf7; stroke-width: 0px;"/>
    <rect x="1652.24" y="1374.93" width="157.46" height="171.07" style="fill: #f7ebf7; stroke-width: 0px;"/>
    <rect x="-1" y="838.62" width="916.29" height="385.55" style="fill: #f6d1f6; stroke-width: 0px;"/>
    <rect x="985.82" y="647.67" width="90.22" height="97.96" style="fill: #f7ebf7; stroke-width: 0px;"/>
    <rect x="1102.42" y="647.67" width="90.22" height="97.96" style="fill: #f7ebf7; stroke-width: 0px;"/>
    <rect x="1218.17" y="647.67" width="90.22" height="97.96" style="fill: #f7ebf7; stroke-width: 0px;"/>
    <rect x="1336.47" y="647.67" width="90.22" height="97.96" style="fill: #f7ebf7; stroke-width: 0px;"/>
    <rect x="1453.08" y="647.67" width="90.22" height="97.96" style="fill: #f7ebf7; stroke-width: 0px;"/>
    <rect x="1568.83" y="647.67" width="90.22" height="97.96" style="fill: #f7ebf7; stroke-width: 0px;"/>
    <rect x="1686.28" y="648.54" width="90.22" height="97.96" style="fill: #f7ebf7; stroke-width: 0px;"/>
    <rect x="985.4" y="501.05" width="90.22" height="97.96" style="fill: #f7ebf7; stroke-width: 0px;"/>
    <rect x="1102" y="501.05" width="90.22" height="97.96" style="fill: #f7ebf7; stroke-width: 0px;"/>
    <rect x="1217.76" y="501.05" width="90.22" height="97.96" style="fill: #f7ebf7; stroke-width: 0px;"/>
    <rect x="1336.06" y="501.05" width="90.22" height="97.96" style="fill: #f7ebf7; stroke-width: 0px;"/>
    <rect x="1452.66" y="501.05" width="90.22" height="97.96" style="fill: #f7ebf7; stroke-width: 0px;"/>
    <rect x="1568.41" y="501.05" width="90.22" height="97.96" style="fill: #f7ebf7; stroke-width: 0px;"/>
    <rect x="1685.87" y="501.91" width="90.22" height="97.96" style="fill: #f7ebf7; stroke-width: 0px;"/>
    <rect x="985.61" y="353.92" width="90.22" height="97.96" style="fill: #f7ebf7; stroke-width: 0px;"/>
    <rect x="1102.21" y="353.92" width="90.22" height="97.96" style="fill: #f7ebf7; stroke-width: 0px;"/>
    <rect x="1217.96" y="353.92" width="90.22" height="97.96" style="fill: #f7ebf7; stroke-width: 0px;"/>
    <rect x="1336.27" y="353.92" width="90.22" height="97.96" style="fill: #f7ebf7; stroke-width: 0px;"/>
    <rect x="1452.87" y="353.92" width="90.22" height="97.96" style="fill: #f7ebf7; stroke-width: 0px;"/>
    <rect x="1568.62" y="353.92" width="90.22" height="97.96" style="fill: #f7ebf7; stroke-width: 0px;"/>
    <rect x="1686.07" y="354.79" width="90.22" height="97.96" style="fill: #f7ebf7; stroke-width: 0px;"/>
    <rect x="985.69" y="205.65" width="90.22" height="97.96" style="fill: #f7ebf7; stroke-width: 0px;"/>
    <rect x="1102.29" y="205.65" width="90.22" height="97.96" style="fill: #f7ebf7; stroke-width: 0px;"/>
    <rect x="1218.05" y="205.65" width="90.22" height="97.96" style="fill: #f7ebf7; stroke-width: 0px;"/>
    <rect x="1336.35" y="205.65" width="90.22" height="97.96" style="fill: #f7ebf7; stroke-width: 0px;"/>
    <rect x="1452.95" y="205.65" width="90.22" height="97.96" style="fill: #f7ebf7; stroke-width: 0px;"/>
    <rect x="1568.7" y="205.65" width="90.22" height="97.96" style="fill: #f7ebf7; stroke-width: 0px;"/>
    <rect x="1686.16" y="206.51" width="90.22" height="97.96" style="fill: #f7ebf7; stroke-width: 0px;"/>
    <rect x="985.28" y="59.03" width="90.22" height="97.96" style="fill: #f7ebf7; stroke-width: 0px;"/>
    <rect x="1101.88" y="59.03" width="90.22" height="97.96" style="fill: #f7ebf7; stroke-width: 0px;"/>
    <rect x="1217.63" y="59.03" width="90.22" height="97.96" style="fill: #f7ebf7; stroke-width: 0px;"/>
    <rect x="1335.94" y="59.03" width="90.22" height="97.96" style="fill: #f7ebf7; stroke-width: 0px;"/>
    <rect x="1452.54" y="59.03" width="90.22" height="97.96" style="fill: #f7ebf7; stroke-width: 0px;"/>
    <rect x="1568.29" y="59.03" width="90.22" height="97.96" style="fill: #f7ebf7; stroke-width: 0px;"/>
    <rect x="1685.74" y="59.89" width="90.22" height="97.96" style="fill: #f7ebf7; stroke-width: 0px;"/>
    <rect x="985.48" width="90.22" height="10.63" style="fill: #f7ebf7; stroke-width: 0px;"/>
    <rect x="1102.09" width="90.22" height="10.63" style="fill: #f7ebf7; stroke-width: 0px;"/>
    <rect x="1217.84" width="90.22" height="10.63" style="fill: #f7ebf7; stroke-width: 0px;"/>
    <rect x="1336.14" width="90.22" height="10.63" style="fill: #f7ebf7; stroke-width: 0px;"/>
    <rect x="1452.75" width="90.22" height="10.63" style="fill: #f7ebf7; stroke-width: 0px;"/>
    <rect x="1568.5" width="90.22" height="10.63" style="fill: #f7ebf7; stroke-width: 0px;"/>
    <rect x="1685.95" y=".09" width="90.22" height="10.63" style="fill: #f7ebf7; stroke-width: 0px;"/>
    <rect x="1846" y="1401" width="414" height="106" style="fill: #f7ebf7; stroke-width: 0px;"/>
    <rect x="2285" y="1401" width="66" height="145" style="fill: #f7ebf7; stroke-width: 0px;"/>
    <polygon points="2371 1401 1846 1401 1846 1368 2363 1368 2371 1401" style="fill: #6c256d; stroke-width: 0px;"/>
    <rect x="1846" y="1021" width="515" height="292" style="fill: #f6d1f6; stroke-width: 0px;"/>
    <polygon points="2351 986 1846 986 1846 694 2371 694 2351 986" style="fill: #f7e9f7; stroke-width: 0px;"/>
    <rect x="1889" y="375" width="420" height="292" style="fill: #f6d1f6; stroke-width: 0px;"/>
    <rect x="1878.82" y="227.48" width="90.22" height="97.96" style="fill: #f7ebf7; stroke-width: 0px;"/>
    <rect x="1995.42" y="227.48" width="90.22" height="97.96" style="fill: #f7ebf7; stroke-width: 0px;"/>
    <rect x="2111.17" y="227.48" width="90.22" height="97.96" style="fill: #f7ebf7; stroke-width: 0px;"/>
    <rect x="2228.63" y="228.34" width="90.22" height="97.96" style="fill: #f7ebf7; stroke-width: 0px;"/>
    <rect x="1878.82" y="79.48" width="90.22" height="97.96" style="fill: #f7ebf7; stroke-width: 0px;"/>
    <rect x="1995.42" y="79.48" width="90.22" height="97.96" style="fill: #f7ebf7; stroke-width: 0px;"/>
    <rect x="2111.17" y="79.48" width="90.22" height="97.96" style="fill: #f7ebf7; stroke-width: 0px;"/>
    <rect x="2228.63" y="80.34" width="90.22" height="97.96" style="fill: #f7ebf7; stroke-width: 0px;"/>
    <rect x="1878.82" y="0" width="90.22" height="29.04" style="fill: #f7ebf7; stroke-width: 0px;"/>
    <rect x="1995.42" y="0" width="90.22" height="29.04" style="fill: #f7ebf7; stroke-width: 0px;"/>
    <rect x="2111.17" y="0" width="90.22" height="29.04" style="fill: #f7ebf7; stroke-width: 0px;"/>
    <rect x="2228.63" y=".26" width="90.22" height="29.04" style="fill: #f7ebf7; stroke-width: 0px;"/>
    <rect x="-1" y="1254" width="916.49" height="88.37" style="fill: #f7e9f7; stroke-width: 0px;"/>
    <rect x="950.6" y="793.05" width="262.4" height="385.55" style="fill: #f7e9f7; stroke-width: 0px;"/>
    <rect x="1250.96" y="793.05" width="262.4" height="385.55" style="fill: #f7e9f7; stroke-width: 0px;"/>
    <rect x="1550.85" y="792.68" width="262.4" height="385.55" style="fill: #f6d1f6; stroke-width: 0px;"/>
    <rect x="2645" y="504" width="1194" height="111.72" style="fill: #d898d9; stroke-width: 0px;"/>
    <rect x="2645" y="660.85" width="1194" height="111.72" style="fill: #d898d9; stroke-width: 0px;"/>
    <rect x="2645" y="190.33" width="1194" height="111.72" style="fill: #d898d9; stroke-width: 0px;"/>
    <rect x="2645" y="347.18" width="1194" height="111.72" style="fill: #d898d9; stroke-width: 0px;"/>
    <rect x="2645" y="33.18" width="1194" height="111.72" style="fill: #d898d9; stroke-width: 0px;"/>
    <rect x="2624" y="881" width="361" height="406" style="fill: #f7e9f7; stroke-width: 0px;"/>
    <rect x="3047" y="815" width="361" height="406" style="fill: #f6d1f6; stroke-width: 0px;"/>
    <rect x="3440" y="815" width="361" height="406" style="fill: #f6d1f6; stroke-width: 0px;"/>
    <rect x="2645" y="1375.35" width="369" height="171.07" style="fill: #d898d9; stroke-width: 0px;"/>
    <rect x="3047" y="1375.59" width="792" height="171.07" style="fill: #d898d9; stroke-width: 0px;"/>
    <rect x="546.6" y="1375.03" width="368.56" height="171.07" transform="translate(1461.77 2921.14) rotate(180)" style="fill: #d898d9; stroke-width: 0px;"/>
    <rect x="129.32" y="1374.82" width="368.56" height="171.07" transform="translate(627.2 2920.71) rotate(180)" style="fill: #d898d9; stroke-width: 0px;"/>
    <rect x="-1" y="1374.82" width="80.88" height="171.07" transform="translate(78.88 2920.71) rotate(180)" style="fill: #d898d9; stroke-width: 0px;"/>
    <rect x="50.72" y="662.45" width="90.22" height="120.21" style="fill: #f7ebf7; stroke-width: 0px;"/>
    <rect x="167.33" y="662.45" width="90.22" height="120.21" style="fill: #f7ebf7; stroke-width: 0px;"/>
    <rect x="283.08" y="662.45" width="90.22" height="120.21" style="fill: #f7ebf7; stroke-width: 0px;"/>
    <rect x="401.38" y="662.45" width="90.22" height="120.21" style="fill: #f7ebf7; stroke-width: 0px;"/>
    <rect x="517.99" y="662.45" width="90.22" height="120.21" style="fill: #f7ebf7; stroke-width: 0px;"/>
    <rect x="633.74" y="662.45" width="90.22" height="120.21" style="fill: #f7ebf7; stroke-width: 0px;"/>
    <rect x="751.19" y="663.51" width="90.22" height="120.21" style="fill: #f7ebf7; stroke-width: 0px;"/>
    <rect x="50.93" y="481.9" width="90.22" height="120.21" style="fill: #f7ebf7; stroke-width: 0px;"/>
    <rect x="167.53" y="481.9" width="90.22" height="120.21" style="fill: #f7ebf7; stroke-width: 0px;"/>
    <rect x="283.29" y="481.9" width="90.22" height="120.21" style="fill: #f7ebf7; stroke-width: 0px;"/>
    <rect x="401.59" y="481.9" width="90.22" height="120.21" style="fill: #f7ebf7; stroke-width: 0px;"/>
    <rect x="518.19" y="481.9" width="90.22" height="120.21" style="fill: #f7ebf7; stroke-width: 0px;"/>
    <rect x="633.94" y="481.9" width="90.22" height="120.21" style="fill: #f7ebf7; stroke-width: 0px;"/>
    <rect x="751.4" y="482.96" width="90.22" height="120.21" style="fill: #f7ebf7; stroke-width: 0px;"/>
    <rect x="51.01" y="299.94" width="90.22" height="120.21" style="fill: #f7ebf7; stroke-width: 0px;"/>
    <rect x="167.62" y="299.94" width="90.22" height="120.21" style="fill: #f7ebf7; stroke-width: 0px;"/>
    <rect x="283.37" y="299.94" width="90.22" height="120.21" style="fill: #f7ebf7; stroke-width: 0px;"/>
    <rect x="401.67" y="299.94" width="90.22" height="120.21" style="fill: #f7ebf7; stroke-width: 0px;"/>
    <rect x="518.28" y="299.94" width="90.22" height="120.21" style="fill: #f7ebf7; stroke-width: 0px;"/>
    <rect x="634.03" y="299.94" width="90.22" height="120.21" style="fill: #f7ebf7; stroke-width: 0px;"/>
    <rect x="751.48" y="301" width="90.22" height="120.21" style="fill: #f7ebf7; stroke-width: 0px;"/>
    <rect x="50.6" y="120" width="90.22" height="120.21" style="fill: #f7ebf7; stroke-width: 0px;"/>
    <rect x="167.2" y="120" width="90.22" height="120.21" style="fill: #f7ebf7; stroke-width: 0px;"/>
    <rect x="282.95" y="120" width="90.22" height="120.21" style="fill: #f7ebf7; stroke-width: 0px;"/>
    <rect x="401.26" y="120" width="90.22" height="120.21" style="fill: #f7ebf7; stroke-width: 0px;"/>
    <rect x="517.86" y="120" width="90.22" height="120.21" style="fill: #f7ebf7; stroke-width: 0px;"/>
    <rect x="633.61" y="120" width="90.22" height="120.21" style="fill: #f7ebf7; stroke-width: 0px;"/>
    <rect x="751.07" y="121.06" width="90.22" height="120.21" style="fill: #f7ebf7; stroke-width: 0px;"/>
    <rect x="50.88" y="-1" width="90.22" height="60.56" style="fill: #f7ebf7; stroke-width: 0px;"/>
    <rect x="167.49" y="-1" width="90.22" height="60.56" style="fill: #f7ebf7; stroke-width: 0px;"/>
    <rect x="283.24" y="-1" width="90.22" height="60.56" style="fill: #f7ebf7; stroke-width: 0px;"/>
    <rect x="401.54" y="-1" width="90.22" height="60.56" style="fill: #f7ebf7; stroke-width: 0px;"/>
    <rect x="518.14" y="-1" width="90.22" height="60.56" style="fill: #f7ebf7; stroke-width: 0px;"/>
    <rect x="633.9" y="-1" width="90.22" height="60.56" style="fill: #f7ebf7; stroke-width: 0px;"/>
    <rect x="751.35" y="-.47" width="90.22" height="60.56" style="fill: #f7ebf7; stroke-width: 0px;"/>
  </g>
  <g id="tourRequests-fade-1">
    <circle cx="2234.5" cy="1401.5" r="96.5" style="fill: #ac56ad; stroke-width: 0px;"/>
    <circle cx="1284.55" cy="1370.83" r="48.45" style="fill: #ac56ad; stroke-width: 0px;"/>
    <circle cx="1698.6" cy="1393.78" r="48.45" style="fill: #ac56ad; stroke-width: 0px;"/>
    <circle cx="1807.6" cy="1419.78" r="48.45" style="fill: #ac56ad; stroke-width: 0px;"/>
    <circle cx="2524.6" cy="1370.78" r="48.45" style="fill: #ac56ad; stroke-width: 0px;"/>
    <circle cx="3227.6" cy="1371.78" r="48.45" style="fill: #ac56ad; stroke-width: 0px;"/>
    <circle cx="790.6" cy="1428.78" r="48.45" style="fill: #ac56ad; stroke-width: 0px;"/>
    <circle cx="1567.58" cy="1428.81" r="63.42" style="fill: #ac56ad; stroke-width: 0px;"/>
    <circle cx="2089.6" cy="1401.78" r="63.42" style="fill: #ac56ad; stroke-width: 0px;"/>
    <circle cx="2420.6" cy="1349.78" r="63.42" style="fill: #ac56ad; stroke-width: 0px;"/>
    <circle cx="2619.6" cy="1349.78" r="63.42" style="fill: #ac56ad; stroke-width: 0px;"/>
    <circle cx="2862.6" cy="1370.78" r="63.42" style="fill: #ac56ad; stroke-width: 0px;"/>
    <circle cx="3304.6" cy="1393.78" r="63.42" style="fill: #ac56ad; stroke-width: 0px;"/>
    <circle cx="958.6" cy="1433.78" r="63.42" style="fill: #ac56ad; stroke-width: 0px;"/>
    <circle cx="1177.92" cy="1401.1" r="84.1" style="fill: #ac56ad; stroke-width: 0px;"/>
    <circle cx="1803.6" cy="1403.78" r="84.1" style="fill: #ac56ad; stroke-width: 0px;"/>
    <circle cx="2948.6" cy="1428.78" r="84.1" style="fill: #ac56ad; stroke-width: 0px;"/>
    <circle cx="687.6" cy="1464.78" r="84.1" style="fill: #ac56ad; stroke-width: 0px;"/>
    <circle cx="414.6" cy="1419.78" r="84.1" style="fill: #ac56ad; stroke-width: 0px;"/>
    <path d="M1714.7,1643.48l-30.78,187.83c-12.94,78.94,41.28,151.69,113.06,151.69h59.95c81.05,0,136.65-91.28,106.96-175.6l-29.27-83.13-42.41-120.47c-43.66-124-154.75-99.17-177.51,39.68Z" style="fill: #ac56ad; stroke-width: 0px;"/>
    <path d="M2127.86,1663.84l-36.01,219.72c-15.14,92.35,48.29,177.45,132.26,177.45h70.13c94.81,0,159.85-106.77,125.12-205.42l-34.24-97.24-49.62-140.92c-51.07-145.06-181.02-116.01-207.65,46.42Z" style="fill: #ac56ad; stroke-width: 0px;"/>
    <path d="M311.34,1673.84l-36.01,219.72c-15.14,92.35,48.29,177.45,132.26,177.45h70.13c94.81,0,159.85-106.77,125.12-205.42l-34.24-97.24-49.62-140.92c-51.07-145.06-181.02-116.01-207.65,46.42Z" style="fill: #ac56ad; stroke-width: 0px;"/>
    <path d="M2853.34,1672.84l-36.01,219.72c-15.14,92.35,48.29,177.45,132.26,177.45h70.13c94.81,0,159.85-106.77,125.12-205.42l-34.24-97.24-49.62-140.92c-51.07-145.06-181.02-116.01-207.65,46.42Z" style="fill: #ac56ad; stroke-width: 0px;"/>
    <path d="M1041.92,1625.96l26.66,162.67c11.21,68.37-35.75,131.37-97.92,131.37h-51.92c-70.2,0-118.34-79.05-92.63-152.08l25.35-71.99,36.73-104.33c37.81-107.39,134.02-85.89,153.73,34.37Z" style="fill: #ac56ad; stroke-width: 0px;"/>
    <path d="M778.96,1700.58l31.95,194.97c13.43,81.94-42.85,157.46-117.36,157.46h-62.23c-84.13,0-141.84-94.74-111.02-182.28l30.38-86.29,44.03-125.05c45.32-128.72,160.63-102.94,184.25,41.19Z" style="fill: #ac56ad; stroke-width: 0px;"/>
    <path d="M1645.71,1625.96l26.66,162.67c11.21,68.37-35.75,131.37-97.92,131.37h-51.92c-70.2,0-118.34-79.05-92.63-152.08l25.35-71.99,36.73-104.33c37.81-107.39,134.02-85.89,153.73,34.37Z" style="fill: #ac56ad; stroke-width: 0px;"/>
    <path d="M1274.11,1659.02l34.73,211.87c14.6,89.05-46.57,171.11-127.54,171.11h-67.63c-91.43,0-154.14-102.96-120.65-198.08l33.01-93.77,47.84-135.89c49.25-139.88,174.56-111.87,200.23,44.76Z" style="fill: #ac56ad; stroke-width: 0px;"/>
    <path d="M1757.89,1541.39l20.82,127.02c8.75,53.39-27.92,102.58-76.46,102.58h-40.54c-54.81,0-92.41-61.73-72.33-118.76l19.79-56.22,28.68-81.47c29.53-83.86,104.65-67.07,120.04,26.84Z" style="fill: #ac56ad; stroke-width: 0px;"/>
    <path d="M866.4,1594.39l20.82,127.02c8.75,53.39-27.92,102.58-76.46,102.58h-40.54c-54.81,0-92.41-61.73-72.33-118.76l19.79-56.22,28.68-81.47c29.53-83.86,104.65-67.07,120.04,26.84Z" style="fill: #ac56ad; stroke-width: 0px;"/>
    <path d="M1345.4,1515.39l20.82,127.02c8.75,53.39-27.92,102.58-76.46,102.58h-40.54c-54.81,0-92.41-61.73-72.33-118.76l19.79-56.22,28.68-81.47c29.53-83.86,104.65-67.07,120.04,26.84Z" style="fill: #ac56ad; stroke-width: 0px;"/>
    <path d="M2185.65,1588.05l26.38,160.96c11.09,67.65-35.38,129.99-96.89,129.99h-51.38c-69.46,0-117.1-78.22-91.66-150.48l25.08-71.24,36.35-103.23c37.41-106.26,132.61-84.98,152.11,34Z" style="fill: #ac56ad; stroke-width: 0px;"/>
    <path d="M2502.42,1537.05l26.38,160.96c11.09,67.65-35.38,129.99-96.89,129.99h-51.38c-69.46,0-117.1-78.22-91.66-150.48l25.08-71.24,36.35-103.23c37.41-106.26,132.61-84.98,152.11,34Z" style="fill: #ac56ad; stroke-width: 0px;"/>
    <path d="M2715.42,1530.05l26.38,160.96c11.09,67.65-35.38,129.99-96.89,129.99h-51.38c-69.46,0-117.1-78.22-91.66-150.48l25.08-71.24,36.35-103.23c37.41-106.26,132.61-84.98,152.11,34Z" style="fill: #ac56ad; stroke-width: 0px;"/>
    <path d="M2936.42,1560.05l26.38,160.96c11.09,67.65-35.38,129.99-96.89,129.99h-51.38c-69.46,0-117.1-78.22-91.66-150.48l25.08-71.24,36.35-103.23c37.41-106.26,132.61-84.98,152.11,34Z" style="fill: #ac56ad; stroke-width: 0px;"/>
    <path d="M3382.42,1575.05l26.38,160.96c11.09,67.65-35.38,129.99-96.89,129.99h-51.38c-69.46,0-117.1-78.22-91.66-150.48l25.08-71.24,36.35-103.23c37.41-106.26,132.61-84.98,152.11,34Z" style="fill: #ac56ad; stroke-width: 0px;"/>
    <path d="M2584.4,1506.28l16.57,101.08c6.96,42.49-22.22,81.63-60.85,81.63h-32.26c-43.62,0-73.54-49.12-57.56-94.5l15.75-44.74,22.83-64.83c23.5-66.74,83.28-53.37,95.53,21.36Z" style="fill: #ac56ad; stroke-width: 0px;"/>
    <path d="M3271.22,1521.03l17.68,107.86c7.43,45.33-23.71,87.11-64.93,87.11h-34.43c-46.54,0-78.47-52.41-61.42-100.84l16.81-47.74,24.36-69.18c25.07-71.21,88.86-56.95,101.93,22.79Z" style="fill: #ac56ad; stroke-width: 0px;"/>
  </g>
  <g id="tourRequests-fade-2">
    <circle cx="1954.5" cy="1439.5" r="122.5" style="fill: #c76fc8; stroke-width: 0px;"/>
    <circle cx="1413.5" cy="1440.5" r="122.5" style="fill: #c76fc8; stroke-width: 0px;"/>
    <circle cx="1146.5" cy="1480.5" r="122.5" style="fill: #c76fc8; stroke-width: 0px;"/>
    <circle cx="2405.5" cy="1482.5" r="122.5" style="fill: #c76fc8; stroke-width: 0px;"/>
    <circle cx="2726.5" cy="1401.5" r="122.5" style="fill: #c76fc8; stroke-width: 0px;"/>
    <circle cx="565.5" cy="1467.5" r="122.5" style="fill: #c76fc8; stroke-width: 0px;"/>
    <circle cx="3130.5" cy="1448.5" r="122.5" style="fill: #c76fc8; stroke-width: 0px;"/>
    <circle cx="292.5" cy="1371.5" r="122.5" style="fill: #c76fc8; stroke-width: 0px;"/>
    <circle cx="3398.5" cy="1371.5" r="122.5" style="fill: #c76fc8; stroke-width: 0px;"/>
    <g>
      <path d="M2124.3,2096.62l-44.09-308.56c-32.6-228.1-191.71-268.9-254.24-65.19l-60.75,197.9-41.92,136.56c-10.49,34.16-13.53,69.01-10.45,102.14l413.08-.13c1.85-20.31,1.42-41.38-1.63-62.72Z" style="fill: #c76fc8; stroke-width: 0px;"/>
      <path d="M1647.52,2061.93l-41.92-136.56-60.75-197.9c-62.53-203.71-221.65-162.92-254.24,65.19l-3.78,26.48,45.64,148.68,41.92,136.56c5.63,18.33,9.09,36.86,10.64,55.22l273.33-.09c2.4-31.75-.84-64.98-10.84-97.57Z" style="fill: #c76fc8; stroke-width: 0px;"/>
      <path d="M1246.52,2101.21l40.31-282.08-15.11-49.23c-62.53-203.71-221.65-162.92-254.24,65.19l-44.09,308.56c-.77,5.38-1.36,10.73-1.8,16.07l272.94-.09c-1.41-18.97-.84-38.57,2-58.42Z" style="fill: #c76fc8; stroke-width: 0px;"/>
      <path d="M1244.53,2159.63l140.51-.04c-1.55-18.36-5.02-36.89-10.64-55.22l-41.92-136.56-45.64-148.68-40.31,282.08c-2.84,19.84-3.41,39.44-2,58.42Z" style="fill: #c76fc8; stroke-width: 0px;"/>
      <path d="M757.47,1960.92l-60.75-197.9c-62.53-203.71-221.65-162.92-254.24,65.19l-6.15,43.01,22.05,154.29c6.87,48.04.52,94.68-15.41,134.37l367.56-.12c-1.19-20.66-4.79-41.59-11.14-62.28l-41.92-136.56Z" style="fill: #c76fc8; stroke-width: 0px;"/>
      <path d="M398.39,2136.76l37.95-265.55-22.04-154.26c-32.6-228.1-191.71-268.9-254.24-65.19l-60.75,197.9-41.92,136.56c-18.47,60.18-13.88,122.51,6.72,173.77l331.99-.11c.44-7.66,1.19-15.38,2.3-23.13Z" style="fill: #c76fc8; stroke-width: 0px;"/>
      <path d="M396.09,2159.89h46.89c15.92-39.71,22.27-86.34,15.41-134.39l-22.05-154.29-37.95,265.55c-1.11,7.75-1.86,15.47-2.3,23.13Z" style="fill: #c76fc8; stroke-width: 0px;"/>
      <path d="M2980.54,2159.07l278.9-.09c-15.66-39.5-21.87-85.79-15.05-133.48l17.95-125.61-12.05-84.31c-32.6-228.1-191.71-268.9-254.24-65.19l-54.74,178.33,32.08,104.52c13.02,42.42,14.57,85.9,7.15,125.82Z" style="fill: #c76fc8; stroke-width: 0px;"/>
      <path d="M2572.39,2072.53l15.9-111.29-55.57-181.03c-62.53-203.71-221.65-162.92-254.24,65.19l-44.09,308.56c-.25,1.78-.48,3.56-.7,5.34l340.35-.11c-5.07-27.46-5.92-56.79-1.65-86.67Z" style="fill: #c76fc8; stroke-width: 0px;"/>
      <path d="M2635.39,2114.69c4.53,14.77,7.67,29.66,9.53,44.49l236.9-.08c.3-24.5,3.98-49.55,11.56-74.24l41.92-136.56,6.01-19.57-9.84-32.04-60.75-197.9c-62.53-203.71-221.65-162.92-254.24,65.19l-28.19,197.27,5.18,16.88,41.92,136.56Z" style="fill: #c76fc8; stroke-width: 0px;"/>
      <path d="M2893.38,2084.87c-7.58,24.69-11.26,49.74-11.56,74.24l98.72-.03c7.42-39.92,5.87-83.4-7.15-125.82l-32.08-104.52-6.01,19.57-41.92,136.56Z" style="fill: #c76fc8; stroke-width: 0px;"/>
      <path d="M2574.04,2159.2l70.88-.02c-1.86-14.83-4.99-29.73-9.53-44.49l-41.92-136.56-5.18-16.88-15.9,111.29c-4.27,29.88-3.42,59.21,1.65,86.67Z" style="fill: #c76fc8; stroke-width: 0px;"/>
      <path d="M3297.09,2158.97l342.02-.11c20.22-51.04,24.62-112.9,6.28-172.64l-41.92-136.56-60.75-197.9c-62.53-203.71-221.65-162.92-254.24,65.19l-26.14,182.95,32.05,224.25c1.67,11.72,2.55,23.35,2.71,34.83Z" style="fill: #c76fc8; stroke-width: 0px;"/>
      <path d="M3259.44,2158.99h37.65c-.16-11.48-1.03-23.12-2.71-34.84l-32.05-224.25-17.95,125.61c-6.81,47.68-.61,93.98,15.05,133.48Z" style="fill: #c76fc8; stroke-width: 0px;"/>
    </g>
  </g>
</svg>