<?xml version="1.0" encoding="UTF-8"?>
<svg id="favicon4" xmlns="http://www.w3.org/2000/svg" viewBox="0 0 350 350">
  <polygon points=".68 321.5 117.35 306.54 117.35 28.94 .68 44.49 .68 321.5" style="fill: #479cd6; stroke-width: 0px;"/>
  <polygon points="232.49 321.09 349.16 306.14 349.16 28.53 232.49 44.09 232.49 321.09" style="fill: #479cd6; stroke-width: 0px;"/>
  <polygon points="233.35 321.06 116.69 306.11 116.69 28.5 233.35 44.06 233.35 321.06" style="fill: #55b2ff; stroke-width: 0px;"/>
  <polygon points="116.49 214.93 233.31 183.67 233.31 159.38 116.49 191.23 116.49 214.93" style="fill: #b5ddf4; stroke-width: 0px;"/>
  <polygon points=".06 291.78 116.69 215.37 116.69 191.08 .06 268.08 .06 291.78" style="fill: #9cc7d8; stroke-width: 0px;"/>
  <polygon points="233.31 183.44 349.94 214.89 349.94 190.59 233.31 159.75 233.31 183.44" style="fill: #9cc7d8; stroke-width: 0px;"/>
  <polygon points="155.99 203.69 233.31 108.68 233.31 84.85 142.34 184.33 155.99 203.69" style="fill: #b5ddf4; stroke-width: 0px;"/>
  <polygon points="233.31 108.84 348.68 62.53 348.68 38.24 233.31 85.14 233.31 108.84" style="fill: #9cc7d8; stroke-width: 0px;"/>
</svg>