<?xml version="1.0" encoding="UTF-8"?>
<svg id="Layer_1" data-name="Layer 1" xmlns="http://www.w3.org/2000/svg" viewBox="0 0 350 350">
  <path d="M143.7,94.58c50.64,0,105.49,9.11,144.75,23.5,7.4-9.23,17.04-16.52,28.09-20.99,5.41-2.19,11.3,1.84,11.3,7.67v33.69c9.43,7.46,14.85,15.54,14.85,23.98,0,5.59-2.37,11.02-6.71,16.22-2.22,2.65-4.95,5.24-8.14,7.76v33.89c0,5.83-5.9,9.86-11.3,7.67-11.11-4.5-20.81-11.84-28.22-21.14-31.56,11.55-73.15,19.69-114.53,22.44l-8.85,18.77c-2.04,4.32-6.38,7.08-11.16,7.08h-51.11c-5.93,0-10.98-4.21-12.11-9.97-.04-.19-.07-.38-.1-.58l-1.41-9.6-1.35-9.21c-39.79-7.2-64.28-22.43-74.46-41.46-3.67-6.86-5.48-14.22-5.48-21.87,0-37.48,43.43-67.86,135.92-67.86Z" style="fill: #fcd2d2; stroke-width: 0px;"/>
</svg>