<?xml version="1.0" encoding="UTF-8"?>
<svg id="favicon1" xmlns="http://www.w3.org/2000/svg" viewBox="0 0 350 350">
  <path d="M141.74,91.38c52.87,0,110.14,9.51,151.13,24.54,7.72-9.64,17.79-17.24,29.33-21.91,5.64-2.28,11.8,1.92,11.8,8.01v35.17c9.85,7.79,15.51,16.22,15.51,25.04,0,5.84-2.48,11.51-7.01,16.94-2.31,2.77-5.17,5.47-8.5,8.1v35.38c0,6.09-6.16,10.29-11.8,8.01-11.6-4.69-21.72-12.36-29.46-22.08-32.95,12.06-76.38,20.56-119.58,23.43l-9.24,19.6c-2.13,4.51-6.66,7.39-11.65,7.39h-53.36c-6.19,0-11.47-4.39-12.64-10.41-.04-.2-.07-.4-.1-.6l-1.47-10.02-1.41-9.61c-41.55-7.52-67.12-23.42-77.74-43.29-3.83-7.16-5.72-14.84-5.72-22.83C-.17,123.1,45.18,91.38,141.74,91.38Z" style="fill: #55b2ff; stroke-width: 0px;"/>
</svg>