<?xml version="1.0" encoding="UTF-8"?>
<svg id="favicon3" xmlns="http://www.w3.org/2000/svg" viewBox="0 0 350 350">
  <rect x="78.15" y="40.32" width="193.71" height="309.43" style="fill: #44a5f5; stroke-width: 0px;"/>
  <path d="M123.22,157.05h.94c8.04,0,14.57,6.53,14.57,14.57v41.46h-30.09v-41.46c0-8.04,6.53-14.57,14.57-14.57Z" style="fill: #e5f1f9; stroke-width: 0px;"/>
  <path d="M152.46,350h45.34v-61.97h-45.34v61.97Z" style="fill: #e5f1f9; stroke-width: 0px;"/>
  <path d="M175.13,264.68h0c-12.52,0-22.67,10.45-22.67,23.35h45.34c0-12.89-10.15-23.35-22.67-23.35Z" style="fill: #1963a0; stroke-width: 0px;"/>
  <path d="M130.08,284.88c-2.74.01-5.3.02-7.68.03-.88,0-1.72,0-2.55.01h-1.52c-.89.01-1.75.01-2.59.02-1.21,0-2.36.01-3.46.01h-2.25c-.72.01-1.42.02-2.09.02h-2.74s-1.72.02-1.72.02c-.31,0-.62,0-.92,0h-1.39s-3.3.02-3.3.02h-.98c-.6,0-1.15,0-1.66.01h-1.4c-.23,0-.45,0-.66,0h-1.55c-.16,0-.31,0-.45,0h-.25c-.14,0-.28,0-.4,0-.18,0-.33,0-.47,0h-.27c-.08,0-.15,0-.22,0h-.23s-.11,0-.11,0c-.02,0-.04,0-.05,0h-.07s-.09,0-.09,0h0s0,0,0,0v40.32h49.87v-40.54l-5.85.02c-.99,0-1.98,0-2.93.01Z" style="fill: #e5f1f9; stroke-width: 0px;"/>
  <path d="M113.92,259.17h0c-13.77,0-24.93,11.5-24.93,25.68v.21h0s0,0,0,0h.09s.04,0,.07,0h.05s.07,0,.11,0c.06,0,.14,0,.23,0h.22c.08,0,.17,0,.27,0h.47s.4,0,.4,0c.08,0,.17,0,.25,0h.45s1.55,0,1.55,0h.66c.43,0,.89,0,1.4,0h1.66c.32,0,.64,0,.98-.01.99,0,2.08,0,3.3-.01.45,0,.91,0,1.39,0h.92c.55,0,1.12,0,1.72-.01.86,0,1.78,0,2.74-.01h2.09c.72-.01,1.48-.02,2.25-.02h3.46s2.59-.03,2.59-.03c.5,0,1.01,0,1.52,0h2.55s7.68-.04,7.68-.04h2.93c1.87-.02,3.82-.03,5.85-.04h0c0-14.18-11.16-25.68-24.93-25.68Z" style="fill: #1963a0; stroke-width: 0px;"/>
  <path d="M252.47,284.78c-2.74.01-5.3.02-7.68.03-.88,0-1.72,0-2.55.01h-1.52c-.89.01-1.75.01-2.59.02-1.21,0-2.36.01-3.46.01h-2.25c-.72.01-1.42.02-2.09.02h-2.74s-1.72.02-1.72.02c-.31,0-.62,0-.92,0h-1.39s-3.3.02-3.3.02h-.98c-.6,0-1.15,0-1.66.01h-1.4c-.23,0-.45,0-.66,0h-1.55c-.16,0-.31,0-.45,0h-.25c-.14,0-.28,0-.4,0-.18,0-.33,0-.47,0h-.27c-.08,0-.15,0-.22,0h-.23s-.11,0-.11,0c-.02,0-.04,0-.05,0h-.07s-.09,0-.09,0h0s0,0,0,0v40.32h49.87v-40.54l-5.85.02c-.99,0-1.98,0-2.93.01Z" style="fill: #e5f1f9; stroke-width: 0px;"/>
  <path d="M236.31,259.06h0c-13.77,0-24.93,11.5-24.93,25.68v.21h0s0,0,0,0h.09s.04,0,.07,0h.05s.07,0,.11,0c.06,0,.14,0,.23,0h.22c.08,0,.17,0,.27,0h.47s.4,0,.4,0c.08,0,.17,0,.25,0h.45s1.55,0,1.55,0h.66c.43,0,.89,0,1.4,0h1.66c.32,0,.64,0,.98-.01h3.3c.45-.02.91-.02,1.39-.02h.92c.55,0,1.12,0,1.72-.01.86,0,1.78,0,2.74-.01h2.09c.72-.01,1.48-.02,2.25-.02h3.46s2.59-.03,2.59-.03c.5,0,1.01,0,1.52,0h2.55s7.68-.04,7.68-.04h2.93c1.87-.02,3.82-.03,5.85-.04h0c0-14.18-11.16-25.68-24.93-25.68Z" style="fill: #1963a0; stroke-width: 0px;"/>
  <path d="M174.74,157.05h.94c8.04,0,14.57,6.53,14.57,14.57v41.46h-30.09v-41.46c0-8.04,6.53-14.57,14.57-14.57Z" style="fill: #e5f1f9; stroke-width: 0px;"/>
  <path d="M225.84,157.05h.94c8.04,0,14.57,6.53,14.57,14.57v41.46h-30.09v-41.46c0-8.04,6.53-14.57,14.57-14.57Z" style="fill: #e5f1f9; stroke-width: 0px;"/>
  <path d="M123.22,71.73h.94c8.04,0,14.57,6.53,14.57,14.57v41.46h-30.09v-41.46c0-8.04,6.53-14.57,14.57-14.57Z" style="fill: #e5f1f9; stroke-width: 0px;"/>
  <path d="M174.74,71.73h.94c8.04,0,14.57,6.53,14.57,14.57v41.46h-30.09v-41.46c0-8.04,6.53-14.57,14.57-14.57Z" style="fill: #e5f1f9; stroke-width: 0px;"/>
  <path d="M225.84,71.73h.94c8.04,0,14.57,6.53,14.57,14.57v41.46h-30.09v-41.46c0-8.04,6.53-14.57,14.57-14.57Z" style="fill: #e5f1f9; stroke-width: 0px;"/>
  <path d="M243.7,0H106.51C96.98,0,88.56,6.36,85.69,15.71l-7.55,24.61h193.71l-7.61-24.82C261.41,6.28,253.1,0,243.7,0Z" style="fill: #3382c2; stroke-width: 0px;"/>
</svg>