<?xml version="1.0" encoding="UTF-8"?>
<svg xmlns="http://www.w3.org/2000/svg" viewBox="0 0 3840 2160">
  <g id="result-move">
    <rect x="0" y="1495" width="3840" height="664" style="fill: #1f381e; stroke-width: 0px;"/>
    <rect x="1589" y="1495" width="664" height="667" style="fill: #264724; stroke-width: 0px;"/>
    <rect x="1898" y="1542" width="45.33" height="112" style="fill: #5a9156; stroke-width: 0px;"/>
    <rect x="1897.99" y="1724.52" width="45.33" height="112" style="fill: #5a9156; stroke-width: 0px;"/>
    <rect x="1896.99" y="1907.52" width="45.33" height="112" style="fill: #5a9156; stroke-width: 0px;"/>
    <rect x="1897.99" y="2090.52" width="45.33" height="71.48" style="fill: #5a9156; stroke-width: 0px;"/>
  </g>
  <g id="result-fade-3">
    <g id="result-fade-3-animation">
      <path d="M1432.25,591.46c-50.64,0-105.49,9.11-144.75,23.5-7.4-9.23-17.04-16.52-28.09-20.99-5.41-2.19-11.3,1.84-11.3,7.67v33.69c-9.43,7.46-14.85,15.54-14.85,23.98,0,5.59,2.37,11.02,6.71,16.22,2.22,2.65,4.95,5.24,8.14,7.76v33.89c0,5.83,5.9,9.86,11.3,7.67,11.11-4.5,20.81-11.84,28.22-21.14,31.56,11.55,73.15,19.69,114.53,22.44l8.85,18.77c2.04,4.32,6.38,7.08,11.16,7.08h51.11c5.93,0,10.98-4.21,12.11-9.97.04-.19.07-.38.1-.58l1.41-9.6,1.35-9.21c39.79-7.2,64.28-22.43,74.46-41.46,3.67-6.86,5.48-14.22,5.48-21.87,0-37.48-43.43-67.86-135.92-67.86Z" style="fill: #22421d; stroke-width: 0px;"/>
    </g>
  </g>
  <g id="result-fade-2">
    <rect x="2368.65" y="1324.63" width="111.03" height="190.37" transform="translate(4848.33 2839.63) rotate(180)" style="fill: #20421d; stroke-width: 0px;"/>
    <polygon points="2424.09 1086.97 2756.51 1409.51 2091.66 1409.51 2424.09 1086.97" style="fill: #20421d; stroke-width: 0px;"/>
    <polygon points="2424.61 970.56 2710.79 1248.24 2138.42 1248.24 2424.61 970.56" style="fill: #20421d; stroke-width: 0px;"/>
    <polygon points="2424.31 857.79 2674.25 1100.3 2174.37 1100.3 2424.31 857.79" style="fill: #20421d; stroke-width: 0px;"/>
    <polygon points="2424.5 762 2631.95 963.29 2217.04 963.29 2424.5 762" style="fill: #20421d; stroke-width: 0px;"/>
    <rect x="3221.67" y="1351.28" width="111.03" height="190.37" transform="translate(6554.37 2892.94) rotate(180)" style="fill: #20421d; stroke-width: 0px;"/>
    <polygon points="3277.1 1113.62 3609.53 1436.16 2944.68 1436.16 3277.1 1113.62" style="fill: #20421d; stroke-width: 0px;"/>
    <polygon points="3277.63 997.21 3563.81 1274.89 2991.44 1274.89 3277.63 997.21" style="fill: #20421d; stroke-width: 0px;"/>
    <polygon points="3277.33 884.45 3527.27 1126.96 3027.39 1126.96 3277.33 884.45" style="fill: #20421d; stroke-width: 0px;"/>
    <polygon points="3277.52 788.65 3484.97 989.94 3070.06 989.94 3277.52 788.65" style="fill: #20421d; stroke-width: 0px;"/>
    <rect x="301.67" y="1351.28" width="111.03" height="190.37" transform="translate(714.37 2892.94) rotate(180)" style="fill: #20421d; stroke-width: 0px;"/>
    <polygon points="357.1 1113.62 689.53 1436.16 24.68 1436.16 357.1 1113.62" style="fill: #20421d; stroke-width: 0px;"/>
    <polygon points="357.63 997.21 643.81 1274.89 71.44 1274.89 357.63 997.21" style="fill: #20421d; stroke-width: 0px;"/>
    <polygon points="357.33 884.45 607.27 1126.96 107.39 1126.96 357.33 884.45" style="fill: #20421d; stroke-width: 0px;"/>
    <polygon points="357.52 788.65 564.97 989.94 150.06 989.94 357.52 788.65" style="fill: #20421d; stroke-width: 0px;"/>
  </g>
  <g id="result-fade-1">
    <rect x="3405.75" y="1208.32" width="50.15" height="365.39" style="fill: #2e7028; stroke-width: 0px;"/>
    <circle cx="3432.02" cy="1043.54" r="212.55" style="fill: #2e7028; stroke-width: 0px;"/>
    <circle cx="3343.66" cy="912.19" r="212.55" style="fill: #2e7028; stroke-width: 0px;"/>
    <circle cx="3497.69" cy="839.35" r="180.31" style="fill: #2e7028; stroke-width: 0px;"/>
    <circle cx="3397.39" cy="698.45" r="180.31" style="fill: #2e7028; stroke-width: 0px;"/>
    <rect x="2731.45" y="1186.5" width="44.86" height="326.86" transform="translate(5507.77 2699.87) rotate(180)" style="fill: #2e7028; stroke-width: 0px;"/>
    <circle cx="2727.18" cy="1039.09" r="190.14" style="fill: #2e7028; stroke-width: 0px;"/>
    <circle cx="2831.86" cy="975" r="190.14" style="fill: #2e7028; stroke-width: 0px;"/>
    <circle cx="2694.07" cy="822.25" r="161.3" style="fill: #2e7028; stroke-width: 0px;"/>
    <circle cx="2783.79" cy="730.39" r="161.3" style="fill: #2e7028; stroke-width: 0px;"/>
    <rect x="1029.92" y="1234.07" width="46.2" height="336.64" style="fill: #2e7028; stroke-width: 0px;"/>
    <circle cx="1054.12" cy="1082.25" r="195.82" style="fill: #2e7028; stroke-width: 0px;"/>
    <circle cx="972.71" cy="923.84" r="195.82" style="fill: #2e7028; stroke-width: 0px;"/>
    <circle cx="1112.43" cy="960.14" r="166.12" style="fill: #2e7028; stroke-width: 0px;"/>
    <circle cx="1028.82" cy="762.12" r="166.12" style="fill: #2e7028; stroke-width: 0px;"/>
    <rect x="448.3" y="1181.55" width="50.15" height="365.39" style="fill: #2e7028; stroke-width: 0px;"/>
    <circle cx="474.57" cy="1016.77" r="212.55" style="fill: #2e7028; stroke-width: 0px;"/>
    <circle cx="386.21" cy="885.42" r="212.55" style="fill: #2e7028; stroke-width: 0px;"/>
    <circle cx="540.24" cy="812.58" r="180.31" style="fill: #2e7028; stroke-width: 0px;"/>
    <circle cx="439.94" cy="671.68" r="180.31" style="fill: #2e7028; stroke-width: 0px;"/>
  </g>
  <g id="result-fade-4">
    <rect x="1350" y="1236" width="23" height="333" style="fill: #4b8245; stroke-width: 0px;"/>
    <rect x="1216" y="1070" width="291" height="171" rx="13.43" ry="13.43" style="fill: #4b8245; stroke-width: 0px;"/>
  </g>
</svg>