<?xml version="1.0" encoding="UTF-8"?>
<svg id="City_Layer" data-name="City Layer" xmlns="http://www.w3.org/2000/svg" viewBox="0 0 3840 2160">
  <polygon points="3841 963 3703 963 3703 614 3595 614 3595 594 3485 594 3485 614 3464 614 3464 856 3383 856 3383 640 3266 640 3266 691 3208 691 3208 813 3142 813 3142 666 3048 666 3048 584 2881 584 2881 921 2784 921 2784 650 2759 650 2759 601 2642 601 2642 650 2617 650 2617 814 2500 814 2500 640 2333 640 2333 704 2281 704 2281 963 2237 963 2237 583 2070 583 2070 877 1985 877 1985 775 1855 775 1855 709 1606 709 1606 848 1533 848 1533 626 1284 626 1284 728 1114 728 1114 963 1086 963 1086 811 870 811 870 963 839 963 839 709 623 709 623 963 601 963 601 601 352 601 352 963 339 963 339 864 319 864 319 757 234 757 234 864 216 864 216 828 0 828 0 963 0 1282 0 2161 3841 2161 3841 963"/>
</svg>