<?xml version="1.0" encoding="UTF-8"?>
<svg id="mountain-layer" xmlns="http://www.w3.org/2000/svg" viewBox="0 0 3840 2160">
  <polygon points="3841.33 1770 3841 1769.52 3841 1651 3841.33 1651 3841.33 1254.04 3460.46 692 3285.64 949.98 3191.46 811 3116.05 922.28 2964.2 691 2671.61 1136.62 2476.2 839 2390.23 969.94 2168.34 632 1896.76 1045.63 1682.87 730 1582.4 878.26 1416.2 633 1241.38 890.98 1147.2 752 980.42 998.12 766.2 682 464.96 1126.54 219.04 752 0 1085.61 0 1592 0 1711 0 2160 3841 2160 3841 1770 3841.33 1770" style="fill: #4c7f4d; stroke-width: 0px;"/>
  <polygon points="3817.78 912.5 3616 1262 3841.3 1262 3840.05 951.06 3817.78 912.5" style="fill: #4c7f4d; stroke-width: 0px;"/>
</svg>