<?xml version="1.0" encoding="UTF-8"?>
<svg id="Layer_1" data-name="Layer 1" xmlns="http://www.w3.org/2000/svg" viewBox="0 0 1662.48 953.51">
  <defs>
    <style>
      .cls-1 {
        fill: #999;
      }

      .cls-1, .cls-2, .cls-3 {
        stroke: #000;
        stroke-miterlimit: 10;
      }

      .cls-2 {
        fill: lime;
      }

      .cls-3 {
        fill: #603813;
      }
    </style>
  </defs>
  <polygon class="cls-1" points="157.12 940 584.12 502 1136.12 502 1661.12 953 157.12 940"/>
  <path class="cls-3" d="m353.12,334c-4.4,101.32-7.1,163.51,12,230,12.21,42.51,23.35,52,17,74-15.52,53.8-108.68,89.11-140,63-22.54-18.79-.78-59.15,4-123,13.64-182.3-132.12-276.12-90-338,33.11-48.64,158.42-42.45,193,9,10.66,15.86,6.53,26.84,4,85Z"/>
  <path class="cls-3" d="m1254.08,264.98c2.72,74.43,4.39,120.12-7.42,168.97-7.55,31.23-14.43,38.2-10.51,54.36,9.6,39.52,67.19,65.47,86.56,46.28,13.93-13.8.48-43.45-2.47-90.36-8.43-133.92,81.68-202.85,55.64-248.31-20.47-35.74-97.95-31.18-119.32,6.61-6.59,11.65-4.04,19.72-2.47,62.44Z"/>
  <path class="cls-2" d="m53.12,94C19.33,111.59-6.32,158.62,2.12,197c8.51,38.69,44.13,34.29,78,88,31.86,50.51,16.47,79.97,44,97,25.08,15.52,44.12-5.07,120-17,78.55-12.35,97.96,3.45,145-19,22.2-10.6,56.67-27.05,63-57,7.89-37.35-37.13-52.49-76-131-31.18-62.97-17.52-84.15-48-110-31.95-27.1-85.1-36.17-125-20-35.87,14.53-35.49,39.11-78,54-35.86,12.56-46.38-1.33-72,12Z"/>
  <path class="cls-2" d="m1449.02,53.04c21.58,12.48,37.96,45.86,32.57,73.1-5.44,27.46-28.18,24.34-49.81,62.46-20.34,35.85-10.52,56.76-28.1,68.84-16.02,11.02-28.17-3.6-76.64-12.07-50.17-8.77-62.56,2.45-92.6-13.49-14.18-7.52-36.19-19.2-40.23-40.46-5.04-26.51,23.71-37.25,48.54-92.98,19.91-44.69,11.19-59.72,30.65-78.07,20.41-19.23,54.35-25.67,79.83-14.19,22.9,10.32,22.66,27.76,49.81,38.33,22.9,8.91,29.62-.95,45.98,8.52Z"/>
</svg>