<?xml version="1.0" encoding="UTF-8"?>
<svg xmlns="http://www.w3.org/2000/svg" viewBox="0 0 3840 2160">
  <g id="boilerplate-move">
    <rect x="0" y="1485.16" width="3839" height="675.84" style="fill: #386037; stroke-width: 0px;"/>
    <rect x="1697.63" y="1485.16" width="444.74" height="674.84" style="fill: #264724; stroke-width: 0px;"/>
    <rect x="1905.11" y="1526.09" width="30.36" height="78.47" style="fill: #5a9156; stroke-width: 0px;"/>
    <rect x="1905.11" y="1653.96" width="30.36" height="78.47" style="fill: #5a9156; stroke-width: 0px;"/>
    <rect x="1905.11" y="1782.18" width="30.36" height="78.47" style="fill: #5a9156; stroke-width: 0px;"/>
    <rect x="1905.11" y="1910.7" width="30.36" height="78.47" style="fill: #5a9156; stroke-width: 0px;"/>
    <rect x="1905.11" y="2039.7" width="30.36" height="78.47" style="fill: #5a9156; stroke-width: 0px;"/>
  </g>
  <g id="boilerplate-fade-2">
    <rect x="1500.52" y="1397.26" width="65.18" height="116.91" style="fill: #3aa532; stroke-width: 0px;"/>
    <polygon points="1533.16 1251.32 1338 1449.39 1728.32 1449.39 1533.16 1251.32" style="fill: #3aa532; stroke-width: 0px;"/>
    <polygon points="1532.85 1179.83 1364.84 1350.35 1700.86 1350.35 1532.85 1179.83" style="fill: #3aa532; stroke-width: 0px;"/>
    <polygon points="1533.03 1110.58 1386.29 1259.51 1679.76 1259.51 1533.03 1110.58" style="fill: #3aa532; stroke-width: 0px;"/>
    <polygon points="1532.92 1051.76 1411.13 1175.37 1654.71 1175.37 1532.92 1051.76" style="fill: #3aa532; stroke-width: 0px;"/>
    <rect x="1063.95" y="1403.47" width="74.37" height="133.38" style="fill: #3aa532; stroke-width: 0px;"/>
    <polygon points="1101.19 1236.96 878.53 1462.94 1323.84 1462.94 1101.19 1236.96" style="fill: #3aa532; stroke-width: 0px;"/>
    <polygon points="1100.84 1155.4 909.15 1349.95 1292.52 1349.95 1100.84 1155.4" style="fill: #3aa532; stroke-width: 0px;"/>
    <polygon points="1101.03 1076.39 933.62 1246.3 1268.44 1246.3 1101.03 1076.39" style="fill: #3aa532; stroke-width: 0px;"/>
    <polygon points="1100.91 1009.28 961.96 1150.3 1239.86 1150.3 1100.91 1009.28" style="fill: #3aa532; stroke-width: 0px;"/>
    <rect x="2796.74" y="1361.47" width="74.37" height="133.38" style="fill: #3aa532; stroke-width: 0px;"/>
    <polygon points="2833.98 1194.96 2611.32 1420.94 3056.63 1420.94 2833.98 1194.96" style="fill: #3aa532; stroke-width: 0px;"/>
    <polygon points="2824.63 1124.4 2632.94 1318.95 3016.31 1318.95 2824.63 1124.4" style="fill: #3aa532; stroke-width: 0px;"/>
    <polygon points="2833.83 1034.39 2666.42 1204.3 3001.24 1204.3 2833.83 1034.39" style="fill: #3aa532; stroke-width: 0px;"/>
    <polygon points="2833.7 967.28 2694.75 1108.3 2972.65 1108.3 2833.7 967.28" style="fill: #3aa532; stroke-width: 0px;"/>
  </g>
  <g id="boilerplate-fade-1">
    <rect x="2954.14" y="1293.3" width="33.59" height="256" style="fill: #5abf55; stroke-width: 0px;"/>
    <ellipse cx="2971.74" cy="1177.85" rx="142.36" ry="148.91" style="fill: #5abf55; stroke-width: 0px;"/>
    <ellipse cx="2909.65" cy="1062.37" rx="142.36" ry="148.91" style="fill: #5abf55; stroke-width: 0px;"/>
    <ellipse cx="3015.73" cy="1034.8" rx="120.77" ry="126.33" style="fill: #5abf55; stroke-width: 0px;"/>
    <ellipse cx="2948.55" cy="936.08" rx="120.77" ry="126.33" style="fill: #5abf55; stroke-width: 0px;"/>
    <rect x="2471.5" y="1298.02" width="30.05" height="229.01" transform="translate(4973.06 2825.05) rotate(180)" style="fill: #5abf55; stroke-width: 0px;"/>
    <ellipse cx="2468.64" cy="1194.74" rx="127.35" ry="133.21" style="fill: #5abf55; stroke-width: 0px;"/>
    <ellipse cx="2538.76" cy="1149.84" rx="127.35" ry="133.21" style="fill: #5abf55; stroke-width: 0px;"/>
    <ellipse cx="2446.46" cy="1042.82" rx="108.03" ry="113.01" style="fill: #5abf55; stroke-width: 0px;"/>
    <ellipse cx="2524.56" cy="972.46" rx="108.03" ry="113.01" style="fill: #5abf55; stroke-width: 0px;"/>
    <rect x="1037.82" y="1331.33" width="29.68" height="226.21" style="fill: #5abf55; stroke-width: 0px;"/>
    <ellipse cx="1068.41" cy="1229.31" rx="125.8" ry="131.59" style="fill: #5abf55; stroke-width: 0px;"/>
    <ellipse cx="1016.12" cy="1067.58" rx="125.8" ry="131.59" style="fill: #5abf55; stroke-width: 0px;"/>
    <ellipse cx="1107.28" cy="1102.9" rx="106.72" ry="111.63" style="fill: #5abf55; stroke-width: 0px;"/>
    <ellipse cx="1052.34" cy="985.48" rx="106.72" ry="111.63" style="fill: #5abf55; stroke-width: 0px;"/>
  </g>
  <g id="boilerplate-fade-3">
    <rect x="2702.6" y="1331.1" width="15.41" height="233.31" style="fill: #99c695; stroke-width: 0px;"/>
    <rect x="2612.85" y="1214.8" width="194.91" height="119.81" rx="13.43" ry="13.43" style="fill: #99c695; stroke-width: 0px;"/>
  </g>
</svg>