<?xml version="1.0" encoding="UTF-8"?>
<svg xmlns="http://www.w3.org/2000/svg" viewBox="0 0 3840 2160">
  <g id="tourPages-move">
    <rect x="2426" y="775" width="515" height="695" style="fill: #2f8edc; stroke-width: 0px;"/>
    <rect x="2509" y="925" width="76.59" height="216.56" style="fill: #e5f1f9; stroke-width: 0px;"/>
    <rect x="2643.71" y="925" width="76.59" height="216.56" style="fill: #e5f1f9; stroke-width: 0px;"/>
    <rect x="2779.41" y="925" width="76.59" height="216.56" style="fill: #e5f1f9; stroke-width: 0px;"/>
    <rect x="2476" y="1274" width="128" height="147" style="fill: #e5f1f9; stroke-width: 0px;"/>
    <rect x="2634" y="1300" width="98" height="170" style="fill: #e5f1f9; stroke-width: 0px;"/>
    <rect x="2634" y="1237" width="98" height="41" style="fill: #e5f1f9; stroke-width: 0px;"/>
    <rect x="2762" y="1274" width="128" height="147" style="fill: #e5f1f9; stroke-width: 0px;"/>
    <polygon points="2620 1278 2460 1278 2476 1237 2604 1237 2620 1278" style="fill: #1963a0; stroke-width: 0px;"/>
    <polygon points="2905.73 1278 2745.73 1278 2761.73 1237 2889.73 1237 2905.73 1278" style="fill: #1963a0; stroke-width: 0px;"/>
    <rect x="1845" y="1025.63" width="581.51" height="444.47" style="fill: #1f7dca; stroke-width: 0px;"/>
    <rect x="1891.03" y="1287.89" width="148.27" height="132.94" style="fill: #e5f1f9; stroke-width: 0px;"/>
    <rect x="2251" y="1295" width="98" height="176" style="fill: #e5f1f9; stroke-width: 0px;"/>
    <rect x="2065.15" y="1288.34" width="148.27" height="132.94" style="fill: #e5f1f9; stroke-width: 0px;"/>
    <polygon points="2390.71 1299.88 1865.92 1299.88 1918.4 1261.76 2338.23 1261.76 2390.71 1299.88" style="fill: #1963a0; stroke-width: 0px;"/>
    <rect x="1891.09" y="1094.43" width="102.66" height="102.26" style="fill: #e5f1f9; stroke-width: 0px;"/>
    <rect x="2013.66" y="1094.76" width="102.66" height="102.26" style="fill: #e5f1f9; stroke-width: 0px;"/>
    <rect x="2135.32" y="1093.98" width="102.66" height="102.26" style="fill: #e5f1f9; stroke-width: 0px;"/>
    <rect x="2255.08" y="1093.96" width="102.66" height="102.26" style="fill: #e5f1f9; stroke-width: 0px;"/>
    <rect x="2416" y="774" width="531" height="34" style="fill: #9ed3ff; stroke-width: 0px;"/>
    <rect x="1101" y="741" width="470" height="729" style="fill: #44a5f5; stroke-width: 0px;"/>
    <path d="M1211.5,1016h0c20.14,0,36.5,16.36,36.5,36.5v95.5h-73v-95.5c0-20.14,16.36-36.5,36.5-36.5Z" style="fill: #e5f1f9; stroke-width: 0px;"/>
    <path d="M1281.3,1470.57h110v-146h-110v146Z" style="fill: #e5f1f9; stroke-width: 0px;"/>
    <path d="M1336.3,1269.57h0c-30.38,0-55,24.62-55,55h110c0-30.38-24.62-55-55-55Z" style="fill: #1963a0; stroke-width: 0px;"/>
    <path d="M1227,1317.16c-6.65.03-12.85.05-18.64.08-2.13,0-4.18.02-6.19.03l-3.69.02c-2.15,0-4.25.02-6.28.03-2.93.01-5.72.02-8.39.03l-5.46.02c-1.76,0-3.44.01-5.08.02l-6.65.03-4.16.02c-.76,0-1.51,0-2.24,0h-3.38s-8.01.05-8.01.05h-2.38c-1.45.02-2.8.02-4.03.03h-3.4c-.55.02-1.09.02-1.59.02l-3.75.02c-.39,0-.75,0-1.09,0h-.62c-.35,0-.68,0-.98,0-.43,0-.81,0-1.15,0h-.65c-.2,0-.37,0-.52,0h-.57s-.28,0-.28,0c-.05,0-.09,0-.13,0h-.16s-.21,0-.21,0h-.02s0,0,0,0v95h121v-95.5l-14.2.06c-2.41.01-4.79.02-7.1.03Z" style="fill: #e5f1f9; stroke-width: 0px;"/>
    <path d="M1187.8,1256.57h0c-33.41,0-60.5,27.09-60.5,60.5v.5h0s.01,0,.02,0h.21s.1,0,.16,0h.13c.08,0,.17,0,.28,0,.16,0,.35,0,.57,0h.52c.19,0,.42,0,.65,0h1.15s.98,0,.98,0c.2,0,.4,0,.62,0h1.09s3.75-.02,3.75-.02h1.59c1.04-.01,2.17-.02,3.4-.02l4.03-.02c.77,0,1.55,0,2.38,0,2.39,0,5.05-.02,8.01-.03,1.08,0,2.22,0,3.38-.01h2.24c1.34-.01,2.72-.02,4.16-.03,2.1,0,4.32-.02,6.65-.03l5.08-.02c1.75,0,3.58-.01,5.46-.02l8.39-.03,6.28-.03c1.21,0,2.44-.01,3.69-.02l6.19-.03,18.64-.08,7.1-.03c4.54-.02,9.26-.04,14.2-.06h0c0-33.41-27.09-60.5-60.5-60.5Z" style="fill: #1963a0; stroke-width: 0px;"/>
    <path d="M1523.96,1316.92c-6.65.03-12.85.05-18.64.08-2.13,0-4.18.02-6.19.03l-3.69.02c-2.15,0-4.25.02-6.28.03-2.93.01-5.72.02-8.39.03l-5.46.02c-1.76,0-3.44.01-5.08.02l-6.65.03-4.16.02c-.76,0-1.51,0-2.24,0h-3.38s-8.01.05-8.01.05h-2.38c-1.45.02-2.8.02-4.03.03h-3.4c-.55.02-1.09.02-1.59.02l-3.75.02c-.39,0-.75,0-1.09,0h-.62c-.35,0-.68,0-.98,0-.43,0-.81,0-1.15,0h-.65c-.2,0-.37,0-.52,0h-.57s-.28,0-.28,0c-.05,0-.09,0-.13,0h-.16s-.21,0-.21,0h-.02s0,0,0,0v95h121v-95.5l-14.2.06c-2.41.01-4.79.02-7.1.03Z" style="fill: #e5f1f9; stroke-width: 0px;"/>
    <path d="M1484.76,1256.33h0c-33.41,0-60.5,27.09-60.5,60.5v.5h0s.01,0,.02,0h.21s.1,0,.16,0h.13c.08,0,.17,0,.28,0,.16,0,.35,0,.57,0h.52c.19,0,.42,0,.65,0h1.15s.98,0,.98,0c.2,0,.4,0,.62,0h1.09s3.75-.02,3.75-.02h1.59c1.04-.01,2.17-.02,3.4-.02l4.03-.02c.77,0,1.55,0,2.38,0,2.39,0,5.05-.02,8.01-.03,1.08,0,2.22,0,3.38-.01h2.24c1.34-.01,2.72-.02,4.16-.03,2.1,0,4.32-.02,6.65-.03l5.08-.02c1.75,0,3.58-.01,5.46-.02l8.39-.03,6.28-.03c1.21,0,2.44-.01,3.69-.02l6.19-.03,18.64-.08,7.1-.03c4.54-.02,9.26-.04,14.2-.06h0c0-33.41-27.09-60.5-60.5-60.5Z" style="fill: #1963a0; stroke-width: 0px;"/>
    <path d="M1336.5,1016h0c20.14,0,36.5,16.36,36.5,36.5v95.5h-73v-95.5c0-20.14,16.36-36.5,36.5-36.5Z" style="fill: #e5f1f9; stroke-width: 0px;"/>
    <path d="M1460.5,1016h0c20.14,0,36.5,16.36,36.5,36.5v95.5h-73v-95.5c0-20.14,16.36-36.5,36.5-36.5Z" style="fill: #e5f1f9; stroke-width: 0px;"/>
    <rect x="1101" y="1202" width="470" height="26" style="fill: #3382c2; stroke-width: 0px;"/>
    <path d="M1211.5,815h0c20.14,0,36.5,16.36,36.5,36.5v95.5h-73v-95.5c0-20.14,16.36-36.5,36.5-36.5Z" style="fill: #e5f1f9; stroke-width: 0px;"/>
    <path d="M1336.5,815h0c20.14,0,36.5,16.36,36.5,36.5v95.5h-73v-95.5c0-20.14,16.36-36.5,36.5-36.5Z" style="fill: #e5f1f9; stroke-width: 0px;"/>
    <path d="M1460.5,815h0c20.14,0,36.5,16.36,36.5,36.5v95.5h-73v-95.5c0-20.14,16.36-36.5,36.5-36.5Z" style="fill: #e5f1f9; stroke-width: 0px;"/>
    <path d="M1502.69,646h-332.87c-23.11,0-43.55,14.98-50.51,37.02l-18.31,57.98h470l-18.46-58.47c-6.87-21.75-27.04-36.53-49.85-36.53Z" style="fill: #3382c2; stroke-width: 0px;"/>
    <rect x="656" y="1025.47" width="446" height="444.47" transform="translate(1758 2495.41) rotate(180)" style="fill: #337cb9; stroke-width: 0px;"/>
    <rect x="734.22" y="1296" width="98" height="174.84" transform="translate(1566.45 2766.84) rotate(180)" style="fill: #e5f1f9; stroke-width: 0px;"/>
    <rect x="869.8" y="1288.18" width="148.27" height="132.94" transform="translate(1887.87 2709.3) rotate(180)" style="fill: #e5f1f9; stroke-width: 0px;"/>
    <polygon points="692.52 1299.72 1056 1299.72 1019.65 1261.6 728.86 1261.6 692.52 1299.72" style="fill: #6fb8f6; stroke-width: 0px;"/>
    <rect x="943.91" y="1094.59" width="102.66" height="102.26" transform="translate(1990.47 2291.44) rotate(180)" style="fill: #e5f1f9; stroke-width: 0px;"/>
    <rect x="822.24" y="1093.82" width="102.66" height="102.26" transform="translate(1747.14 2289.9) rotate(180)" style="fill: #e5f1f9; stroke-width: 0px;"/>
    <rect x="702.49" y="1093.8" width="102.66" height="102.26" transform="translate(1507.64 2289.86) rotate(180)" style="fill: #e5f1f9; stroke-width: 0px;"/>
    <polygon points="2413 972 1859 972 1839 1027 2433 1027 2413 972" style="fill: #1963a0; stroke-width: 0px;"/>
    <rect x="656" y="993" width="446" height="34" style="fill: #4995d4; stroke-width: 0px;"/>
    <rect x="141.62" y="775.55" width="515" height="695" style="fill: #2f8edc; stroke-width: 0px;"/>
    <rect x="224.62" y="925.55" width="76.59" height="216.56" style="fill: #e5f1f9; stroke-width: 0px;"/>
    <rect x="359.33" y="925.55" width="76.59" height="216.56" style="fill: #e5f1f9; stroke-width: 0px;"/>
    <rect x="495.03" y="925.55" width="76.59" height="216.56" style="fill: #e5f1f9; stroke-width: 0px;"/>
    <rect x="191.62" y="1270" width="128" height="151.55" style="fill: #e5f1f9; stroke-width: 0px;"/>
    <rect x="349.62" y="1300.55" width="98" height="170" style="fill: #e5f1f9; stroke-width: 0px;"/>
    <rect x="349.62" y="1237.55" width="98" height="41" style="fill: #e5f1f9; stroke-width: 0px;"/>
    <rect x="477.62" y="1270" width="128" height="151.55" style="fill: #e5f1f9; stroke-width: 0px;"/>
    <polygon points="335.62 1278.55 175.62 1278.55 191.62 1237.55 319.62 1237.55 335.62 1278.55" style="fill: #1963a0; stroke-width: 0px;"/>
    <polygon points="621.35 1278.55 461.35 1278.55 477.35 1237.55 605.35 1237.55 621.35 1278.55" style="fill: #1963a0; stroke-width: 0px;"/>
    <rect x="131.62" y="774.55" width="531" height="34" style="fill: #1963a0; stroke-width: 0px;"/>
    <rect x="2940" y="1025.26" width="447" height="444.47" transform="translate(6327 2495) rotate(180)" style="fill: #337cb9; stroke-width: 0px;"/>
    <rect x="3018.55" y="1294" width="98" height="176.63" transform="translate(6135.09 2764.63) rotate(180)" style="fill: #e5f1f9; stroke-width: 0px;"/>
    <rect x="3154.12" y="1287.98" width="148.27" height="132.94" transform="translate(6456.51 2708.89) rotate(180)" style="fill: #e5f1f9; stroke-width: 0px;"/>
    <polygon points="2976.84 1299.51 3340.32 1299.51 3303.97 1261.4 3013.19 1261.4 2976.84 1299.51" style="fill: #6fb8f6; stroke-width: 0px;"/>
    <rect x="3228.23" y="1094.39" width="102.66" height="102.26" transform="translate(6559.11 2291.04) rotate(180)" style="fill: #e5f1f9; stroke-width: 0px;"/>
    <rect x="3106.56" y="1093.62" width="102.66" height="102.26" transform="translate(6315.79 2289.5) rotate(180)" style="fill: #e5f1f9; stroke-width: 0px;"/>
    <rect x="2986.81" y="1093.6" width="102.66" height="102.26" transform="translate(6076.28 2289.46) rotate(180)" style="fill: #e5f1f9; stroke-width: 0px;"/>
    <rect x="2940" y="992.8" width="447" height="34" style="fill: #4995d4; stroke-width: 0px;"/>
    <rect x="3384.63" y="741.57" width="456.37" height="729" style="fill: #44a5f5; stroke-width: 0px;"/>
    <path d="M3491.93,1016.57h0c19.56,0,35.44,15.88,35.44,35.44v96.56h-70.88v-96.56c0-19.56,15.88-35.44,35.44-35.44Z" style="fill: #e5f1f9; stroke-width: 0px;"/>
    <path d="M3559.71,1471.15h106.81v-146h-106.81v146Z" style="fill: #e5f1f9; stroke-width: 0px;"/>
    <path d="M3613.11,1270.15h0c-29.49,0-53.4,24.62-53.4,55h106.81c0-30.38-23.91-55-53.4-55Z" style="fill: #1963a0; stroke-width: 0px;"/>
    <path d="M3506.98,1317.73c-6.45.03-12.48.05-18.1.08-2.06,0-4.06.02-6.01.03l-3.58.02c-2.09,0-4.13.02-6.09.03-2.85.01-5.55.02-8.15.03l-5.3.02c-1.71,0-3.34.01-4.93.02l-6.45.03-4.04.02c-.74,0-1.46,0-2.17,0h-3.28s-7.77.05-7.77.05h-2.31c-1.4.02-2.71.02-3.92.03h-3.3c-.54.02-1.06.02-1.55.02-1.41,0-2.61.01-3.64.02-.38,0-.73,0-1.06,0h-.6c-.34,0-.66,0-.95,0-.42,0-.79,0-1.12,0h-.63c-.19,0-.36,0-.51,0h-.55s-.27,0-.27,0c-.04,0-.08,0-.12,0h-.15s-.2,0-.2,0h-.02s0,0,0,0v95h117.49v-95.5l-13.79.06c-2.34.01-4.65.02-6.89.03Z" style="fill: #e5f1f9; stroke-width: 0px;"/>
    <path d="M3468.92,1257.15h0c-32.44,0-58.75,27.09-58.75,60.5v.5h0s0,0,.02,0h.2s.09,0,.15,0h.12c.08,0,.17,0,.27,0,.15,0,.34,0,.55,0h.51c.19,0,.4,0,.63,0h1.12s.95,0,.95,0c.19,0,.39,0,.6,0h1.06s3.64-.02,3.64-.02h1.55c1.01-.01,2.1-.02,3.3-.02l3.92-.02c.74,0,1.51,0,2.31,0,2.32,0,4.9-.02,7.77-.03,1.05,0,2.15,0,3.28-.01h2.17c1.3-.01,2.64-.02,4.04-.03,2.04,0,4.2-.02,6.45-.03l4.93-.02c1.7,0,3.48-.01,5.3-.02l8.15-.03,6.09-.03c1.17,0,2.37-.01,3.58-.02l6.01-.03,18.1-.08,6.89-.03c4.41-.02,8.99-.04,13.79-.06h0c0-33.41-26.3-60.5-58.75-60.5Z" style="fill: #1963a0; stroke-width: 0px;"/>
    <path d="M3795.33,1317.49c-6.45.03-12.48.05-18.1.08-2.06,0-4.06.02-6.01.03l-3.58.02c-2.09,0-4.13.02-6.09.03-2.85.01-5.55.02-8.15.03l-5.3.02c-1.71,0-3.34.01-4.93.02l-6.45.03-4.04.02c-.74,0-1.46,0-2.17,0h-3.28s-7.77.05-7.77.05h-2.31c-1.4.02-2.71.02-3.92.03h-3.3c-.54.02-1.06.02-1.55.02-1.41,0-2.61.01-3.64.02-.38,0-.73,0-1.06,0h-.6c-.34,0-.66,0-.95,0-.42,0-.79,0-1.12,0h-.63c-.19,0-.36,0-.51,0h-.55s-.27,0-.27,0c-.04,0-.08,0-.12,0h-.15s-.2,0-.2,0h-.02s0,0,0,0v95h117.49v-95.5l-13.79.06c-2.34.01-4.65.02-6.89.03Z" style="fill: #e5f1f9; stroke-width: 0px;"/>
    <path d="M3757.26,1256.9h0c-32.44,0-58.75,27.09-58.75,60.5v.5h0s0,0,.02,0h.2s.09,0,.15,0h.12c.08,0,.17,0,.27,0,.15,0,.34,0,.55,0h.51c.19,0,.4,0,.63,0h1.12s.95,0,.95,0c.19,0,.39,0,.6,0h1.06s3.64-.02,3.64-.02h1.55c1.01-.01,2.1-.02,3.3-.02l3.92-.02c.74,0,1.51,0,2.31,0,2.32,0,4.9-.02,7.77-.03,1.05,0,2.15,0,3.28-.01h2.17c1.3-.01,2.64-.02,4.04-.03,2.04,0,4.2-.02,6.45-.03l4.93-.02c1.7,0,3.48-.01,5.3-.02l8.15-.03,6.09-.03c1.17,0,2.37-.01,3.58-.02l6.01-.03,18.1-.08,6.89-.03c4.41-.02,8.99-.04,13.79-.06h0c0-33.41-26.3-60.5-58.75-60.5Z" style="fill: #1963a0; stroke-width: 0px;"/>
    <path d="M3613.3,1016.57h0c19.56,0,35.44,15.88,35.44,35.44v96.56h-70.88v-96.56c0-19.56,15.88-35.44,35.44-35.44Z" style="fill: #e5f1f9; stroke-width: 0px;"/>
    <path d="M3733.71,1016.57h0c19.56,0,35.44,15.88,35.44,35.44v96.56h-70.88v-96.56c0-19.56,15.88-35.44,35.44-35.44Z" style="fill: #e5f1f9; stroke-width: 0px;"/>
    <rect x="3384.63" y="1202.57" width="456.37" height="26" style="fill: #3382c2; stroke-width: 0px;"/>
    <path d="M3491.93,815.57h0c19.56,0,35.44,15.88,35.44,35.44v96.56h-70.88v-96.56c0-19.56,15.88-35.44,35.44-35.44Z" style="fill: #e5f1f9; stroke-width: 0px;"/>
    <path d="M3613.3,815.57h0c19.56,0,35.44,15.88,35.44,35.44v96.56h-70.88v-96.56c0-19.56,15.88-35.44,35.44-35.44Z" style="fill: #e5f1f9; stroke-width: 0px;"/>
    <path d="M3733.71,815.57h0c19.56,0,35.44,15.88,35.44,35.44v96.56h-70.88v-96.56c0-19.56,15.88-35.44,35.44-35.44Z" style="fill: #e5f1f9; stroke-width: 0px;"/>
    <path d="M3774.67,646.57h-323.21c-22.44,0-42.29,14.98-49.04,37.02l-17.78,57.98h456.37l-17.93-58.47c-6.67-21.75-26.26-36.53-48.4-36.53Z" style="fill: #3382c2; stroke-width: 0px;"/>
    <rect y="1514" width="3841" height="646" style="fill: #2d74b2; stroke-width: 0px;"/>
    <rect x="-1" y="1469" width="3841" height="45" style="fill: #5e9ed4; stroke-width: 0px;"/>
  </g>
  <g id="tourPages-fade-1">
    <g>
      <circle cx="1368.72" cy="1403.75" r="12.88" style="fill: #1963a0; stroke-width: 0px;"/>
      <path d="M1380.43,1438.68l5.11,31.17c2.15,13.1-6.85,25.17-18.76,25.17h-9.95c-13.45,0-22.67-15.15-17.75-29.14l4.86-13.79,7.04-19.99c7.24-20.58,25.68-16.46,29.45,6.58Z" style="fill: #1963a0; stroke-width: 0px;"/>
    </g>
    <g>
      <circle cx="1569.48" cy="1397.88" r="12.88" style="fill: #1963a0; stroke-width: 0px;"/>
      <path d="M1581.18,1432.81l5.11,31.17c2.15,13.1-6.85,25.17-18.76,25.17h-9.95c-13.45,0-22.67-15.15-17.75-29.14l4.86-13.79,7.04-19.99c7.24-20.58,25.68-16.46,29.45,6.58Z" style="fill: #1963a0; stroke-width: 0px;"/>
    </g>
    <g>
      <circle cx="1957.85" cy="1397.92" r="12.88" style="fill: #1963a0; stroke-width: 0px;"/>
      <path d="M1946.14,1432.85l-5.11,31.17c-2.15,13.1,6.85,25.17,18.76,25.17h9.95c13.45,0,22.67-15.15,17.75-29.14l-4.86-13.79-7.04-19.99c-7.24-20.58-25.68-16.46-29.45,6.58Z" style="fill: #1963a0; stroke-width: 0px;"/>
    </g>
  </g>
</svg>