<?xml version="1.0" encoding="UTF-8"?>
<svg xmlns="http://www.w3.org/2000/svg" viewBox="0 0 3840 2160">
  <g id="tourStyles-move">
    <rect y="1514" width="3840" height="647" style="fill: #b8592c; stroke-width: 0px;"/>
    <rect x="2081" y="987" width="1759" height="528" style="fill: #e77d4b; stroke-width: 0px;"/>
    <rect y="987" width="1628" height="528" style="fill: #e77d4b; stroke-width: 0px;"/>
    <path d="M3840,868h-1663.49c-4.1,0-7.95,1.93-10.41,5.21-28.37,37.93-56.73,75.86-85.1,113.79h1759v-119Z" style="fill: #d6652f; stroke-width: 0px;"/>
    <path d="M0,868h1538.89c4.22,0,8.17,2.07,10.57,5.54,26.18,37.82,52.36,75.64,78.54,113.46H0v-119Z" style="fill: #d6652f; stroke-width: 0px;"/>
    <rect x="2173" y="1021" width="66" height="99" rx="3.61" ry="3.61" style="fill: #f6e6de; stroke-width: 0px;"/>
    <rect x="2173" y="1155" width="66" height="139" rx="3.01" ry="3.01" style="fill: #f6e6de; stroke-width: 0px;"/>
    <path d="M2202.07,1329h7.86c30.39,0,55.07,24.68,55.07,55.07v130.93h-118v-130.93c0-30.39,24.68-55.07,55.07-55.07Z" style="fill: #f6e6de; stroke-width: 0px;"/>
    <path d="M2205.5,901h0c18.49,0,33.5,15.01,33.5,33.5v52.5h-67v-52.5c0-18.49,15.01-33.5,33.5-33.5Z" style="fill: #f6e6de; stroke-width: 0px;"/>
    <rect x="2355" y="1021" width="66" height="99" rx="3.61" ry="3.61" style="fill: #f6e6de; stroke-width: 0px;"/>
    <rect x="2355" y="1155" width="66" height="139" rx="3.01" ry="3.01" style="fill: #f6e6de; stroke-width: 0px;"/>
    <path d="M2384.07,1329h7.86c30.39,0,55.07,24.68,55.07,55.07v130.93h-118v-130.93c0-30.39,24.68-55.07,55.07-55.07Z" style="fill: #f6e6de; stroke-width: 0px;"/>
    <path d="M2387.5,901h0c18.49,0,33.5,15.01,33.5,33.5v52.5h-67v-52.5c0-18.49,15.01-33.5,33.5-33.5Z" style="fill: #f6e6de; stroke-width: 0px;"/>
    <rect x="2544" y="1021" width="66" height="99" rx="3.61" ry="3.61" style="fill: #f6e6de; stroke-width: 0px;"/>
    <rect x="2544" y="1155" width="66" height="139" rx="3.01" ry="3.01" style="fill: #f6e6de; stroke-width: 0px;"/>
    <path d="M2573.07,1329h7.86c30.39,0,55.07,24.68,55.07,55.07v130.93h-118v-130.93c0-30.39,24.68-55.07,55.07-55.07Z" style="fill: #a54417; stroke-width: 0px;"/>
    <path d="M2576.5,901h0c18.49,0,33.5,15.01,33.5,33.5v52.5h-67v-52.5c0-18.49,15.01-33.5,33.5-33.5Z" style="fill: #f6e6de; stroke-width: 0px;"/>
    <rect x="2721" y="1021" width="66" height="99" rx="3.61" ry="3.61" style="fill: #f6e6de; stroke-width: 0px;"/>
    <rect x="2721" y="1155" width="66" height="139" rx="3.01" ry="3.01" style="fill: #f6e6de; stroke-width: 0px;"/>
    <path d="M2750.07,1329h7.86c30.39,0,55.07,24.68,55.07,55.07v130.93h-118v-130.93c0-30.39,24.68-55.07,55.07-55.07Z" style="fill: #f6e6de; stroke-width: 0px;"/>
    <path d="M2753.5,901h0c18.49,0,33.5,15.01,33.5,33.5v52.5h-67v-52.5c0-18.49,15.01-33.5,33.5-33.5Z" style="fill: #f6e6de; stroke-width: 0px;"/>
    <rect x="2903" y="1021" width="66" height="99" rx="3.61" ry="3.61" style="fill: #f6e6de; stroke-width: 0px;"/>
    <rect x="2903" y="1155" width="66" height="139" rx="3.01" ry="3.01" style="fill: #f6e6de; stroke-width: 0px;"/>
    <path d="M2932.07,1329h7.86c30.39,0,55.07,24.68,55.07,55.07v130.93h-118v-130.93c0-30.39,24.68-55.07,55.07-55.07Z" style="fill: #f6e6de; stroke-width: 0px;"/>
    <path d="M2935.5,901h0c18.49,0,33.5,15.01,33.5,33.5v52.5h-67v-52.5c0-18.49,15.01-33.5,33.5-33.5Z" style="fill: #f6e6de; stroke-width: 0px;"/>
    <rect x="3092" y="1021" width="66" height="99" rx="3.61" ry="3.61" style="fill: #f6e6de; stroke-width: 0px;"/>
    <rect x="3092" y="1155" width="66" height="139" rx="3.01" ry="3.01" style="fill: #f6e6de; stroke-width: 0px;"/>
    <path d="M3121.07,1329h7.86c30.39,0,55.07,24.68,55.07,55.07v130.93h-118v-130.93c0-30.39,24.68-55.07,55.07-55.07Z" style="fill: #a54417; stroke-width: 0px;"/>
    <path d="M3124.5,901h0c18.49,0,33.5,15.01,33.5,33.5v52.5h-67v-52.5c0-18.49,15.01-33.5,33.5-33.5Z" style="fill: #f6e6de; stroke-width: 0px;"/>
    <rect x="3271" y="1021" width="66" height="99" rx="3.61" ry="3.61" style="fill: #f6e6de; stroke-width: 0px;"/>
    <rect x="3271" y="1155" width="66" height="139" rx="3.01" ry="3.01" style="fill: #f6e6de; stroke-width: 0px;"/>
    <path d="M3300.07,1329h7.86c30.39,0,55.07,24.68,55.07,55.07v130.93h-118v-130.93c0-30.39,24.68-55.07,55.07-55.07Z" style="fill: #f6e6de; stroke-width: 0px;"/>
    <path d="M3303.5,901h0c18.49,0,33.5,15.01,33.5,33.5v52.5h-67v-52.5c0-18.49,15.01-33.5,33.5-33.5Z" style="fill: #f6e6de; stroke-width: 0px;"/>
    <rect x="3453" y="1021" width="66" height="99" rx="3.61" ry="3.61" style="fill: #f6e6de; stroke-width: 0px;"/>
    <rect x="3453" y="1155" width="66" height="139" rx="3.01" ry="3.01" style="fill: #f6e6de; stroke-width: 0px;"/>
    <path d="M3482.07,1329h7.86c30.39,0,55.07,24.68,55.07,55.07v130.93h-118v-130.93c0-30.39,24.68-55.07,55.07-55.07Z" style="fill: #f6e6de; stroke-width: 0px;"/>
    <path d="M3485.5,901h0c18.49,0,33.5,15.01,33.5,33.5v52.5h-67v-52.5c0-18.49,15.01-33.5,33.5-33.5Z" style="fill: #f6e6de; stroke-width: 0px;"/>
    <rect x="3642" y="1021" width="66" height="99" rx="3.61" ry="3.61" style="fill: #f6e6de; stroke-width: 0px;"/>
    <rect x="3642" y="1155" width="66" height="139" rx="3.01" ry="3.01" style="fill: #f6e6de; stroke-width: 0px;"/>
    <path d="M3671.07,1329h7.86c30.39,0,55.07,24.68,55.07,55.07v130.93h-118v-130.93c0-30.39,24.68-55.07,55.07-55.07Z" style="fill: #a54417; stroke-width: 0px;"/>
    <path d="M3674.5,901h0c18.49,0,33.5,15.01,33.5,33.5v52.5h-67v-52.5c0-18.49,15.01-33.5,33.5-33.5Z" style="fill: #f6e6de; stroke-width: 0px;"/>
    <rect x="1462" y="1021" width="66" height="99" rx="3.61" ry="3.61" transform="translate(2990 2141) rotate(180)" style="fill: #f6e6de; stroke-width: 0px;"/>
    <rect x="1462" y="1155" width="66" height="139" rx="3.01" ry="3.01" transform="translate(2990 2449) rotate(180)" style="fill: #f6e6de; stroke-width: 0px;"/>
    <path d="M1436,1329h118v130.93c0,30.39-24.68,55.07-55.07,55.07h-7.86c-30.39,0-55.07-24.68-55.07-55.07v-130.93h0Z" transform="translate(2990 2844) rotate(180)" style="fill: #f6e6de; stroke-width: 0px;"/>
    <path d="M1462,901h67v52.5c0,18.49-15.01,33.5-33.5,33.5h0c-18.49,0-33.5-15.01-33.5-33.5v-52.5h0Z" transform="translate(2991 1888) rotate(180)" style="fill: #f6e6de; stroke-width: 0px;"/>
    <rect x="1280" y="1021" width="66" height="99" rx="3.61" ry="3.61" transform="translate(2626 2141) rotate(180)" style="fill: #f6e6de; stroke-width: 0px;"/>
    <rect x="1280" y="1155" width="66" height="139" rx="3.01" ry="3.01" transform="translate(2626 2449) rotate(180)" style="fill: #f6e6de; stroke-width: 0px;"/>
    <path d="M1254,1329h118v130.93c0,30.39-24.68,55.07-55.07,55.07h-7.86c-30.39,0-55.07-24.68-55.07-55.07v-130.93h0Z" transform="translate(2626 2844) rotate(180)" style="fill: #f6e6de; stroke-width: 0px;"/>
    <path d="M1280,901h67v52.5c0,18.49-15.01,33.5-33.5,33.5h0c-18.49,0-33.5-15.01-33.5-33.5v-52.5h0Z" transform="translate(2627 1888) rotate(180)" style="fill: #f6e6de; stroke-width: 0px;"/>
    <rect x="1091" y="1021" width="66" height="99" rx="3.61" ry="3.61" transform="translate(2248 2141) rotate(180)" style="fill: #f6e6de; stroke-width: 0px;"/>
    <rect x="1091" y="1155" width="66" height="139" rx="3.01" ry="3.01" transform="translate(2248 2449) rotate(180)" style="fill: #f6e6de; stroke-width: 0px;"/>
    <path d="M1065,1329h118v130.93c0,30.39-24.68,55.07-55.07,55.07h-7.86c-30.39,0-55.07-24.68-55.07-55.07v-130.93h0Z" transform="translate(2248 2844) rotate(180)" style="fill: #a54417; stroke-width: 0px;"/>
    <path d="M1091,901h67v52.5c0,18.49-15.01,33.5-33.5,33.5h0c-18.49,0-33.5-15.01-33.5-33.5v-52.5h0Z" transform="translate(2249 1888) rotate(180)" style="fill: #f6e6de; stroke-width: 0px;"/>
    <rect x="914" y="1021" width="66" height="99" rx="3.61" ry="3.61" transform="translate(1894 2141) rotate(180)" style="fill: #f6e6de; stroke-width: 0px;"/>
    <rect x="914" y="1155" width="66" height="139" rx="3.01" ry="3.01" transform="translate(1894 2449) rotate(180)" style="fill: #f6e6de; stroke-width: 0px;"/>
    <path d="M888,1329h118v130.93c0,30.39-24.68,55.07-55.07,55.07h-7.86c-30.39,0-55.07-24.68-55.07-55.07v-130.93h0Z" transform="translate(1894 2844) rotate(180)" style="fill: #f6e6de; stroke-width: 0px;"/>
    <path d="M914,901h67v52.5c0,18.49-15.01,33.5-33.5,33.5h0c-18.49,0-33.5-15.01-33.5-33.5v-52.5h0Z" transform="translate(1895 1888) rotate(180)" style="fill: #f6e6de; stroke-width: 0px;"/>
    <rect x="732" y="1021" width="66" height="99" rx="3.61" ry="3.61" transform="translate(1530 2141) rotate(180)" style="fill: #f6e6de; stroke-width: 0px;"/>
    <rect x="732" y="1155" width="66" height="139" rx="3.01" ry="3.01" transform="translate(1530 2449) rotate(180)" style="fill: #f6e6de; stroke-width: 0px;"/>
    <path d="M706,1329h118v130.93c0,30.39-24.68,55.07-55.07,55.07h-7.86c-30.39,0-55.07-24.68-55.07-55.07v-130.93h0Z" transform="translate(1530 2844) rotate(180)" style="fill: #f6e6de; stroke-width: 0px;"/>
    <path d="M732,901h67v52.5c0,18.49-15.01,33.5-33.5,33.5h0c-18.49,0-33.5-15.01-33.5-33.5v-52.5h0Z" transform="translate(1531 1888) rotate(180)" style="fill: #f6e6de; stroke-width: 0px;"/>
    <rect x="543" y="1021" width="66" height="99" rx="3.61" ry="3.61" transform="translate(1152 2141) rotate(180)" style="fill: #f6e6de; stroke-width: 0px;"/>
    <rect x="543" y="1155" width="66" height="139" rx="3.01" ry="3.01" transform="translate(1152 2449) rotate(180)" style="fill: #f6e6de; stroke-width: 0px;"/>
    <path d="M517,1329h118v130.93c0,30.39-24.68,55.07-55.07,55.07h-7.86c-30.39,0-55.07-24.68-55.07-55.07v-130.93h0Z" transform="translate(1152 2844) rotate(180)" style="fill: #a54417; stroke-width: 0px;"/>
    <path d="M543,901h67v52.5c0,18.49-15.01,33.5-33.5,33.5h0c-18.49,0-33.5-15.01-33.5-33.5v-52.5h0Z" transform="translate(1153 1888) rotate(180)" style="fill: #f6e6de; stroke-width: 0px;"/>
    <rect x="364" y="1021" width="66" height="99" rx="3.61" ry="3.61" transform="translate(794 2141) rotate(180)" style="fill: #f6e6de; stroke-width: 0px;"/>
    <rect x="364" y="1155" width="66" height="139" rx="3.01" ry="3.01" transform="translate(794 2449) rotate(180)" style="fill: #f6e6de; stroke-width: 0px;"/>
    <path d="M338,1329h118v130.93c0,30.39-24.68,55.07-55.07,55.07h-7.86c-30.39,0-55.07-24.68-55.07-55.07v-130.93h0Z" transform="translate(794 2844) rotate(180)" style="fill: #f6e6de; stroke-width: 0px;"/>
    <path d="M364,901h67v52.5c0,18.49-15.01,33.5-33.5,33.5h0c-18.49,0-33.5-15.01-33.5-33.5v-52.5h0Z" transform="translate(795 1888) rotate(180)" style="fill: #f6e6de; stroke-width: 0px;"/>
    <rect x="182" y="1021" width="66" height="99" rx="3.61" ry="3.61" transform="translate(430 2141) rotate(180)" style="fill: #f6e6de; stroke-width: 0px;"/>
    <rect x="182" y="1155" width="66" height="139" rx="3.01" ry="3.01" transform="translate(430 2449) rotate(180)" style="fill: #f6e6de; stroke-width: 0px;"/>
    <path d="M156,1329h118v130.93c0,30.39-24.68,55.07-55.07,55.07h-7.86c-30.39,0-55.07-24.68-55.07-55.07v-130.93h0Z" transform="translate(430 2844) rotate(180)" style="fill: #f6e6de; stroke-width: 0px;"/>
    <path d="M182,901h67v52.5c0,18.49-15.01,33.5-33.5,33.5h0c-18.49,0-33.5-15.01-33.5-33.5v-52.5h0Z" transform="translate(431 1888) rotate(180)" style="fill: #f6e6de; stroke-width: 0px;"/>
  </g>
  <g id="tourStyles-fade-1">
    <path d="M1660.7,1445h388.61c6.46,0,11.7,5.24,11.7,11.7v97.3h-412v-97.3c0-6.46,5.24-11.7,11.7-11.7Z" style="fill: #d6652f; stroke-width: 0px;"/>
    <path d="M1757.3,1222h193.4c9,0,16.3,7.3,16.3,16.3v209.7h-226v-209.7c0-9,7.3-16.3,16.3-16.3Z" style="fill: #d6652f; stroke-width: 0px;"/>
    <rect x="1798" y="779" width="111" height="445" style="fill: #d6652f; stroke-width: 0px;"/>
    <rect x="1741" y="749" width="226" height="31" rx="7.36" ry="7.36" style="fill: #d6652f; stroke-width: 0px;"/>
    <rect x="1841" y="639" width="25" height="64" rx="5.78" ry="5.78" style="fill: #d6652f; stroke-width: 0px;"/>
    <circle cx="1853" cy="748" r="62" style="fill: #d6652f; stroke-width: 0px;"/>
  </g>
  <g id="tourStyles-fade-2">
    <path d="M1551.57,1433h24.86c3.63,0,6.57,2.94,6.57,6.57v77.43h-38v-77.43c0-3.63,2.94-6.57,6.57-6.57Z" style="fill: #b04f21; stroke-width: 0px;"/>
    <rect x="1553" y="1155" width="21" height="279" style="fill: #b04f21; stroke-width: 0px;"/>
    <rect x="1545" y="1097" width="37" height="61" rx="10.01" ry="10.01" style="fill: #b04f21; stroke-width: 0px;"/>
    <rect x="1525.14" y="1164.25" width="21" height="73.14" transform="translate(-386.85 1523.64) rotate(-47.56)" style="fill: #b04f21; stroke-width: 0px;"/>
    <rect x="1582.39" y="1163.95" width="21" height="73.14" transform="translate(1781.98 3186.16) rotate(-132.44)" style="fill: #b04f21; stroke-width: 0px;"/>
    <rect x="1603" y="1125" width="37" height="61" rx="10.01" ry="10.01" style="fill: #b04f21; stroke-width: 0px;"/>
    <rect x="1487" y="1125" width="37" height="61" rx="10.01" ry="10.01" style="fill: #b04f21; stroke-width: 0px;"/>
    <path d="M2116.57,1433h24.86c3.63,0,6.57,2.94,6.57,6.57v77.43h-38v-77.43c0-3.63,2.94-6.57,6.57-6.57Z" style="fill: #b04f21; stroke-width: 0px;"/>
    <rect x="2118" y="1155" width="21" height="279" style="fill: #b04f21; stroke-width: 0px;"/>
    <rect x="2110" y="1097" width="37" height="61" rx="10.01" ry="10.01" style="fill: #b04f21; stroke-width: 0px;"/>
    <rect x="2090.14" y="1164.25" width="21" height="73.14" transform="translate(-203.15 1940.57) rotate(-47.56)" style="fill: #b04f21; stroke-width: 0px;"/>
    <rect x="2147.39" y="1163.95" width="21" height="73.14" transform="translate(2728.28 3603.1) rotate(-132.44)" style="fill: #b04f21; stroke-width: 0px;"/>
    <rect x="2168" y="1125" width="37" height="61" rx="10.01" ry="10.01" style="fill: #b04f21; stroke-width: 0px;"/>
    <rect x="2052" y="1125" width="37" height="61" rx="10.01" ry="10.01" style="fill: #b04f21; stroke-width: 0px;"/>
    <path d="M2406.57,1433h24.86c3.63,0,6.57,2.94,6.57,6.57v77.43h-38v-77.43c0-3.63,2.94-6.57,6.57-6.57Z" style="fill: #b04f21; stroke-width: 0px;"/>
    <rect x="2408" y="1155" width="21" height="279" style="fill: #b04f21; stroke-width: 0px;"/>
    <rect x="2400" y="1097" width="37" height="61" rx="10.01" ry="10.01" style="fill: #b04f21; stroke-width: 0px;"/>
    <rect x="2380.14" y="1164.25" width="21" height="73.14" transform="translate(-108.86 2154.58) rotate(-47.56)" style="fill: #b04f21; stroke-width: 0px;"/>
    <rect x="2437.39" y="1163.95" width="21" height="73.14" transform="translate(3213.99 3817.1) rotate(-132.44)" style="fill: #b04f21; stroke-width: 0px;"/>
    <rect x="2458" y="1125" width="37" height="61" rx="10.01" ry="10.01" style="fill: #b04f21; stroke-width: 0px;"/>
    <rect x="2342" y="1125" width="37" height="61" rx="10.01" ry="10.01" style="fill: #b04f21; stroke-width: 0px;"/>
    <path d="M2688.57,1433h24.86c3.63,0,6.57,2.94,6.57,6.57v77.43h-38v-77.43c0-3.63,2.94-6.57,6.57-6.57Z" style="fill: #b04f21; stroke-width: 0px;"/>
    <rect x="2690" y="1155" width="21" height="279" style="fill: #b04f21; stroke-width: 0px;"/>
    <rect x="2682" y="1097" width="37" height="61" rx="10.01" ry="10.01" style="fill: #b04f21; stroke-width: 0px;"/>
    <rect x="2662.14" y="1164.25" width="21" height="73.14" transform="translate(-17.17 2362.67) rotate(-47.56)" style="fill: #b04f21; stroke-width: 0px;"/>
    <rect x="2719.39" y="1163.95" width="21" height="73.14" transform="translate(3686.3 4025.2) rotate(-132.44)" style="fill: #b04f21; stroke-width: 0px;"/>
    <rect x="2740" y="1125" width="37" height="61" rx="10.01" ry="10.01" style="fill: #b04f21; stroke-width: 0px;"/>
    <rect x="2624" y="1125" width="37" height="61" rx="10.01" ry="10.01" style="fill: #b04f21; stroke-width: 0px;"/>
    <path d="M2986.57,1433h24.86c3.63,0,6.57,2.94,6.57,6.57v77.43h-38v-77.43c0-3.63,2.94-6.57,6.57-6.57Z" style="fill: #b04f21; stroke-width: 0px;"/>
    <rect x="2988" y="1155" width="21" height="279" style="fill: #b04f21; stroke-width: 0px;"/>
    <rect x="2980" y="1097" width="37" height="61" rx="10.01" ry="10.01" style="fill: #b04f21; stroke-width: 0px;"/>
    <rect x="2960.14" y="1164.25" width="21" height="73.14" transform="translate(79.72 2582.58) rotate(-47.56)" style="fill: #b04f21; stroke-width: 0px;"/>
    <rect x="3017.39" y="1163.95" width="21" height="73.14" transform="translate(4185.41 4245.11) rotate(-132.44)" style="fill: #b04f21; stroke-width: 0px;"/>
    <rect x="3038" y="1125" width="37" height="61" rx="10.01" ry="10.01" style="fill: #b04f21; stroke-width: 0px;"/>
    <rect x="2922" y="1125" width="37" height="61" rx="10.01" ry="10.01" style="fill: #b04f21; stroke-width: 0px;"/>
    <path d="M3302.57,1433h24.86c3.63,0,6.57,2.94,6.57,6.57v77.43h-38v-77.43c0-3.63,2.94-6.57,6.57-6.57Z" style="fill: #b04f21; stroke-width: 0px;"/>
    <rect x="3304" y="1155" width="21" height="279" style="fill: #b04f21; stroke-width: 0px;"/>
    <rect x="3296" y="1097" width="37" height="61" rx="10.01" ry="10.01" style="fill: #b04f21; stroke-width: 0px;"/>
    <rect x="3276.14" y="1164.25" width="21" height="73.14" transform="translate(182.46 2815.77) rotate(-47.56)" style="fill: #b04f21; stroke-width: 0px;"/>
    <rect x="3333.39" y="1163.95" width="21" height="73.14" transform="translate(4714.67 4478.3) rotate(-132.44)" style="fill: #b04f21; stroke-width: 0px;"/>
    <rect x="3354" y="1125" width="37" height="61" rx="10.01" ry="10.01" style="fill: #b04f21; stroke-width: 0px;"/>
    <rect x="3238" y="1125" width="37" height="61" rx="10.01" ry="10.01" style="fill: #b04f21; stroke-width: 0px;"/>
    <path d="M3584.57,1433h24.86c3.63,0,6.57,2.94,6.57,6.57v77.43h-38v-77.43c0-3.63,2.94-6.57,6.57-6.57Z" style="fill: #b04f21; stroke-width: 0px;"/>
    <rect x="3586" y="1155" width="21" height="279" style="fill: #b04f21; stroke-width: 0px;"/>
    <rect x="3578" y="1097" width="37" height="61" rx="10.01" ry="10.01" style="fill: #b04f21; stroke-width: 0px;"/>
    <rect x="3558.14" y="1164.25" width="21" height="73.14" transform="translate(274.15 3023.87) rotate(-47.56)" style="fill: #b04f21; stroke-width: 0px;"/>
    <rect x="3615.39" y="1163.95" width="21" height="73.14" transform="translate(5186.98 4686.39) rotate(-132.44)" style="fill: #b04f21; stroke-width: 0px;"/>
    <rect x="3636" y="1125" width="37" height="61" rx="10.01" ry="10.01" style="fill: #b04f21; stroke-width: 0px;"/>
    <rect x="3520" y="1125" width="37" height="61" rx="10.01" ry="10.01" style="fill: #b04f21; stroke-width: 0px;"/>
    <path d="M354.57,1433h24.86c3.63,0,6.57,2.94,6.57,6.57v77.43h-38v-77.43c0-3.63,2.94-6.57,6.57-6.57Z" style="fill: #b04f21; stroke-width: 0px;"/>
    <rect x="356" y="1155" width="21" height="279" style="fill: #b04f21; stroke-width: 0px;"/>
    <rect x="348" y="1097" width="37" height="61" rx="10.01" ry="10.01" style="fill: #b04f21; stroke-width: 0px;"/>
    <rect x="328.14" y="1164.25" width="21" height="73.14" transform="translate(-776.03 640.32) rotate(-47.56)" style="fill: #b04f21; stroke-width: 0px;"/>
    <rect x="385.39" y="1163.95" width="21" height="73.14" transform="translate(-222.84 2302.85) rotate(-132.44)" style="fill: #b04f21; stroke-width: 0px;"/>
    <rect x="406" y="1125" width="37" height="61" rx="10.01" ry="10.01" style="fill: #b04f21; stroke-width: 0px;"/>
    <rect x="290" y="1125" width="37" height="61" rx="10.01" ry="10.01" style="fill: #b04f21; stroke-width: 0px;"/>
    <path d="M636.57,1433h24.86c3.63,0,6.57,2.94,6.57,6.57v77.43h-38v-77.43c0-3.63,2.94-6.57,6.57-6.57Z" style="fill: #b04f21; stroke-width: 0px;"/>
    <rect x="638" y="1155" width="21" height="279" style="fill: #b04f21; stroke-width: 0px;"/>
    <rect x="630" y="1097" width="37" height="61" rx="10.01" ry="10.01" style="fill: #b04f21; stroke-width: 0px;"/>
    <rect x="610.14" y="1164.25" width="21" height="73.14" transform="translate(-684.34 848.42) rotate(-47.56)" style="fill: #b04f21; stroke-width: 0px;"/>
    <rect x="667.39" y="1163.95" width="21" height="73.14" transform="translate(249.47 2510.95) rotate(-132.44)" style="fill: #b04f21; stroke-width: 0px;"/>
    <rect x="688" y="1125" width="37" height="61" rx="10.01" ry="10.01" style="fill: #b04f21; stroke-width: 0px;"/>
    <rect x="572" y="1125" width="37" height="61" rx="10.01" ry="10.01" style="fill: #b04f21; stroke-width: 0px;"/>
    <path d="M934.57,1433h24.86c3.63,0,6.57,2.94,6.57,6.57v77.43h-38v-77.43c0-3.63,2.94-6.57,6.57-6.57Z" style="fill: #b04f21; stroke-width: 0px;"/>
    <rect x="936" y="1155" width="21" height="279" style="fill: #b04f21; stroke-width: 0px;"/>
    <rect x="928" y="1097" width="37" height="61" rx="10.01" ry="10.01" style="fill: #b04f21; stroke-width: 0px;"/>
    <rect x="908.14" y="1164.25" width="21" height="73.14" transform="translate(-587.45 1068.33) rotate(-47.56)" style="fill: #b04f21; stroke-width: 0px;"/>
    <rect x="965.39" y="1163.95" width="21" height="73.14" transform="translate(748.58 2730.86) rotate(-132.44)" style="fill: #b04f21; stroke-width: 0px;"/>
    <rect x="986" y="1125" width="37" height="61" rx="10.01" ry="10.01" style="fill: #b04f21; stroke-width: 0px;"/>
    <rect x="870" y="1125" width="37" height="61" rx="10.01" ry="10.01" style="fill: #b04f21; stroke-width: 0px;"/>
    <path d="M1250.57,1433h24.86c3.63,0,6.57,2.94,6.57,6.57v77.43h-38v-77.43c0-3.63,2.94-6.57,6.57-6.57Z" style="fill: #b04f21; stroke-width: 0px;"/>
    <rect x="1252" y="1155" width="21" height="279" style="fill: #b04f21; stroke-width: 0px;"/>
    <rect x="1244" y="1097" width="37" height="61" rx="10.01" ry="10.01" style="fill: #b04f21; stroke-width: 0px;"/>
    <rect x="1224.14" y="1164.25" width="21" height="73.14" transform="translate(-484.71 1301.52) rotate(-47.56)" style="fill: #b04f21; stroke-width: 0px;"/>
    <rect x="1281.39" y="1163.95" width="21" height="73.14" transform="translate(1277.84 2964.04) rotate(-132.44)" style="fill: #b04f21; stroke-width: 0px;"/>
    <rect x="1302" y="1125" width="37" height="61" rx="10.01" ry="10.01" style="fill: #b04f21; stroke-width: 0px;"/>
    <rect x="1186" y="1125" width="37" height="61" rx="10.01" ry="10.01" style="fill: #b04f21; stroke-width: 0px;"/>
  </g>
</svg>