<?xml version="1.0" encoding="UTF-8"?>
<svg xmlns="http://www.w3.org/2000/svg" viewBox="0 0 3840 2160">
  <g id="landing-fade-4">
    <g id="landing-fade-4-animation">
      <g>
        <rect x="2036.44" y="724.87" width="913.12" height="288.35" rx="144.18" ry="144.18" style="fill: #f5fcff; stroke-width: 0px;"/>
        <circle cx="2302.77" cy="752.24" r="143.51" style="fill: #f5fcff; stroke-width: 0px;"/>
        <circle cx="2476.98" cy="752.91" r="194.91" style="fill: #f5fcff; stroke-width: 0px;"/>
        <circle cx="2651.86" cy="803.64" r="194.91" style="fill: #f5fcff; stroke-width: 0px;"/>
        <circle cx="2651.19" cy="929.79" r="170.21" style="fill: #f5fcff; stroke-width: 0px;"/>
        <circle cx="2477.65" cy="896.42" r="170.21" style="fill: #f5fcff; stroke-width: 0px;"/>
        <circle cx="2257.38" cy="896.42" r="170.21" style="fill: #f5fcff; stroke-width: 0px;"/>
      </g>
    </g>
  </g>
  <g id="landing-fade-3">
    <g id="landing-fade-3-animation">
      <g>
        <rect x="842.44" y="1143.87" width="913.12" height="288.35" rx="144.18" ry="144.18" style="fill: #e4f3f9; stroke-width: 0px;"/>
        <circle cx="1108.77" cy="1171.24" r="143.51" style="fill: #e4f3f9; stroke-width: 0px;"/>
        <circle cx="1282.98" cy="1171.91" r="194.91" style="fill: #e4f3f9; stroke-width: 0px;"/>
        <circle cx="1457.86" cy="1222.64" r="194.91" style="fill: #e4f3f9; stroke-width: 0px;"/>
        <circle cx="1457.19" cy="1348.79" r="170.21" style="fill: #e4f3f9; stroke-width: 0px;"/>
        <circle cx="1283.65" cy="1315.42" r="170.21" style="fill: #e4f3f9; stroke-width: 0px;"/>
        <circle cx="1063.38" cy="1315.42" r="170.21" style="fill: #e4f3f9; stroke-width: 0px;"/>
      </g>
    </g>
  </g>
  <g id="landing-move">
    <g id="landing-move-animation">
      <g>
        <path d="M2265.94,958.28c0,104.28,63.45,193.47,153.21,229.79,18.98,7.68,39.69-6.46,39.69-26.94v-405.7c0-20.48-20.71-34.62-39.69-26.94-89.76,36.32-153.21,125.51-153.21,229.79Z" style="fill: #f98585; stroke-width: 0px;"/>
        <path d="M1614.35,1171.18l6.07,41.44h114.67v35.72h-109.39c3.94,20.24,21.7,35.01,42.51,35.01h179.45c16.77,0,32.03-9.68,39.18-24.85l41.16-87.32h-313.65Z" style="fill: #fcd2d2; stroke-width: 0px;"/>
        <path d="M1735.1,1212.62h-114.67l4.94,33.7c.1.68.22,1.36.35,2.02h109.39v-35.72Z" style="fill: #fff; stroke-width: 0px;"/>
        <rect x="1742.24" y="1212.62" width="48.58" height="35.72" style="fill: #fff; stroke-width: 0px;"/>
        <rect x="1797.97" y="1212.62" width="48.58" height="35.72" style="fill: #fff; stroke-width: 0px;"/>
        <path d="M1354.24,1034.7c50.21,93.92,199.57,161.49,458.02,161.49,276.29,0,588.24-77.22,675.17-181.31-117.75,70.3-335.72,117.5-585.15,117.5-225.19,0-424.73-38.47-548.04-97.67Z" style="fill: #ffb0b0; stroke-width: 0px;"/>
        <path d="M1812.26,719.65c-324.74,0-477.26,106.68-477.26,238.27,0,26.87,6.36,52.69,19.24,76.79,123.31,59.21,322.85,97.67,548.04,97.67,249.43,0,467.4-47.2,585.15-117.5,15.24-18.25,23.57-37.33,23.57-56.96,0-131.59-374-238.27-698.74-238.27Z" style="fill: #fcd2d2; stroke-width: 0px;"/>
        <ellipse cx="2379.54" cy="958.28" rx="113.6" ry="18.58" style="fill: #f98585; stroke-width: 0px;"/>
      </g>
      <g>
        <path d="M1597.93,810.51c4,1.1,6.02,3.21,6.05,6.22,0,.98-.33,2.88-1.02,5.7-5.54,21.7-11.09,42.71-16.67,62.95-.12.51-.32,1.13-.61,1.86-.29.73-1.08,1.7-2.35,2.9-1.28,1.2-2.8,1.79-4.56,1.8-1.76,0-3.29-.58-4.59-1.73-1.29-1.15-2.15-2.28-2.58-3.4-3.58-12.04-7.15-23.76-10.71-35.15-6.47,23.05-9.8,33.93-9.91,34.4-.12.4-.38.97-.8,1.71-.41.74-.89,1.4-1.42,2-1.37,1.53-3.01,2.29-4.92,2.29-1.91,0-3.49-.47-4.71-1.42-1.23-.95-2.05-1.9-2.48-2.84-.21-.47-.42-.95-.63-1.42-5.82-17.5-11.59-34.06-17.3-49.57-.65-1.85-.98-3.24-.98-4.2,0-2.39,1.98-4.71,5.93-7.03,1.71-1,3.26-1.67,4.65-1.99,1.39-.32,2.45-.06,3.19.77.74.84,1.41,2.23,2.01,4.19,3.28,9.86,6.59,20.06,9.91,30.58,3.2-11.02,6.38-22.34,9.55-33.95.81-2.96,2.31-5.21,4.5-6.74.94-.66,2.17-1.16,3.69-1.46,1.51-.31,2.92-.02,4.24.86,1.31.89,2.15,1.86,2.52,2.91,3.5,11.44,7.01,23.2,10.53,35.27,3.19-12.27,6.37-24.81,9.54-37.6.46-1.76.84-3.06,1.13-3.92.29-.86.83-1.74,1.63-2.65.8-.91,1.79-1.48,2.98-1.69,1.19-.21,2.59-.09,4.21.38Z" style="fill: #b50000; stroke-width: 0px;"/>
        <path d="M1625.26,871.1c9.21-.35,18.41-.68,27.62-.99,1.37-.05,2.41-.02,3.1.08.69.1,1.49.47,2.39,1.1,1.63,1.11,2.46,4.32,2.51,9.61.05,5.8-1.03,9.2-3.23,10.19-1.01.5-2.57.75-4.66.75-11.84.02-23.68.05-35.52.08-4.19,0-6.65-1.44-7.39-4.33-.37-1.21-.57-3.15-.59-5.82-.19-21.17-.38-42.34-.57-63.51-.03-3.88.51-6.61,1.63-8.21,1.12-1.59,3.26-2.65,6.42-3.15,11.75-1.86,23.52-3.56,35.31-5.1,1.38-.18,2.41-.25,3.1-.22.69.04,1.48.33,2.39.87,1.63.95,2.46,4.09,2.51,9.39.05,5.8-1.03,9.3-3.23,10.51-1.01.59-2.57.99-4.66,1.2-9.18.92-18.36,1.9-27.53,2.97.04,3.96.07,7.92.11,11.88,5.91-.56,11.83-1.1,17.75-1.61,1.38-.12,2.41-.15,3.1-.08.69.06,1.48.38,2.39.96,1.62,1.01,2.46,4.13,2.51,9.36.05,5.72-1.06,9.13-3.32,10.22-1.01.54-2.57.87-4.66.98-5.86.32-11.72.65-17.58.99.04,3.96.07,7.92.11,11.88Z" style="fill: #b50000; stroke-width: 0px;"/>
        <path d="M1682.53,872.91c8.14-.19,16.28-.36,24.42-.52,1.97-.04,3.41.26,4.32.9.9.64,1.51,1.66,1.82,3.06.31,1.4.47,3.26.49,5.59.02,2.33-.12,4.19-.41,5.59-.29,1.41-.79,2.37-1.51,2.9-1.13.88-2.68,1.32-4.66,1.32-10.77.02-21.53.03-32.3.05-4.19,0-6.65-1.58-7.4-4.74-.37-1.33-.57-3.46-.59-6.38-.2-23.19-.4-46.39-.6-69.58-.02-1.92.02-3.36.1-4.33.08-.97.36-2.11.83-3.42.82-2.35,3.14-3.76,6.98-4.2,4.19-.48,6.69.82,7.5,3.89.31,1.42.48,3.61.5,6.59.17,21.09.34,42.19.51,63.28Z" style="fill: #b50000; stroke-width: 0px;"/>
        <path d="M1760.44,865.62c.54-.6,1.07-1.19,1.61-1.79,2.03-1.84,3.46-2.77,4.3-2.78,1.86-.03,3.88,2.49,6.05,7.56,1.33,3.17,2,5.72,2,7.63,0,1.91-.39,3.51-1.2,4.79-.8,1.28-1.74,2.42-2.82,3.42-1.07,1.01-2.1,1.96-3.09,2.87-.98.91-3,2.1-6.04,3.55-3.04,1.45-5.99,2.17-8.83,2.17-2.84,0-5.71-.56-8.62-1.68-2.91-1.12-5.91-2.99-9-5.61-3.1-2.61-5.88-5.79-8.36-9.53-2.48-3.74-4.53-8.52-6.15-14.35-1.63-5.83-2.46-12.16-2.51-19.03-.05-6.87.69-13.13,2.22-18.82,1.52-5.69,3.49-10.45,5.9-14.28,2.41-3.83,5.17-7.1,8.28-9.8,5.86-5.19,11.77-8,17.73-8.33,2.83-.16,5.7.35,8.63,1.52,2.92,1.17,5.14,2.42,6.65,3.72.72.61,1.45,1.21,2.17,1.82,1.09.96,1.93,1.75,2.53,2.36,1.57,1.85,2.36,3.99,2.37,6.41,0,2.41-.61,4.96-1.87,7.64-2.33,4.99-4.42,7.5-6.28,7.56-1.08.03-2.62-.92-4.61-2.84-2.54-2.99-5.91-4.4-10.11-4.22-3.91.17-7.74,2.37-11.5,6.57-1.79,2.05-3.28,4.89-4.45,8.51-1.18,3.62-1.76,7.68-1.73,12.18.03,4.5.65,8.51,1.87,12.05,1.22,3.54,2.76,6.32,4.63,8.34,3.68,3.87,7.49,5.8,11.44,5.74,1.86-.02,3.61-.41,5.25-1.15,1.64-.74,2.82-1.48,3.54-2.22Z" style="fill: #b50000; stroke-width: 0px;"/>
        <path d="M1811.15,789.42c8.91-.09,16.66,4.84,23.21,14.72,6.55,9.88,9.81,22.11,9.79,36.65-.02,14.55-3.15,26.93-9.39,37.17-6.23,10.24-13.89,15.37-22.98,15.37-9.09,0-16.83-5.06-23.23-15.1-6.4-10.04-9.63-21.94-9.67-35.81-.02-7.57.86-14.68,2.64-21.34,1.78-6.66,4.17-12.27,7.17-16.83,3-4.55,6.45-8.16,10.36-10.8,3.91-2.64,7.94-3.99,12.1-4.03ZM1794.81,841.51c.02,8.16,1.75,14.76,5.21,19.83,3.45,5.07,7.3,7.61,11.56,7.6,4.25-.01,8.08-2.5,11.5-7.46,3.42-4.97,5.13-11.63,5.13-19.99,0-8.36-1.72-15.08-5.18-20.13-3.46-5.05-7.32-7.57-11.59-7.53-4.27.03-8.11,2.63-11.53,7.76-3.42,5.14-5.11,11.78-5.1,19.94Z" style="fill: #b50000; stroke-width: 0px;"/>
        <path d="M1920.36,797.76c.47,1.37.75,2.58.83,3.66.08,1.07.12,2.63.11,4.67-.15,24.64-.3,49.28-.45,73.92-.04,6.12-1.2,9.72-3.47,10.78-1.14.53-2.58.8-4.31.8-1.74,0-3.11-.23-4.12-.68-1.02-.45-1.79-.99-2.32-1.62-.54-.63-.95-1.53-1.24-2.69-.29-1.53-.43-3.86-.41-7,.08-15.03.15-30.06.23-45.1-1.51,2.73-3.72,7.08-6.63,13.09-2.91,6.01-4.75,9.8-5.54,11.32-.79,1.52-1.33,2.58-1.63,3.16-.3.58-1.04,1.39-2.21,2.41-1.17,1.03-2.43,1.53-3.78,1.51-1.35-.02-2.57-.51-3.68-1.47-1.11-.97-1.9-1.91-2.37-2.82-.24-.5-.48-1.01-.71-1.51-1.19-2.29-3.54-7.16-7.06-14.66-3.52-7.49-5.43-11.53-5.73-12.08-.04,15.39-.08,30.79-.13,46.18,0,2.1-.06,3.68-.15,4.73-.09,1.05-.38,2.22-.86,3.49-.9,2.47-3.24,3.7-7.01,3.7-3.65,0-5.92-1.24-6.81-3.72-.48-1.28-.76-2.48-.85-3.58-.09-1.1-.13-2.75-.13-4.95.04-25.45.09-50.9.13-76.35,0-2.11.05-3.69.14-4.74.09-1.05.38-2.26.86-3.63.91-2.37,3.26-3.51,7.05-3.42,1.63.04,3.02.38,4.2,1,1.17.63,1.94,1.27,2.3,1.92.18.28.36.56.54.84,6.79,13.82,13.57,27.6,20.33,41.29,10.28-20.14,17.18-33.08,20.64-39.35,1.03-2.36,3.46-3.42,7.28-3.17,3.82.26,6.14,1.63,6.97,4.08Z" style="fill: #b50000; stroke-width: 0px;"/>
        <path d="M1944,868.63c9.22.21,18.44.45,27.65.71,1.37.04,2.41.13,3.1.28.69.15,1.48.57,2.37,1.27,1.61,1.22,2.38,4.51,2.34,9.87-.05,5.86-1.19,9.29-3.41,10.3-1.02.5-2.58.75-4.67.75-11.84-.02-23.68-.04-35.53-.06-4.19,0-6.63-1.68-7.32-5.04-.35-1.41-.52-3.67-.49-6.76.16-24.55.32-49.1.47-73.64.03-4.5.62-7.53,1.77-9.07,1.15-1.54,3.32-2.18,6.5-1.92,11.83,1,23.65,2.16,35.46,3.47,1.38.15,2.41.33,3.1.54.69.2,1.48.7,2.37,1.47,1.61,1.36,2.39,4.72,2.34,10.08-.05,5.86-1.19,9.19-3.41,10.01-1.02.41-2.58.53-4.68.35-9.2-.78-18.4-1.49-27.6-2.13-.03,4.4-.06,8.8-.09,13.2,5.93.34,11.87.7,17.8,1.09,1.38.09,2.41.22,3.1.4.69.17,1.48.63,2.37,1.37,1.61,1.3,2.39,4.66,2.34,10.08-.05,5.93-1.22,9.36-3.5,10.28-1.02.47-2.58.66-4.68.57-5.87-.24-11.74-.46-17.6-.67-.03,4.4-.06,8.8-.09,13.2Z" style="fill: #b50000; stroke-width: 0px;"/>
        <path d="M2012.99,803.85c16.61,2.38,33.19,5.07,49.72,8.08,1.9.35,3.3.88,4.19,1.58.89.7,1.47,1.66,1.76,2.86.29,1.2.42,2.73.41,4.6-.01,1.86-.17,3.33-.48,4.39-.31,1.07-.82,1.76-1.54,2.08-1.08.49-2.6.59-4.56.3-5.69-.83-11.38-1.64-17.07-2.41-.17,18.97-.33,37.94-.5,56.91-.02,1.74-.07,3.02-.17,3.84-.1.83-.38,1.79-.83,2.88-.46,1.09-1.26,1.86-2.4,2.31-1.14.45-2.64.68-4.49.67-1.86,0-3.33-.24-4.43-.71-1.1-.47-1.87-1.26-2.31-2.39-.44-1.13-.7-2.14-.78-3.03-.08-.89-.11-2.23-.1-4.02.18-19.49.35-38.99.53-58.48-5.73-.72-11.46-1.41-17.2-2.07-1.91-.22-3.31-.68-4.21-1.39-.89-.71-1.48-1.72-1.77-3.05-.29-1.33-.42-3.04-.4-5.14.02-2.1.18-3.76.49-4.97.31-1.21.83-2.01,1.55-2.39,1.08-.58,2.61-.72,4.58-.44Z" style="fill: #b50000; stroke-width: 0px;"/>
        <path d="M2099.31,818.33c8.76,1.88,16.34,7.11,22.78,15,6.43,7.91,9.67,16.31,9.67,25.77,0,9.47-3.09,17.22-9.31,23.9-6.22,6.66-13.89,10.32-22.98,10.32-9.09.01-16.8-3.68-23.1-11.61-6.31-7.91-9.41-17.6-9.32-28.55.05-5.97.99-11.48,2.81-16.43,1.83-4.95,4.24-8.91,7.24-11.85,3-2.95,6.43-4.99,10.3-6.15,3.87-1.16,7.84-1.26,11.93-.39ZM2082.87,854.15c-.04,6.17,1.64,11.33,5.04,15.33,3.41,4.01,7.23,6.04,11.47,6.25,4.24.21,8.06-1.38,11.47-4.6,3.41-3.23,5.12-7.63,5.13-13.36.02-5.73-1.68-10.55-5.08-14.6-3.4-4.05-7.2-6.5-11.41-7.19-4.22-.69-8.03.55-11.44,3.87-3.41,3.31-5.15,8.14-5.19,14.3Z" style="fill: #b50000; stroke-width: 0px;"/>
      </g>
      <g>
        <path d="M1485.22,1010.84c1.29,3.56,1.94,6.11,1.93,7.64,0,3.63-2.71,6.41-8.09,8.25-2.78,1-5.01,1.39-6.71,1.19-1.69-.2-3.08-.82-4.16-1.84-1.08-1.02-1.88-2.02-2.4-3.02-.86-1.86-4.23-10.76-10.1-26.24-1.35-.03-2.69-.06-4.04-.09-5.47-.5-10.93-1.02-16.4-1.54,0,5.07-.01,10.15-.02,15.22,0,2.07-.07,3.61-.2,4.62-.13,1.02-.55,2.16-1.24,3.41-1.22,2.27-4.6,3.02-10.14,2.27-6.06-.83-9.61-2.95-10.65-6.3-.52-1.55-.78-3.84-.78-6.89v-72.42c0-2,.07-3.5.2-4.5.13-1,.54-2.15,1.24-3.45,1.22-2.34,4.61-3.52,10.18-3.52,9.39.01,18.79.02,28.18.03,7.65,0,15.09,2.96,22.29,9.07,3.47,2.96,6.33,6.99,8.58,12.08,2.25,5.1,3.36,10.77,3.35,16.98-.03,10.79-3.31,19.52-9.84,25.93,1.9,5.15,4.83,12.8,8.8,23.1ZM1435.29,971.35c5.56.36,11.11.71,16.67,1.05,2.52.16,5.04-.7,7.56-2.6,2.52-1.89,3.79-4.9,3.8-9,0-4.09-1.25-7.24-3.76-9.41-2.52-2.17-5.12-3.28-7.82-3.37-5.48-.17-10.95-.35-16.43-.53,0,7.95-.02,15.9-.03,23.84Z" style="fill: #b50000; stroke-width: 0px;"/>
        <path d="M1517.42,1005.93c13.38,1.05,26.77,2.03,40.16,2.94,2,.14,3.5.31,4.5.53,1,.22,2.15.78,3.45,1.69,2.34,1.59,3.5,5.69,3.48,12.28-.02,7.21-1.65,11.29-4.87,12.25-1.48.49-3.74.6-6.78.32-17.21-1.54-34.42-3.23-51.61-5.08-6.08-.66-9.63-2.89-10.66-6.66-.52-1.6-.77-4.08-.76-7.45.07-26.77.15-53.54.22-80.31.01-4.91.85-8.25,2.51-10.03,1.66-1.78,4.79-2.67,9.4-2.67,17.14.02,34.27.03,51.41.05,2,0,3.5.08,4.5.23,1,.15,2.15.64,3.45,1.47,2.34,1.44,3.5,5.46,3.48,12.05-.02,7.21-1.65,11.4-4.87,12.56-1.48.58-3.74.84-6.79.77-13.35-.3-26.7-.62-40.05-.96-.02,4.98-.03,9.95-.05,14.93,8.61.34,17.21.67,25.82.98,2,.07,3.5.2,4.5.39,1,.19,2.15.71,3.45,1.57,2.34,1.51,3.5,5.52,3.48,12.04-.02,7.13-1.69,11.21-5,12.24-1.48.52-3.74.7-6.78.52-8.52-.5-17.04-1.03-25.55-1.58-.02,4.98-.03,9.95-.05,14.93Z" style="fill: #b50000; stroke-width: 0px;"/>
        <path d="M1632.99,932.21c11.65,29.96,23.32,60.47,35,91.38,1.47,3.77,2.21,6.59,2.2,8.44-.01,3.93-2.55,7.36-7.61,10.25-2.97,1.69-5.3,2.48-7,2.39-1.7-.1-3.09-.66-4.18-1.7-1.09-1.03-1.87-2.11-2.34-3.21-.48-1.11-1.15-2.76-2.01-4.97-2.25-5.95-4.49-11.89-6.74-17.81-12.06-.58-24.11-1.21-36.17-1.91-2.28,5.56-4.56,11.1-6.84,16.61-.88,2.04-1.56,3.51-2.04,4.42-.48.91-1.27,1.82-2.36,2.73-1.09.91-2.48,1.3-4.18,1.16-1.7-.13-4.02-1.21-6.97-3.21-5.04-3.31-7.55-6.81-7.53-10.53,0-1.76.75-4.33,2.24-7.75,11.84-28.11,23.68-57.02,35.52-86.55.96-2.43,2.43-4.38,4.39-5.87,1.96-1.48,4.03-2.23,6.21-2.23,4.7,0,8.17,2.78,10.41,8.37ZM1622.3,970.51c-2.89,7.22-5.79,14.4-8.68,21.55,5.79.24,11.57.47,17.36.68-2.89-7.44-5.79-14.86-8.68-22.23Z" style="fill: #b50000; stroke-width: 0px;"/>
        <path d="M1730.73,1014.17c.79-.71,1.57-1.41,2.36-2.12,2.96-2.17,5.06-3.24,6.28-3.22,2.7.05,5.61,3.22,8.74,9.53,1.91,3.94,2.87,7.09,2.86,9.43,0,2.35-.59,4.29-1.77,5.83-1.18,1.54-2.55,2.91-4.12,4.1-1.57,1.19-3.08,2.33-4.52,3.41-1.44,1.08-4.38,2.46-8.83,4.11-4.45,1.65-8.75,2.4-12.88,2.26-4.14-.14-8.32-.98-12.55-2.52-4.23-1.54-8.58-4.03-13.06-7.45-4.48-3.42-8.5-7.54-12.06-12.34-3.56-4.8-6.49-10.87-8.77-18.21-2.29-7.34-3.42-15.25-3.4-23.75.02-8.5,1.17-16.19,3.45-23.09,2.28-6.9,5.19-12.61,8.72-17.13,3.54-4.52,7.57-8.31,12.1-11.38,8.54-5.92,17.11-8.91,25.72-8.91,4.09,0,8.24.81,12.46,2.42,4.22,1.62,7.41,3.26,9.58,4.94,1.04.78,2.09,1.57,3.13,2.35,1.56,1.23,2.78,2.24,3.65,3.02,2.26,2.35,3.39,5.01,3.38,7.97,0,2.96-.92,6.06-2.75,9.29-3.4,6.01-6.46,9-9.15,8.97-1.57-.01-3.78-1.26-6.65-3.73-3.65-3.81-8.52-5.74-14.61-5.78-5.66-.05-11.23,2.4-16.73,7.3-2.62,2.4-4.8,5.78-6.55,10.16-1.75,4.38-2.63,9.34-2.64,14.89-.01,5.56.85,10.55,2.58,15,1.73,4.45,3.94,7.98,6.64,10.6,5.3,5.01,10.83,7.6,16.58,7.75,2.7.07,5.25-.31,7.65-1.14,2.4-.83,4.12-1.68,5.17-2.55Z" style="fill: #b50000; stroke-width: 0px;"/>
        <path d="M1765.97,923.73c24.18,0,48.37,0,72.55,0,2.78,0,4.83.42,6.13,1.26,1.31.84,2.18,2.16,2.61,3.96.44,1.8.66,4.15.66,7.07,0,2.92-.21,5.25-.65,6.99-.44,1.74-1.17,2.95-2.22,3.62-1.57,1.01-3.78,1.52-6.66,1.53-8.31.01-16.62.02-24.93.02,0,28.26,0,56.52,0,84.78,0,2.59-.07,4.5-.2,5.73-.13,1.24-.52,2.67-1.18,4.3-.65,1.63-1.81,2.78-3.47,3.45-1.66.67-3.84,1-6.54.99-2.7-.01-4.86-.36-6.47-1.05-1.62-.68-2.75-1.84-3.4-3.48-.65-1.63-1.04-3.09-1.17-4.39-.13-1.29-.19-3.23-.19-5.81.01-28.18.03-56.36.04-84.54-8.35-.01-16.71-.04-25.06-.07-2.79,0-4.83-.44-6.13-1.28-1.3-.84-2.17-2.16-2.61-3.95-.44-1.79-.65-4.14-.64-7.05,0-2.91.22-5.23.66-6.96.44-1.73,1.18-2.93,2.22-3.61,1.57-1.01,3.79-1.51,6.66-1.51Z" style="fill: #b50000; stroke-width: 0px;"/>
        <path d="M1942.39,925.69c5.14,3.18,7.71,6.67,7.72,10.51,0,1.75-.64,4.39-1.94,7.9-11.93,30.79-23.88,61.99-35.85,93.42-.96,2.47-2.41,4.49-4.37,6.05-1.96,1.56-3.98,2.37-6.08,2.44-.44.01-.87.03-1.31.04-2.18.06-4.25-.63-6.22-2.08-1.96-1.45-3.43-3.39-4.39-5.82-12.07-30.93-24.13-62.17-36.16-93.54-1.31-3.58-1.96-6.28-1.96-8.07,0-3.92,2.56-7.52,7.69-10.77,2.87-1.91,5.06-2.86,6.59-2.86,1.52,0,2.68.23,3.46.67.78.45,1.52,1.23,2.22,2.35.78,1.34,1.5,2.83,2.16,4.44.65,1.62,2.33,6.26,5.04,13.91,2.71,7.65,5.61,15.75,8.71,24.31,3.1,8.56,6.03,16.63,8.79,24.22,2.75,7.58,4.31,11.8,4.66,12.69,8.67-24.53,17.33-48.94,25.98-73.14.69-2.1,1.3-3.76,1.82-4.97,1.56-2.98,3.47-4.47,5.73-4.47,2.26,0,4.83.94,7.7,2.8Z" style="fill: #b50000; stroke-width: 0px;"/>
        <path d="M1957.3,938.29c0-2.51.05-4.4.18-5.65.13-1.25.53-2.71,1.23-4.34,1.21-2.95,4.6-4.42,10.17-4.43,6.09,0,9.7,2,10.85,6,.44,1.84.67,4.65.68,8.43.09,30.06.17,60.12.26,90.18,0,2.59-.05,4.49-.18,5.69-.13,1.2-.54,2.62-1.23,4.29-1.21,2.99-4.6,4.64-10.18,4.94-6.1.32-9.68-1.57-10.73-5.68-.53-1.72-.79-4.49-.8-8.32-.08-30.37-.15-60.73-.23-91.1Z" style="fill: #b50000; stroke-width: 0px;"/>
        <path d="M2014.18,1017.05c11.84-.65,23.67-1.36,35.5-2.13,2.87-.19,4.96.06,6.27.75,1.31.69,2.18,1.84,2.62,3.46.44,1.62.66,3.8.67,6.53.01,2.73-.2,4.94-.63,6.63-.43,1.69-1.17,2.88-2.21,3.59-1.65,1.17-3.91,1.88-6.78,2.11-15.66,1.27-31.32,2.41-46.99,3.42-6.09.39-9.67-1.43-10.73-5.46-.53-1.69-.8-4.42-.81-8.18-.09-29.9-.18-59.81-.26-89.71,0-2.47.05-4.33.18-5.57.13-1.24.54-2.67,1.23-4.28,1.21-2.91,4.6-4.36,10.16-4.36,6.09,0,9.7,1.97,10.85,5.89.44,1.81.67,4.57.68,8.28.08,26.34.17,52.69.25,79.03Z" style="fill: #b50000; stroke-width: 0px;"/>
        <path d="M2090.77,1012.02c11.82-.9,23.64-1.86,35.45-2.88,2.87-.25,4.95-.06,6.26.54,1.3.61,2.18,1.67,2.62,3.17.44,1.5.66,3.53.67,6.08,0,2.55-.21,4.63-.63,6.21-.43,1.59-1.17,2.73-2.21,3.42-1.65,1.15-3.9,1.88-6.77,2.19-15.63,1.68-31.27,3.24-46.91,4.67-6.09.56-9.66-1.07-10.71-4.88-.53-1.59-.8-4.19-.81-7.77-.1-28.48-.19-56.97-.29-85.46,0-2.36.05-4.12.18-5.3.13-1.18.53-2.54,1.23-4.08,1.21-2.77,4.6-4.15,10.16-4.15,6.09,0,9.7,1.86,10.85,5.57.44,1.71.67,4.32.68,7.84.08,24.94.16,49.88.24,74.82Z" style="fill: #b50000; stroke-width: 0px;"/>
        <path d="M2167.23,1001.32c13.36-1.24,26.72-2.55,40.07-3.94,1.99-.21,3.49-.3,4.49-.27.99.03,2.15.32,3.44.88,2.34.98,3.51,4.23,3.51,9.8,0,6.09-1.6,9.87-4.8,11.36-1.47.73-3.72,1.3-6.75,1.72-17.15,2.34-34.31,4.52-51.48,6.55-6.07.72-9.64-.68-10.69-4.2-.52-1.47-.79-3.88-.8-7.22-.07-26.56-.14-53.11-.21-79.67-.01-4.87.8-8.2,2.45-9.97,1.65-1.77,4.78-2.65,9.39-2.65,17.14-.02,34.27-.04,51.41-.06,2,0,3.5.06,4.5.19,1,.13,2.15.55,3.46,1.24,2.35,1.22,3.52,4.6,3.52,10.17,0,6.09-1.61,9.7-4.82,10.86-1.48.57-3.74.92-6.78,1.02-13.34.45-26.68.88-40.02,1.28,0,4.7.02,9.4.03,14.1,8.6-.4,17.2-.82,25.8-1.26,2-.1,3.5-.11,4.5-.03,1,.08,2.15.45,3.45,1.09,2.34,1.13,3.52,4.52,3.52,10.2,0,6.21-1.64,9.98-4.94,11.33-1.48.66-3.73,1.11-6.77,1.36-8.5.7-17.01,1.37-25.52,2.02,0,4.7.02,9.4.03,14.1Z" style="fill: #b50000; stroke-width: 0px;"/>
      </g>
      <text transform="translate(2003 1082.89)" style="fill: #000; font-family: FredokaOne-Regular, &apos;Fredoka One&apos;; font-size: 34px;"><tspan x="0" y="0" style="letter-spacing: -.02em;">w</tspan><tspan x="26.28" y="0">orking tit</tspan><tspan x="177.41" y="0" style="letter-spacing: 0em;">l</tspan><tspan x="188.19" y="0" style="letter-spacing: 0em;">e</tspan></text>
    </g>
  </g>
  <g id="landing-fade-2">
    <g id="landing-fade-2-animation">
      <g>
        <rect x="2297.5" y="1268.67" width="529" height="167.05" rx="83.53" ry="83.53" style="fill: #ebf4f7; stroke-width: 0px;"/>
        <circle cx="2451.79" cy="1284.53" r="83.14" style="fill: #ebf4f7; stroke-width: 0px;"/>
        <circle cx="2552.72" cy="1284.92" r="112.92" style="fill: #ebf4f7; stroke-width: 0px;"/>
        <circle cx="2654.03" cy="1314.31" r="112.92" style="fill: #ebf4f7; stroke-width: 0px;"/>
        <circle cx="2653.65" cy="1387.39" r="98.61" style="fill: #ebf4f7; stroke-width: 0px;"/>
        <circle cx="2553.11" cy="1368.06" r="98.61" style="fill: #ebf4f7; stroke-width: 0px;"/>
        <circle cx="2425.5" cy="1368.06" r="98.61" style="fill: #ebf4f7; stroke-width: 0px;"/>
      </g>
    </g>
  </g>
  <g id="landing-fade-1">
    <g id="landing-fade-1-animation">
      <g>
        <rect x="988.5" y="554.67" width="529" height="167.05" rx="83.53" ry="83.53" style="fill: #f5fcff; stroke-width: 0px;"/>
        <circle cx="1142.79" cy="570.53" r="83.14" style="fill: #f5fcff; stroke-width: 0px;"/>
        <circle cx="1243.72" cy="570.92" r="112.92" style="fill: #f5fcff; stroke-width: 0px;"/>
        <circle cx="1345.03" cy="600.31" r="112.92" style="fill: #f5fcff; stroke-width: 0px;"/>
        <circle cx="1344.65" cy="673.39" r="98.61" style="fill: #f5fcff; stroke-width: 0px;"/>
        <circle cx="1244.11" cy="654.06" r="98.61" style="fill: #f5fcff; stroke-width: 0px;"/>
        <circle cx="1116.5" cy="654.06" r="98.61" style="fill: #f5fcff; stroke-width: 0px;"/>
      </g>
    </g>
  </g>
</svg>