<?xml version="1.0" encoding="UTF-8"?>
<svg xmlns="http://www.w3.org/2000/svg" viewBox="0 0 3840 2160">
  <g id="landing-fade-4">
    <g id="landing-fade-4-animation">
      <g>
        <rect x="2036.44" y="724.87" width="913.12" height="288.35" rx="144.18" ry="144.18" style="fill: #f5fcff; stroke-width: 0px;"/>
        <circle cx="2302.77" cy="752.24" r="143.51" style="fill: #f5fcff; stroke-width: 0px;"/>
        <circle cx="2476.98" cy="752.91" r="194.91" style="fill: #f5fcff; stroke-width: 0px;"/>
        <circle cx="2651.86" cy="803.64" r="194.91" style="fill: #f5fcff; stroke-width: 0px;"/>
        <circle cx="2651.19" cy="929.79" r="170.21" style="fill: #f5fcff; stroke-width: 0px;"/>
        <circle cx="2477.65" cy="896.42" r="170.21" style="fill: #f5fcff; stroke-width: 0px;"/>
        <circle cx="2257.38" cy="896.42" r="170.21" style="fill: #f5fcff; stroke-width: 0px;"/>
      </g>
    </g>
  </g>
  <g id="landing-fade-3">
    <g id="landing-fade-3-animation">
      <g>
        <rect x="842.44" y="1143.87" width="913.12" height="288.35" rx="144.18" ry="144.18" style="fill: #e4f3f9; stroke-width: 0px;"/>
        <circle cx="1108.77" cy="1171.24" r="143.51" style="fill: #e4f3f9; stroke-width: 0px;"/>
        <circle cx="1282.98" cy="1171.91" r="194.91" style="fill: #e4f3f9; stroke-width: 0px;"/>
        <circle cx="1457.86" cy="1222.64" r="194.91" style="fill: #e4f3f9; stroke-width: 0px;"/>
        <circle cx="1457.19" cy="1348.79" r="170.21" style="fill: #e4f3f9; stroke-width: 0px;"/>
        <circle cx="1283.65" cy="1315.42" r="170.21" style="fill: #e4f3f9; stroke-width: 0px;"/>
        <circle cx="1063.38" cy="1315.42" r="170.21" style="fill: #e4f3f9; stroke-width: 0px;"/>
      </g>
    </g>
  </g>
  <g id="landing-move">
    <g id="landing-move-animation">
      <path d="M2279.1,939.36c0,108.89,66.26,202.03,159.99,239.95,19.82,8.02,41.45-6.75,41.45-28.13v-423.64c0-21.38-21.62-36.15-41.45-28.13-93.73,37.92-159.99,131.06-159.99,239.95Z" style="fill: #f98585; stroke-width: 0px;"/>
      <path d="M1598.71,1161.69l6.34,43.27h119.74v37.3h-114.23c4.12,21.13,22.66,36.56,44.39,36.56h187.38c17.51,0,33.44-10.11,40.91-25.94l42.98-91.19h-327.52Z" style="fill: #fcd2d2; stroke-width: 0px;"/>
      <path d="M1724.79,1204.96h-119.74l5.15,35.19c.1.71.23,1.42.36,2.11h114.23v-37.3Z" style="fill: #fff; stroke-width: 0px;"/>
      <path d="M1327.09,1019.17c52.44,98.07,208.4,168.63,478.27,168.63,288.51,0,614.25-80.64,705.02-189.33-122.96,73.41-350.56,122.7-611.02,122.7-235.14,0-443.51-40.17-572.27-101.99Z" style="fill: #ffb0b0; stroke-width: 0px;"/>
      <path d="M1805.36,690.18c-339.1,0-498.36,111.4-498.36,248.81,0,28.05,6.64,55.02,20.09,80.18,128.76,61.82,337.13,101.99,572.27,101.99,260.46,0,488.06-49.29,611.02-122.7,15.92-19.06,24.61-38.98,24.61-59.48,0-137.41-390.54-248.81-729.64-248.81Z" style="fill: #fcd2d2; stroke-width: 0px;"/>
      <g>
        <path d="M1610.91,765.29c4.8,1.32,7.22,3.84,7.25,7.46,0,1.17-.4,3.46-1.23,6.82-6.64,26-13.29,51.17-19.97,75.41-.14.61-.38,1.35-.73,2.23-.35.87-1.29,2.04-2.82,3.47-1.53,1.44-3.35,2.15-5.46,2.15-2.11,0-3.95-.69-5.5-2.07-1.55-1.38-2.58-2.73-3.09-4.07-4.29-14.42-8.57-28.46-12.83-42.11-7.75,27.62-11.74,40.65-11.88,41.21-.14.48-.46,1.16-.96,2.04-.5.88-1.07,1.68-1.71,2.4-1.64,1.84-3.6,2.74-5.9,2.75-2.29,0-4.18-.57-5.65-1.71-1.47-1.14-2.46-2.27-2.97-3.41-.25-.57-.5-1.13-.76-1.7-6.97-20.97-13.89-40.8-20.73-59.39-.78-2.22-1.17-3.89-1.17-5.03,0-2.86,2.37-5.65,7.1-8.43,2.05-1.2,3.91-2.01,5.57-2.39,1.66-.38,2.94-.08,3.83.93.89,1.01,1.69,2.67,2.41,5.02,3.93,11.81,7.89,24.03,11.87,36.63,3.83-13.2,7.64-26.76,11.44-40.67.98-3.55,2.77-6.25,5.39-8.08,1.13-.8,2.6-1.39,4.42-1.75,1.81-.37,3.5-.03,5.08,1.03,1.57,1.06,2.58,2.23,3.01,3.48,4.19,13.7,8.4,27.79,12.62,42.25,3.82-14.7,7.63-29.72,11.43-45.05.55-2.1,1-3.67,1.35-4.7.35-1.02,1-2.08,1.95-3.18.95-1.09,2.14-1.77,3.57-2.03,1.43-.25,3.11-.11,5.04.45Z" style="fill: #b50000; stroke-width: 0px;"/>
        <path d="M1643.65,837.88c11.03-.42,22.06-.82,33.09-1.19,1.65-.05,2.88-.02,3.71.1.83.12,1.78.56,2.86,1.32,1.95,1.33,2.95,5.17,3,11.52.06,6.95-1.23,11.02-3.87,12.21-1.21.6-3.07.9-5.58.9-14.19.03-28.37.06-42.56.1-5.02,0-7.97-1.72-8.86-5.18-.44-1.46-.68-3.78-.71-6.97-.23-25.36-.45-50.72-.68-76.09-.04-4.65.61-7.92,1.95-9.84,1.34-1.91,3.9-3.18,7.69-3.78,14.08-2.23,28.18-4.26,42.3-6.11,1.65-.22,2.89-.3,3.71-.26.82.04,1.78.39,2.86,1.05,1.95,1.14,2.95,4.9,3.01,11.25.06,6.95-1.23,11.14-3.87,12.59-1.21.71-3.08,1.19-5.58,1.44-11,1.1-21.99,2.28-32.97,3.55.04,4.74.09,9.49.13,14.23,7.08-.67,14.17-1.32,21.26-1.93,1.65-.14,2.88-.18,3.71-.1.82.08,1.78.46,2.86,1.15,1.95,1.21,2.95,4.95,3,11.21.06,6.85-1.26,10.94-3.98,12.25-1.21.65-3.07,1.04-5.58,1.17-7.02.38-14.04.77-21.05,1.19.04,4.74.09,9.49.13,14.23Z" style="fill: #b50000; stroke-width: 0px;"/>
        <path d="M1712.26,840.05c9.75-.23,19.5-.43,29.25-.62,2.37-.05,4.09.31,5.17,1.08,1.08.77,1.81,1.99,2.18,3.67.37,1.68.56,3.91.58,6.69.02,2.79-.15,5.02-.49,6.7-.35,1.68-.95,2.84-1.8,3.47-1.36,1.05-3.21,1.58-5.58,1.58-12.9.02-25.79.04-38.69.06-5.02,0-7.97-1.89-8.86-5.68-.44-1.6-.68-4.14-.71-7.64-.24-27.79-.48-55.57-.72-83.36-.02-2.3.02-4.03.12-5.19.1-1.16.43-2.52.99-4.09.98-2.81,3.77-4.51,8.36-5.03,5.02-.57,8.02.99,8.99,4.66.37,1.7.57,4.33.6,7.89.21,25.27.41,50.54.62,75.81Z" style="fill: #b50000; stroke-width: 0px;"/>
        <path d="M1805.59,831.32c.64-.71,1.29-1.43,1.93-2.14,2.43-2.2,4.15-3.32,5.16-3.33,2.22-.03,4.64,2.98,7.25,9.06,1.59,3.8,2.39,6.85,2.4,9.14,0,2.29-.47,4.2-1.43,5.73-.96,1.53-2.09,2.9-3.37,4.1-1.29,1.2-2.52,2.35-3.7,3.44-1.18,1.09-3.59,2.51-7.24,4.25-3.65,1.74-7.17,2.61-10.57,2.61-3.4,0-6.85-.68-10.33-2.01-3.48-1.34-7.08-3.58-10.79-6.72-3.71-3.13-7.05-6.94-10.01-11.41-2.97-4.48-5.43-10.2-7.37-17.19-1.95-6.98-2.95-14.57-3-22.79-.05-8.23.83-15.73,2.66-22.55,1.83-6.81,4.18-12.52,7.07-17.11,2.89-4.59,6.19-8.51,9.92-11.74,7.02-6.22,14.1-9.58,21.24-9.97,3.39-.19,6.83.42,10.33,1.82,3.5,1.41,6.16,2.9,7.96,4.45.87.73,1.74,1.45,2.6,2.18,1.3,1.15,2.31,2.09,3.04,2.83,1.88,2.22,2.83,4.78,2.84,7.67,0,2.89-.74,5.94-2.24,9.15-2.79,5.97-5.3,8.98-7.52,9.05-1.3.04-3.13-1.1-5.52-3.4-3.04-3.58-7.08-5.27-12.11-5.05-4.68.2-9.27,2.84-13.78,7.87-2.14,2.46-3.93,5.86-5.34,10.19-1.41,4.34-2.1,9.2-2.07,14.59.03,5.39.78,10.2,2.24,14.44,1.46,4.24,3.31,7.57,5.55,9.99,4.4,4.64,8.97,6.94,13.7,6.88,2.22-.03,4.32-.49,6.29-1.38,1.97-.89,3.38-1.78,4.24-2.66Z" style="fill: #b50000; stroke-width: 0px;"/>
        <path d="M1866.34,740.03c10.68-.11,19.95,5.8,27.8,17.63,7.85,11.84,11.75,26.49,11.73,43.91-.02,17.43-3.78,32.26-11.25,44.52-7.47,12.27-16.63,18.42-27.52,18.41-10.89,0-20.16-6.06-27.82-18.08-7.67-12.03-11.54-26.28-11.59-42.89-.03-9.07,1.02-17.58,3.16-25.57,2.14-7.98,5-14.7,8.59-20.16,3.59-5.45,7.73-9.78,12.41-12.94,4.68-3.16,9.51-4.78,14.49-4.83ZM1846.77,802.43c.02,9.77,2.1,17.68,6.24,23.75,4.14,6.07,8.75,9.11,13.85,9.1,5.09-.01,9.68-2.99,13.78-8.94,4.09-5.95,6.14-13.93,6.14-23.95,0-10.02-2.06-18.07-6.2-24.12-4.14-6.05-8.77-9.06-13.88-9.03-5.12.04-9.72,3.15-13.81,9.3-4.09,6.15-6.13,14.11-6.11,23.88Z" style="fill: #b50000; stroke-width: 0px;"/>
        <path d="M1997.17,750.02c.57,1.64.9,3.1,1,4.38.1,1.28.14,3.15.13,5.6-.18,29.52-.36,59.03-.53,88.55-.04,7.34-1.43,11.64-4.16,12.92-1.37.64-3.09.96-5.16.95-2.08,0-3.72-.27-4.94-.81-1.22-.54-2.14-1.18-2.79-1.94-.64-.75-1.14-1.83-1.49-3.23-.35-1.83-.51-4.62-.49-8.39.09-18.01.19-36.02.28-54.02-1.81,3.27-4.46,8.48-7.95,15.68-3.48,7.2-5.69,11.74-6.63,13.56-.94,1.83-1.59,3.09-1.95,3.78-.36.7-1.25,1.66-2.65,2.89-1.41,1.23-2.91,1.83-4.53,1.81-1.62-.02-3.08-.61-4.41-1.77-1.33-1.16-2.27-2.29-2.84-3.38-.29-.6-.57-1.21-.86-1.81-1.43-2.74-4.24-8.58-8.45-17.56-4.21-8.97-6.5-13.81-6.86-14.47-.05,18.44-.1,36.88-.15,55.33,0,2.52-.06,4.41-.18,5.66-.11,1.26-.46,2.65-1.03,4.18-1.08,2.95-3.88,4.43-8.4,4.43-4.37,0-7.09-1.48-8.16-4.45-.57-1.54-.91-2.97-1.01-4.29-.11-1.32-.15-3.3-.15-5.93.05-30.49.1-60.98.15-91.47,0-2.53.06-4.42.17-5.68.11-1.26.46-2.71,1.04-4.35,1.09-2.83,3.9-4.21,8.45-4.1,1.95.05,3.62.45,5.03,1.2,1.4.75,2.32,1.52,2.75,2.3.22.33.43.67.65,1,8.14,16.55,16.26,33.06,24.35,49.46,12.32-24.12,20.58-39.63,24.72-47.13,1.24-2.83,4.15-4.1,8.72-3.8,4.57.31,7.35,1.95,8.35,4.89Z" style="fill: #b50000; stroke-width: 0px;"/>
        <path d="M2025.5,834.92c11.04.25,22.09.54,33.12.85,1.65.05,2.88.16,3.71.33.82.17,1.77.68,2.84,1.52,1.92,1.47,2.86,5.4,2.8,11.82-.06,7.02-1.42,11.13-4.08,12.33-1.22.6-3.09.9-5.6.9-14.19-.03-28.37-.05-42.56-.07-5.02,0-7.94-2.01-8.77-6.04-.42-1.69-.62-4.39-.59-8.1.19-29.41.38-58.82.57-88.22.04-5.4.74-9.02,2.12-10.87,1.38-1.85,3.98-2.62,7.79-2.29,14.17,1.2,28.33,2.58,42.48,4.16,1.65.18,2.89.4,3.71.65.82.25,1.77.83,2.84,1.76,1.93,1.63,2.86,5.66,2.81,12.08-.06,7.02-1.43,11.01-4.09,11.99-1.22.5-3.09.64-5.6.42-11.02-.94-22.04-1.79-33.07-2.55-.04,5.27-.08,10.54-.11,15.81,7.11.4,14.22.84,21.32,1.3,1.65.11,2.89.27,3.71.47.82.21,1.77.76,2.84,1.64,1.93,1.56,2.86,5.58,2.81,12.08-.06,7.11-1.46,11.21-4.19,12.32-1.22.56-3.09.79-5.6.69-7.03-.28-14.06-.55-21.09-.8-.04,5.27-.08,10.54-.11,15.81Z" style="fill: #b50000; stroke-width: 0px;"/>
        <path d="M2108.15,757.32c19.9,2.85,39.76,6.07,59.57,9.68,2.28.42,3.95,1.05,5.01,1.89,1.06.84,1.77,1.99,2.11,3.42.34,1.44.51,3.27.49,5.5-.02,2.23-.21,3.99-.58,5.26-.37,1.28-.98,2.11-1.84,2.5-1.29.58-3.11.7-5.46.36-6.81-1-13.63-1.96-20.45-2.88-.2,22.72-.4,45.45-.6,68.17-.02,2.08-.09,3.61-.2,4.61-.12.99-.45,2.14-1,3.45-.55,1.31-1.51,2.23-2.87,2.77-1.37.54-3.16.81-5.38.8-2.22,0-3.99-.29-5.31-.85-1.32-.56-2.24-1.51-2.77-2.87-.53-1.35-.84-2.56-.93-3.64-.1-1.07-.14-2.68-.12-4.82.21-23.35.42-46.71.64-70.06-6.87-.86-13.73-1.69-20.61-2.48-2.29-.26-3.97-.81-5.04-1.66-1.07-.85-1.77-2.06-2.12-3.65-.34-1.59-.51-3.64-.48-6.16.02-2.51.22-4.5.59-5.95.37-1.45.99-2.41,1.85-2.87,1.3-.69,3.13-.87,5.49-.53Z" style="fill: #b50000; stroke-width: 0px;"/>
        <path d="M2211.55,774.66c10.5,2.25,19.58,8.52,27.29,17.97,7.71,9.48,11.58,19.54,11.58,30.87,0,11.34-3.7,20.63-11.15,28.63-7.45,7.98-16.64,12.36-27.53,12.37-10.89.01-20.12-4.41-27.68-13.91-7.56-9.48-11.27-21.09-11.17-34.2.05-7.16,1.18-13.76,3.37-19.69,2.19-5.93,5.08-10.67,8.67-14.2,3.59-3.53,7.7-5.98,12.34-7.37,4.63-1.39,9.4-1.51,14.29-.47ZM2191.85,817.58c-.05,7.39,1.96,13.57,6.04,18.37,4.08,4.8,8.66,7.24,13.74,7.49,5.08.25,9.66-1.65,13.74-5.52,4.09-3.87,6.13-9.14,6.15-16.01.02-6.87-2.01-12.64-6.08-17.49-4.07-4.85-8.62-7.79-13.68-8.61-5.05-.83-9.61.66-13.7,4.64-4.09,3.97-6.16,9.75-6.21,17.14Z" style="fill: #b50000; stroke-width: 0px;"/>
      </g>
      <g>
        <path d="M1475.82,1006.32c1.55,4.32,2.32,7.42,2.31,9.27-.01,4.4-3.25,7.73-9.7,9.87-3.33,1.17-6.01,1.61-8.03,1.34-2.02-.27-3.69-1.04-4.98-2.28-1.3-1.25-2.25-2.47-2.87-3.68-1.03-2.26-5.05-13.05-12.08-31.78-1.61-.05-3.22-.1-4.83-.16-6.54-.67-13.09-1.35-19.63-2.05,0,6.1-.02,12.2-.02,18.3,0,2.49-.08,4.34-.24,5.56-.16,1.22-.65,2.58-1.48,4.08-1.46,2.71-5.5,3.56-12.13,2.55-7.25-1.11-11.5-3.71-12.74-7.75-.62-1.87-.93-4.62-.93-8.27v-86.75c0-2.4.08-4.19.23-5.39.16-1.2.65-2.57,1.48-4.13,1.46-2.81,5.52-4.22,12.19-4.21,11.25.02,22.51.03,33.76.05,9.17.01,18.07,3.57,26.7,10.96,4.16,3.58,7.58,8.45,10.27,14.62,2.69,6.17,4.02,13.04,4,20.55-.04,13.06-3.98,23.59-11.8,31.29,2.27,6.24,5.78,15.52,10.52,28.02ZM1416.05,958.19c6.65.48,13.31.94,19.96,1.4,3.02.21,6.03-.8,9.06-3.07,3.02-2.26,4.54-5.89,4.55-10.83.01-4.94-1.49-8.74-4.5-11.37-3.01-2.63-6.13-3.98-9.36-4.09-6.56-.23-13.12-.46-19.67-.7-.01,9.56-.02,19.11-.04,28.67Z" style="fill: #b50000; stroke-width: 0px;"/>
        <path d="M1514.38,1000.7c16.02,1.4,32.06,2.71,48.1,3.92,2.4.18,4.19.41,5.39.68,1.2.28,2.57.97,4.13,2.09,2.81,1.96,4.19,6.96,4.16,14.99-.04,8.78-1.99,13.75-5.84,14.88-1.78.58-4.48.69-8.13.33-20.62-2.05-41.22-4.3-61.81-6.76-7.28-.87-11.53-3.63-12.76-8.21-.62-1.94-.92-4.95-.91-9.03.11-32.41.22-64.83.32-97.24.02-5.95,1.02-9.99,3.01-12.14,1.98-2.15,5.74-3.24,11.27-3.23,20.53.02,41.06.04,61.59.06,2.4,0,4.19.1,5.39.29,1.2.19,2.57.78,4.13,1.79,2.81,1.76,4.19,6.66,4.16,14.68-.04,8.78-1.99,13.89-5.85,15.29-1.78.71-4.49,1.02-8.13.93-15.99-.39-31.98-.82-47.97-1.28-.02,6.04-.04,12.08-.07,18.12,10.31.46,20.62.89,30.93,1.31,2.39.1,4.19.26,5.39.49,1.2.23,2.57.87,4.13,1.92,2.81,1.84,4.19,6.74,4.16,14.67-.03,8.68-2.04,13.64-6,14.87-1.78.63-4.48.82-8.13.58-10.21-.67-20.41-1.37-30.61-2.1-.02,6.04-.05,12.08-.07,18.11Z" style="fill: #b50000; stroke-width: 0px;"/>
        <path d="M1652.9,911.32c13.94,36.65,27.89,74.04,41.86,111.95,1.76,4.62,2.64,8.08,2.63,10.35-.01,4.81-3.06,9-9.12,12.51-3.56,2.06-6.35,3.01-8.39,2.89-2.03-.13-3.7-.83-5-2.1-1.3-1.27-2.24-2.59-2.8-3.95-.57-1.36-1.37-3.39-2.41-6.1-2.69-7.3-5.38-14.58-8.06-21.83-14.45-.77-28.89-1.61-43.33-2.54-2.74,6.78-5.48,13.52-8.21,20.23-1.05,2.48-1.87,4.27-2.45,5.38-.58,1.1-1.52,2.21-2.83,3.31-1.31,1.1-2.98,1.56-5.01,1.38-2.03-.18-4.82-1.51-8.35-3.98-6.03-4.08-9.04-8.38-9.02-12.91,0-2.14.9-5.28,2.7-9.43,14.21-34.18,28.43-69.42,42.63-105.5,1.16-2.97,2.91-5.36,5.26-7.17,2.35-1.81,4.83-2.72,7.44-2.72,5.63,0,9.78,3.4,12.47,10.23ZM1640.06,958.14c-3.47,8.82-6.95,17.59-10.42,26.31,6.93.32,13.87.62,20.8.91-3.46-9.12-6.92-18.19-10.38-27.22Z" style="fill: #b50000; stroke-width: 0px;"/>
        <path d="M1769.96,1011.94c.94-.86,1.88-1.73,2.82-2.6,3.55-2.65,6.06-3.97,7.53-3.94,3.23.07,6.73,3.97,10.47,11.71,2.29,4.85,3.43,8.71,3.43,11.59,0,2.88-.71,5.27-2.13,7.15-1.41,1.89-3.06,3.56-4.94,5.02-1.88,1.46-3.69,2.85-5.41,4.17-1.73,1.32-5.26,3-10.59,5.02-5.33,2.01-10.48,2.92-15.44,2.74-4.96-.19-9.98-1.24-15.04-3.14-5.06-1.9-10.28-4.97-15.64-9.19-5.37-4.21-10.18-9.28-14.45-15.17-4.27-5.89-7.77-13.34-10.5-22.34-2.74-9-4.09-18.69-4.06-29.11.03-10.42,1.42-19.83,4.16-28.28,2.74-8.45,6.22-15.44,10.46-20.97,4.24-5.53,9.07-10.18,14.5-13.94,10.23-7.25,20.51-10.93,30.82-10.93,4.9,0,9.87.99,14.92,2.97,5.05,1.98,8.88,4.01,11.48,6.06,1.25.96,2.5,1.92,3.75,2.88,1.87,1.51,3.33,2.75,4.37,3.71,2.71,2.89,4.06,6.15,4.05,9.78,0,3.64-1.11,7.44-3.3,11.4-4.08,7.38-7.74,11.04-10.97,11.01-1.88-.02-4.53-1.55-7.97-4.58-4.37-4.68-10.21-7.05-17.5-7.11-6.78-.06-13.46,2.94-20.04,8.94-3.14,2.94-5.75,7.09-7.85,12.45-2.1,5.36-3.16,11.44-3.18,18.25-.02,6.81,1.01,12.94,3.08,18.4,2.07,5.46,4.72,9.8,7.95,13.01,6.35,6.16,12.97,9.35,19.87,9.55,3.24.09,6.29-.36,9.17-1.38,2.87-1.01,4.94-2.05,6.19-3.12Z" style="fill: #b50000; stroke-width: 0px;"/>
        <path d="M1812.22,900.96c28.97,0,57.94,0,86.91,0,3.33,0,5.78.52,7.35,1.55,1.56,1.03,2.61,2.65,3.13,4.86.52,2.21.79,5.1.79,8.68,0,3.58-.26,6.44-.78,8.58-.52,2.14-1.41,3.62-2.66,4.45-1.88,1.24-4.53,1.87-7.98,1.88-9.96.02-19.92.03-29.87.02,0,34.71,0,69.42,0,104.12,0,3.18-.08,5.52-.24,7.04-.16,1.52-.63,3.28-1.41,5.28-.78,2-2.17,3.41-4.16,4.23-1.99.82-4.6,1.23-7.84,1.21-3.24-.02-5.83-.45-7.76-1.29-1.94-.84-3.29-2.27-4.07-4.27-.78-2-1.25-3.8-1.41-5.39-.16-1.58-.23-3.96-.23-7.14.02-34.61.04-69.22.06-103.82-10.01-.02-20.02-.05-30.03-.09-3.34-.01-5.79-.54-7.35-1.58-1.56-1.04-2.6-2.65-3.12-4.85-.52-2.2-.78-5.08-.77-8.65,0-3.57.27-6.41.79-8.55.52-2.13,1.41-3.6,2.66-4.43,1.88-1.23,4.54-1.85,7.97-1.85Z" style="fill: #b50000; stroke-width: 0px;"/>
        <path d="M2023.57,903.36c6.16,3.9,9.25,8.18,9.26,12.88,0,2.15-.77,5.37-2.32,9.69-14.28,37.75-28.58,76.03-42.91,114.63-1.14,3.03-2.89,5.51-5.23,7.43-2.35,1.92-4.77,2.93-7.28,3.01-.52.02-1.05.03-1.57.05-2.61.09-5.1-.76-7.45-2.54-2.35-1.78-4.11-4.16-5.26-7.14-14.48-37.94-28.94-76.28-43.36-114.8-1.57-4.4-2.35-7.71-2.35-9.91,0-4.82,3.06-9.23,9.21-13.23,3.44-2.34,6.07-3.51,7.89-3.51,1.82,0,3.2.28,4.14.82.94.55,1.82,1.51,2.66,2.88.94,1.65,1.8,3.47,2.59,5.46.78,1.99,2.8,7.69,6.05,17.07,3.24,9.38,6.73,19.33,10.45,29.84,3.72,10.51,7.23,20.41,10.54,29.71,3.31,9.3,5.17,14.48,5.59,15.56,10.38-30.12,20.74-60.07,31.09-89.76.82-2.57,1.55-4.61,2.17-6.1,1.87-3.66,4.15-5.48,6.86-5.48,2.71,0,5.79,1.15,9.23,3.43Z" style="fill: #b50000; stroke-width: 0px;"/>
        <path d="M2041.43,918.79c0-3.08.06-5.39.21-6.93.15-1.54.64-3.31,1.47-5.32,1.45-3.62,5.51-5.42,12.18-5.42,7.29,0,11.63,2.45,13,7.34.53,2.25.8,5.69.82,10.32.13,36.79.25,73.59.38,110.38.01,3.18-.06,5.5-.21,6.96-.15,1.47-.64,3.22-1.47,5.25-1.45,3.66-5.51,5.71-12.19,6.11-7.31.43-11.6-1.87-12.86-6.9-.63-2.11-.96-5.5-.97-10.19-.11-37.2-.23-74.41-.34-111.61Z" style="fill: #b50000; stroke-width: 0px;"/>
        <path d="M2109.65,1015.01c14.18-.87,28.36-1.81,42.53-2.83,3.44-.25,5.94.04,7.51.87,1.57.83,2.61,2.23,3.14,4.2.53,1.97.8,4.62.81,7.95.01,3.33-.24,6.03-.75,8.08-.51,2.06-1.39,3.52-2.64,4.39-1.98,1.44-4.68,2.32-8.12,2.63-18.76,1.69-37.53,3.21-56.3,4.56-7.3.53-11.59-1.68-12.86-6.6-.63-2.06-.96-5.4-.97-10.01-.13-36.59-.26-73.18-.39-109.77-.01-3.03.06-5.3.21-6.81.15-1.51.64-3.26,1.47-5.24,1.45-3.56,5.5-5.33,12.17-5.33,7.29,0,11.63,2.4,13,7.2.53,2.21.8,5.58.82,10.12.12,32.2.25,64.39.37,96.59Z" style="fill: #b50000; stroke-width: 0px;"/>
        <path d="M2201.4,1008.32c14.16-1.2,28.31-2.48,42.46-3.83,3.43-.33,5.93-.13,7.49.59,1.56.72,2.61,1.99,3.13,3.81.52,1.82.8,4.27.8,7.36.01,3.09-.24,5.6-.75,7.53-.52,1.93-1.39,3.32-2.64,4.18-1.97,1.41-4.67,2.33-8.1,2.74-18.71,2.24-37.44,4.31-56.18,6.22-7.29.74-11.57-1.21-12.84-5.84-.63-1.94-.96-5.09-.98-9.46-.14-34.7-.28-69.4-.42-104.1-.01-2.87.06-5.02.21-6.46.15-1.43.64-3.09,1.46-4.97,1.44-3.37,5.5-5.06,12.17-5.06,7.29,0,11.63,2.27,13,6.78.53,2.08.8,5.25.82,9.53.12,30.33.24,60.66.36,90.98Z" style="fill: #b50000; stroke-width: 0px;"/>
        <path d="M2292.96,994.57c16-1.65,31.99-3.4,47.97-5.24,2.39-.28,4.18-.4,5.37-.39,1.19.02,2.57.36,4.12,1.01,2.8,1.14,4.2,5.02,4.2,11.69,0,7.29-1.92,11.85-5.75,13.7-1.76.9-4.45,1.63-8.08,2.18-20.52,3.11-41.06,6.02-61.62,8.72-7.27.96-11.54-.69-12.8-4.93-.63-1.77-.95-4.68-.96-8.73-.1-32.13-.2-64.26-.3-96.39-.02-5.9.96-9.92,2.93-12.06,1.97-2.14,5.72-3.21,11.24-3.21,20.53-.03,41.06-.05,61.58-.08,2.39,0,4.19.07,5.39.23,1.2.16,2.58.65,4.14,1.49,2.81,1.46,4.22,5.51,4.22,12.18,0,7.29-1.93,11.62-5.77,13.03-1.77.69-4.47,1.12-8.12,1.25-15.97.6-31.95,1.17-47.93,1.71.01,5.67.03,11.34.04,17.02,10.3-.54,20.6-1.1,30.9-1.67,2.39-.13,4.19-.15,5.38-.06,1.2.09,2.57.53,4.14,1.29,2.81,1.34,4.22,5.4,4.22,12.22,0,7.45-1.96,12-5.91,13.65-1.77.81-4.46,1.38-8.1,1.71-10.18.93-20.37,1.82-30.55,2.68.01,5.67.03,11.34.04,17.02Z" style="fill: #b50000; stroke-width: 0px;"/>
      </g>
    </g>
  </g>
  <g id="landing-fade-2">
    <g id="landing-fade-2-animation">
      <g>
        <rect x="2297.5" y="1268.67" width="529" height="167.05" rx="83.53" ry="83.53" style="fill: #ebf4f7; stroke-width: 0px;"/>
        <circle cx="2451.79" cy="1284.53" r="83.14" style="fill: #ebf4f7; stroke-width: 0px;"/>
        <circle cx="2552.72" cy="1284.92" r="112.92" style="fill: #ebf4f7; stroke-width: 0px;"/>
        <circle cx="2654.03" cy="1314.31" r="112.92" style="fill: #ebf4f7; stroke-width: 0px;"/>
        <circle cx="2653.65" cy="1387.39" r="98.61" style="fill: #ebf4f7; stroke-width: 0px;"/>
        <circle cx="2553.11" cy="1368.06" r="98.61" style="fill: #ebf4f7; stroke-width: 0px;"/>
        <circle cx="2425.5" cy="1368.06" r="98.61" style="fill: #ebf4f7; stroke-width: 0px;"/>
      </g>
    </g>
  </g>
  <g id="landing-fade-1">
    <g id="landing-fade-1-animation">
      <g>
        <rect x="988.5" y="554.67" width="529" height="167.05" rx="83.53" ry="83.53" style="fill: #f5fcff; stroke-width: 0px;"/>
        <circle cx="1142.79" cy="570.53" r="83.14" style="fill: #f5fcff; stroke-width: 0px;"/>
        <circle cx="1243.72" cy="570.92" r="112.92" style="fill: #f5fcff; stroke-width: 0px;"/>
        <circle cx="1345.03" cy="600.31" r="112.92" style="fill: #f5fcff; stroke-width: 0px;"/>
        <circle cx="1344.65" cy="673.39" r="98.61" style="fill: #f5fcff; stroke-width: 0px;"/>
        <circle cx="1244.11" cy="654.06" r="98.61" style="fill: #f5fcff; stroke-width: 0px;"/>
        <circle cx="1116.5" cy="654.06" r="98.61" style="fill: #f5fcff; stroke-width: 0px;"/>
      </g>
    </g>
  </g>
</svg>