<?xml version="1.0" encoding="UTF-8"?>
<svg id="Fade_Layer_2" data-name="Fade Layer 2" xmlns="http://www.w3.org/2000/svg" viewBox="0 0 3840 2160">
  <defs>
    <style>
      .cls-1 {
        fill: #2b82d8;
        stroke-width: 0px;
      }
    </style>
  </defs>
  <g>
    <circle class="cls-1" cx="1138" cy="1299" r="24"/>
    <path class="cls-1" d="M1159.8,1364.06l9.52,58.06c4,24.4-12.76,46.89-34.95,46.89h-18.53c-25.05,0-42.24-28.21-33.06-54.28l9.05-25.69,13.11-37.24c13.49-38.33,47.83-30.65,54.87,12.27Z"/>
  </g>
  <g>
    <circle class="cls-1" cx="1795.54" cy="1270.5" r="24"/>
    <path class="cls-1" d="M1817.34,1335.56l9.52,58.06c4,24.4-12.76,46.89-34.95,46.89h-18.53c-25.05,0-42.24-28.21-33.06-54.28l9.05-25.69,13.11-37.24c13.49-38.33,47.83-30.65,54.87,12.27Z"/>
  </g>
  <g>
    <circle class="cls-1" cx="2450.06" cy="1367.33" r="24"/>
    <path class="cls-1" d="M2428.26,1432.39l-9.52,58.06c-4,24.4,12.76,46.89,34.95,46.89h18.53c25.05,0,42.24-28.21,33.06-54.28l-9.05-25.69-13.11-37.24c-13.49-38.33-47.83-30.65-54.87,12.27Z"/>
  </g>
</svg>