<?xml version="1.0" encoding="UTF-8"?>
<svg xmlns="http://www.w3.org/2000/svg" viewBox="0 0 3840 2160">
  <g id="quickSelect-fade-1">
    <g id="quickSelect-fade-1-animation">
      <path d="M2856.26,1453.08l-77.41-54.89c-27.99-14.56-61.39-23.57-92.33-23.57H572.48c-30.94,0-64.33,9.01-92.33,23.57l-77.41,54.89c-12.3,8.88-19.6,26.56-7.68,35.91,3.46,2.72,14.22,6.24,19.1,6.24l784.29,2.77v-1.55l423.09,1.5v.06l7.95-.03,7.95.03v-.06l423.09-1.5v1.55l784.29-2.77c4.88,0,15.64-3.52,19.1-6.24,11.92-9.35,4.62-27.03-7.68-35.91Z" style="fill: #ace5db; stroke-width: 0px;"/>
      <path d="M2728.8,1411.7c-3.71-1.15-7.53-1.89-11.4-2.21l-19.82-1.61H561.43l-19.82,1.61c-3.87.31-7.7,1.05-11.4,2.21l-53.2,18.3,11.64,14.63,72.78-4.85h2136.15l72.78,4.85,11.64-14.63-53.2-18.3Z" style="fill: #45a091; stroke-width: 0px;"/>
    </g>
  </g>
  <g id="quickSelect-move">
    <rect x="0" y="1495" width="3840" height="664" style="fill: #1c6357; stroke-width: 0px;"/>
    <g>
      <path d="M1920.97,1098.37h0c133.52,0,241.91,108.4,241.91,241.91v169.84h-483.83v-169.84c0-133.52,108.4-241.91,241.91-241.91Z" style="fill: #237a6b; stroke-width: 0px;"/>
      <rect x="2163.05" y="1316.86" width="554.02" height="193.03" style="fill: #2e9987; stroke-width: 0px;"/>
      <rect x="1124.88" y="1316.86" width="554.02" height="193.03" style="fill: #2e9987; stroke-width: 0px;"/>
      <path d="M1921.19,1364.73h0c23,0,41.68,18.67,41.68,41.68v103.72h-83.35v-103.72c0-23,18.67-41.68,41.68-41.68Z" style="fill: #d0f4ee; stroke-width: 0px;"/>
      <path d="M1921.46,1147.77h0c86.28,0,156.32,70.05,156.32,156.32h-312.64c0-86.28,70.05-156.32,156.32-156.32Z" style="fill: #d0f4ee; stroke-width: 0px;"/>
      <path d="M1920.8,1239.71h0c17.51,0,31.73,14.22,31.73,31.73v43.85h-63.45v-43.85c0-17.51,14.22-31.73,31.73-31.73Z" style="fill: #237a6b; stroke-width: 0px;"/>
      <path d="M1665.19,1225.29h28.38c2.37,0,4.3,1.93,4.3,4.3v280.4h-36.98v-280.4c0-2.37,1.93-4.3,4.3-4.3Z" style="fill: #237a6b; stroke-width: 0px;"/>
      <path d="M1680.24,1141.69h-3.55c-1.32,0-2.43.98-2.59,2.3l-10.37,84.82h30.71l-11.6-84.86c-.18-1.29-1.28-2.26-2.59-2.26Z" style="fill: #237a6b; stroke-width: 0px;"/>
      <path d="M1921.72,1048h0c17.29,0,31.34,14.04,31.34,31.34v26.95h-62.67v-26.95c0-17.29,14.04-31.34,31.34-31.34Z" style="fill: #237a6b; stroke-width: 0px;"/>
      <path d="M1803.66,1364.73h0c23,0,41.68,18.67,41.68,41.68v103.72h-83.35v-103.72c0-23,18.67-41.68,41.68-41.68Z" style="fill: #d0f4ee; stroke-width: 0px;"/>
      <path d="M2039.3,1364.73h0c23,0,41.68,18.67,41.68,41.68v103.72h-83.35v-103.72c0-23,18.67-41.68,41.68-41.68Z" style="fill: #d0f4ee; stroke-width: 0px;"/>
      <path d="M1592.79,1400.52h0c15.74,0,28.52,12.78,28.52,28.52v81.16h-57.03v-81.16c0-15.74,12.78-28.52,28.52-28.52Z" style="fill: #d0f4ee; stroke-width: 0px;"/>
      <path d="M1500.04,1400.52h0c15.74,0,28.52,12.78,28.52,28.52v81.16h-57.03v-81.16c0-15.74,12.78-28.52,28.52-28.52Z" style="fill: #d0f4ee; stroke-width: 0px;"/>
      <path d="M1407.28,1400.52h0c15.74,0,28.52,12.78,28.52,28.52v81.16h-57.03v-81.16c0-15.74,12.78-28.52,28.52-28.52Z" style="fill: #d0f4ee; stroke-width: 0px;"/>
      <path d="M1314.53,1400.52h0c15.74,0,28.52,12.78,28.52,28.52v81.16h-57.03v-81.16c0-15.74,12.78-28.52,28.52-28.52Z" style="fill: #d0f4ee; stroke-width: 0px;"/>
      <rect x="1125.09" y="1286.55" width="554.02" height="34.47" style="fill: #237a6b; stroke-width: 0px;"/>
      <rect x="2162.82" y="1287.18" width="554.02" height="34.47" style="fill: #237a6b; stroke-width: 0px;"/>
      <circle cx="1921.07" cy="1272.59" r="21.55" style="fill: #e4f4f1; stroke-width: 0px;"/>
      <rect x="1089.56" y="1249.41" width="179.24" height="260.72" style="fill: #2e9987; stroke-width: 0px;"/>
      <rect x="2571.2" y="1249.41" width="179.24" height="260.72" style="fill: #2e9987; stroke-width: 0px;"/>
      <rect x="1089.56" y="1232.49" width="179.24" height="34.47" style="fill: #237a6b; stroke-width: 0px;"/>
      <rect x="2571.2" y="1231.86" width="179.24" height="34.47" style="fill: #237a6b; stroke-width: 0px;"/>
      <path d="M2660.51,1400.52h0c15.74,0,28.52,12.78,28.52,28.52v81.16h-57.03v-81.16c0-15.74,12.78-28.52,28.52-28.52Z" style="fill: #d0f4ee; stroke-width: 0px;"/>
      <path d="M1179.49,1400.52h0c15.74,0,28.52,12.78,28.52,28.52v81.16h-57.03v-81.16c0-15.74,12.78-28.52,28.52-28.52Z" style="fill: #d0f4ee; stroke-width: 0px;"/>
      <path d="M1148.47,1294.73h0c8.65,0,15.67,7.02,15.67,15.67v36.35h-31.34v-36.35c0-8.65,7.02-15.67,15.67-15.67Z" style="fill: #d0f4ee; stroke-width: 0px;"/>
      <path d="M1209.89,1294.73h0c8.65,0,15.67,7.02,15.67,15.67v36.35h-31.34v-36.35c0-8.65,7.02-15.67,15.67-15.67Z" style="fill: #d0f4ee; stroke-width: 0px;"/>
      <path d="M2630.11,1295.42h0c8.65,0,15.67,7.02,15.67,15.67v36.35h-31.34v-36.35c0-8.65,7.02-15.67,15.67-15.67Z" style="fill: #d0f4ee; stroke-width: 0px;"/>
      <path d="M2691.53,1295.42h0c8.65,0,15.67,7.02,15.67,15.67v36.35h-31.34v-36.35c0-8.65,7.02-15.67,15.67-15.67Z" style="fill: #d0f4ee; stroke-width: 0px;"/>
      <path d="M2148.56,1225.19h28.44c2.36,0,4.27,1.91,4.27,4.27v280.43h-36.98v-280.43c0-2.36,1.91-4.27,4.27-4.27Z" style="fill: #237a6b; stroke-width: 0px;"/>
      <path d="M2164,1138.89h-3.55c-1.32,0-2.43.98-2.59,2.3l-10.37,84.82h30.71l-11.6-84.86c-.18-1.29-1.28-2.26-2.59-2.26Z" style="fill: #237a6b; stroke-width: 0px;"/>
      <path d="M2526.37,1400.18h0c15.74,0,28.52,12.78,28.52,28.52v81.16h-57.03v-81.16c0-15.74,12.78-28.52,28.52-28.52Z" style="fill: #d0f4ee; stroke-width: 0px;"/>
      <path d="M2433.61,1400.18h0c15.74,0,28.52,12.78,28.52,28.52v81.16h-57.03v-81.16c0-15.74,12.78-28.52,28.52-28.52Z" style="fill: #d0f4ee; stroke-width: 0px;"/>
      <path d="M2340.86,1400.18h0c15.74,0,28.52,12.78,28.52,28.52v81.16h-57.03v-81.16c0-15.74,12.78-28.52,28.52-28.52Z" style="fill: #d0f4ee; stroke-width: 0px;"/>
      <path d="M2248.1,1400.18h0c15.74,0,28.52,12.78,28.52,28.52v81.16h-57.03v-81.16c0-15.74,12.78-28.52,28.52-28.52Z" style="fill: #d0f4ee; stroke-width: 0px;"/>
    </g>
  </g>
</svg>